<svg width="60" height="48" viewBox="0 0 60 48" fill="none" xmlns="http://www.w3.org/2000/svg">
<path d="M59.4539 43.4096V43.4104C59.4539 45.6787 57.6201 47.5 55.3123 47.5H4.64159C2.33375 47.5 0.5 45.6787 0.5 43.4104V11.5H59.4993L59.4539 43.4096Z" fill="#FFE5EB" fill-opacity="0.8" stroke="#333638"/>
<path d="M59.4539 4.59275V4.58964C59.4539 2.32127 57.6201 0.5 55.3123 0.5H4.64159C2.33375 0.5 0.5 2.32127 0.5 4.58964V11.5H59.4969L59.4539 4.59275Z" fill="#FFE6EB" fill-opacity="0.8" stroke="#333638"/>
<ellipse cx="8.13559" cy="6.5" rx="1.52542" ry="1.5" fill="#333638"/>
<ellipse cx="14.2373" cy="6.5" rx="1.52542" ry="1.5" fill="#333638"/>
<ellipse cx="20.339" cy="6.5" rx="1.52542" ry="1.5" fill="#333638"/>
<path d="M30.104 16L17 20.673L18.9987 37.9995L30.104 44.1504L41.2093 37.9995L43.208 20.673L30.104 16Z" fill="#DD0031"/>
<path d="M30.104 16V19.1247V19.1106V33.3688V44.1504L41.2093 37.9995L43.208 20.673L30.104 16Z" fill="#C3002F"/>
<path d="M30.104 19.1106L21.9122 37.4787H24.9665L26.6133 33.3688H33.5665L35.2133 37.4787H38.2676L30.104 19.1106ZM32.4968 30.8352H27.7112L30.104 25.0785L32.4968 30.8352Z" fill="white"/>
<path opacity="0.5" d="M59.4539 43.4096V43.4104C59.4539 45.6787 57.6201 47.5 55.3123 47.5H4.64159C2.33375 47.5 0.5 45.6787 0.5 43.4104V11.5H59.4993L59.4539 43.4096Z" fill="#FFE5EB" fill-opacity="0.8" stroke="#333638"/>
</svg>
