<svg width="60" height="48" viewBox="0 0 60 48" fill="none" xmlns="http://www.w3.org/2000/svg">
<path d="M59.4539 43.4096V43.4104C59.4539 45.6787 57.6201 47.5 55.3123 47.5H4.64159C2.33375 47.5 0.5 45.6787 0.5 43.4104V11.5H59.4993L59.4539 43.4096Z" fill="#F2F2F3" stroke="#333638"/>
<path d="M59.4539 4.59275V4.58964C59.4539 2.32127 57.6201 0.5 55.3123 0.5H4.64159C2.33375 0.5 0.5 2.32127 0.5 4.58964V11.5H59.4969L59.4539 4.59275Z" fill="#F2F2F3" stroke="#333638"/>
<ellipse cx="8.13565" cy="6.5" rx="1.52542" ry="1.5" fill="#333638"/>
<ellipse cx="14.2373" cy="6.5" rx="1.52542" ry="1.5" fill="#333638"/>
<ellipse cx="20.339" cy="6.5" rx="1.52542" ry="1.5" fill="#333638"/>
<path d="M43.1213 28.494L37.3217 33.2734C36.7717 33.7123 36.7217 34.4927 37.1717 34.9804C37.4217 35.273 37.7717 35.4193 38.1216 35.4193C38.4216 35.4193 38.6716 35.3217 38.9216 35.1267L45.8212 29.4206C46.1211 29.1768 46.2711 28.8354 46.2711 28.494C46.2711 28.1526 46.1211 27.8112 45.8212 27.5674L38.9216 21.8614C38.4216 21.4225 37.6217 21.4712 37.1717 22.0077C36.7217 22.4954 36.7717 23.2757 37.3217 23.7146L43.1213 28.494Z" fill="#333638"/>
<path d="M13.7288 28.494C13.7288 28.8354 13.8787 29.1768 14.1787 29.4206L21.0783 35.1267C21.3283 35.3217 21.5783 35.4193 21.8782 35.4193C22.2282 35.4193 22.5782 35.273 22.8282 34.9804C23.2781 34.4927 23.2282 33.7123 22.6782 33.2734L16.8786 28.494L22.6782 23.7146C23.2282 23.2757 23.2781 22.5442 22.8282 22.0077C22.3782 21.4712 21.6283 21.4225 21.0783 21.8614L14.1787 27.5674C13.8787 27.8112 13.7288 28.1526 13.7288 28.494Z" fill="#333638"/>
<path d="M31.7498 19.7683L25.9002 36.2931C25.6502 36.9271 25.9502 37.6098 26.6002 37.9025C26.7502 37.9512 26.9001 38 27.0501 38C27.5501 38 28.0001 37.7074 28.2001 37.2197L34.0997 20.695C34.3497 20.061 34.0497 19.3294 33.3997 19.0856C32.7498 18.8417 31.9998 19.1343 31.7498 19.7683Z" fill="#333638"/>
<path opacity="0.5" d="M59.4539 43.4096V43.4104C59.4539 45.6787 57.6201 47.5 55.3123 47.5H4.64159C2.33375 47.5 0.5 45.6787 0.5 43.4104V11.5H59.4993L59.4539 43.4096Z" fill="#F2F2F3" stroke="#333638"/>
</svg>
