<svg width="60" height="48" viewBox="0 0 60 48" fill="none" xmlns="http://www.w3.org/2000/svg">
<path d="M59.4539 43.4096V43.4104C59.4539 45.6787 57.6201 47.5 55.3123 47.5H4.64159C2.33375 47.5 0.5 45.6787 0.5 43.4104V11.5H59.4993L59.4539 43.4096Z" fill="#E1EFFF" fill-opacity="0.8" stroke="#333638"/>
<path d="M59.4539 4.59275V4.58964C59.4539 2.32127 57.6201 0.5 55.3123 0.5H4.64159C2.33375 0.5 0.5 2.32127 0.5 4.58964V11.5H59.4969L59.4539 4.59275Z" fill="#E1EFFF" fill-opacity="0.8" stroke="#333638"/>
<ellipse cx="8.13565" cy="6.5" rx="1.52542" ry="1.5" fill="#333638"/>
<ellipse cx="14.2373" cy="6.5" rx="1.52542" ry="1.5" fill="#333638"/>
<ellipse cx="20.339" cy="6.5" rx="1.52542" ry="1.5" fill="#333638"/>
<path d="M38.3171 39.8916L30.4868 41.9999L22.6565 39.8916L20.8496 20.316H40.1242L38.3171 39.8916Z" fill="#2062AF"/>
<path d="M30.4868 21.9017V40.3185L30.5045 40.3233L36.8412 38.617L38.3038 21.9017H30.4868V21.9017Z" fill="#3C9CD7"/>
<path d="M26.0429 17.4401V16.2749H27.7428V15H24.7679V18.6035H27.7428V17.4401H26.0429ZM30.8008 16.2749H31.9893V15H29.0141V16.2749C29.4122 16.673 29.6197 16.8635 30.1954 17.4391C29.8589 17.4391 29.0141 17.4404 29.0141 17.4403V18.6035H31.9893V17.4401L30.8008 16.2749ZM35.0175 16.2749H36.2059V15H33.2307V16.2749C33.6287 16.673 33.8364 16.8635 34.4121 17.4391C34.0757 17.4391 33.2307 17.4404 33.2307 17.4403V18.6035H36.206V17.4401L35.0175 16.2749V16.2749Z" fill="black"/>
<path d="M30.4798 26.7963L24.8755 29.1304L25.0613 31.4413L30.4798 29.1245L36.2437 26.6602L36.4827 24.2963L30.4798 26.7963Z" fill="white"/>
<path d="M24.8755 29.1304L25.0613 31.4413L30.4798 29.1246V26.7964L24.8755 29.1304V29.1304Z" fill="url(#paint0_linear_6:821)"/>
<path d="M36.4827 24.2964L30.4799 26.7964V29.1246L36.2437 26.6603L36.4827 24.2964Z" fill="url(#paint1_linear_6:821)"/>
<path d="M24.884 29.1304L25.0699 31.4413L33.3839 31.4678L33.1979 34.5489L30.4622 35.3191L27.8323 34.6551L27.6729 32.7426H25.2293L25.5481 36.4347L30.4887 37.8955L35.4026 36.4612L36.0401 29.1304H24.884V29.1304Z" fill="url(#paint2_linear_6:821)"/>
<path opacity="0.05" d="M30.4798 29.1304H24.8755L25.0613 31.4413L30.4798 31.4586V29.1304ZM30.4798 35.3117L30.4533 35.3192L27.8237 34.6551L27.6644 32.7427H25.2208L25.5395 36.4347L30.4798 37.8956V35.3117Z" fill="black"/>
<path d="M24.3707 24.2964H36.4826L36.2437 26.6603H24.6629L24.3707 24.2964V24.2964Z" fill="url(#paint3_linear_6:821)"/>
<path opacity="0.05" d="M30.4798 24.2964H24.3707L24.6629 26.6603H30.4798V24.2964V24.2964Z" fill="black"/>
<path opacity="0.5" d="M59.4539 43.4096V43.4104C59.4539 45.6787 57.6201 47.5 55.3123 47.5H4.64159C2.33375 47.5 0.5 45.6787 0.5 43.4104V11.5H59.4993L59.4539 43.4096Z" fill="#E1EFFF" fill-opacity="0.8" stroke="#333638"/>
<defs>
<linearGradient id="paint0_linear_6:821" x1="27.6777" y1="31.4414" x2="27.6777" y2="26.7964" gradientUnits="userSpaceOnUse">
<stop offset="0.387" stop-color="#D1D3D4" stop-opacity="0"/>
<stop offset="1" stop-color="#D1D3D4"/>
</linearGradient>
<linearGradient id="paint1_linear_6:821" x1="33.4812" y1="29.1247" x2="33.4812" y2="24.2964" gradientUnits="userSpaceOnUse">
<stop offset="0.387" stop-color="#D1D3D4" stop-opacity="0"/>
<stop offset="1" stop-color="#D1D3D4"/>
</linearGradient>
<linearGradient id="paint2_linear_6:821" x1="24.884" y1="33.513" x2="36.04" y2="33.513" gradientUnits="userSpaceOnUse">
<stop stop-color="#E8E7E5"/>
<stop offset="1" stop-color="white"/>
</linearGradient>
<linearGradient id="paint3_linear_6:821" x1="24.3707" y1="25.4784" x2="36.4826" y2="25.4784" gradientUnits="userSpaceOnUse">
<stop stop-color="#E8E7E5"/>
<stop offset="1" stop-color="white"/>
</linearGradient>
</defs>
</svg>
