<svg width="60" height="48" viewBox="0 0 60 48" fill="none" xmlns="http://www.w3.org/2000/svg">
<path d="M59.4539 43.4096V43.4104C59.4539 45.6787 57.6201 47.5 55.3123 47.5H4.64159C2.33375 47.5 0.5 45.6787 0.5 43.4104V11.5H59.4993L59.4539 43.4096Z" fill="#FFEBE5" fill-opacity="0.8" stroke="#333638"/>
<path d="M59.4539 4.59275V4.58964C59.4539 2.32127 57.6201 0.5 55.3123 0.5H4.64159C2.33375 0.5 0.5 2.32127 0.5 4.58964V11.5H59.4969L59.4539 4.59275Z" fill="#FFEBE6" fill-opacity="0.8" stroke="#333638"/>
<ellipse cx="8.13565" cy="6.5" rx="1.52542" ry="1.5" fill="#333638"/>
<ellipse cx="14.2373" cy="6.5" rx="1.52542" ry="1.5" fill="#333638"/>
<ellipse cx="20.339" cy="6.5" rx="1.52542" ry="1.5" fill="#333638"/>
<path d="M26.8693 38.2029L21.921 24.6413L35.5101 21L37.9819 35.2242L32.8297 38.2591L26.8693 38.2029Z" fill="#E44D26"/>
<path d="M32.5225 37.0767L36.6852 34.6231L34.5723 22.4677L29.0186 23.956L32.5225 37.0767Z" fill="#F16529"/>
<path d="M41.9731 28.0161L42.6063 30.1983L37.7588 31.5703C37.7588 31.5703 37.7588 34.4908 35.4065 35.6518C33.0544 36.8128 31.2271 35.8283 31.2271 35.8283L30.9345 34.9838L34.4238 34.0335L35.196 31.0421L32.9481 28.8272L29.7166 29.8062L29.436 29.0379C29.436 29.038 30.9459 25.6952 35.4071 27.5964C35.4071 27.5964 36.8129 28.4751 37.1282 29.25L41.9731 28.0161ZM42.6063 27.8522L43.3787 27.6292L44 29.8578L43.1915 30.1034L42.6063 27.8522Z" fill="#EFEFEF"/>
<path d="M42.8784 27.7538L43.3787 27.6293L44 29.8578L43.1915 30.1034L42.9799 29.3572L43.3024 29.2307L42.8784 27.7538ZM41.4386 28.1526L41.9731 28.0161L42.6063 30.1983L37.7588 31.5703C37.7588 31.5703 37.7067 34.1186 36.0197 35.2725C34.3356 36.4253 32.4376 36.3907 31.2265 35.8285L31.0915 35.4391C31.0915 35.4391 34.3876 36.2154 36.0197 33.7345C37.0039 32.0989 36.9867 30.9198 36.9867 30.9198L41.8508 29.6007L41.4386 28.1526ZM29.4354 29.0366L32.2806 28.2095L32.9468 28.8258L29.716 29.8048L29.4354 29.0366Z" fill="#BCBCBC"/>
<path d="M19.405 30.5833L19.9762 32.7823L24.8404 31.4772C24.8404 31.4772 26.333 33.9854 28.9477 33.7766C31.5633 33.5678 32.6288 31.7857 32.6288 31.7857L32.4485 30.9104L28.9658 31.8827L26.7738 29.7099L27.5734 26.6528L30.8504 25.8377L30.6987 25.0334C30.6987 25.0334 27.6944 22.9354 24.8318 26.855C24.8318 26.855 24.0742 28.33 24.1977 29.1572L19.405 30.5833ZM18.7777 30.7674L18 30.9715L18.6047 33.2039L19.425 33.0011L18.7777 30.7674Z" fill="#EFEFEF"/>
<path d="M18.4938 30.8214L18 30.9714L18.6047 33.2039L19.425 33.0011L19.2266 32.2508L18.8833 32.3079L18.4938 30.8214ZM19.9355 30.4265L19.405 30.5833L19.9762 32.7822L24.8404 31.4772C24.8404 31.4772 26.1879 33.6388 28.2262 33.7659C30.2626 33.8918 31.8746 32.8906 32.6288 31.7856L32.5466 31.3821C32.5466 31.3821 30.1102 33.7392 27.4399 32.4442C25.7591 31.5435 25.1724 30.5201 25.1724 30.5201L20.319 31.8814L19.9355 30.4265ZM30.6987 25.0341L27.8327 25.7809L27.5741 26.6529L30.851 25.8378L30.6987 25.0341Z" fill="#BCBCBC"/>
<path opacity="0.5" d="M59.4539 43.4096V43.4104C59.4539 45.6787 57.6201 47.5 55.3123 47.5H4.64159C2.33375 47.5 0.5 45.6787 0.5 43.4104V11.5H59.4993L59.4539 43.4096Z" fill="#FFEBE5" fill-opacity="0.8" stroke="#333638"/>
</svg>
