<svg width="60" height="48" viewBox="0 0 60 48" fill="none" xmlns="http://www.w3.org/2000/svg">
<path d="M59.4539 43.4096V43.4104C59.4539 45.6787 57.6201 47.5 55.3123 47.5H4.64159C2.33375 47.5 0.5 45.6787 0.5 43.4104V11.5H59.4993L59.4539 43.4096Z" fill="#F2F2F3" stroke="#333638"/>
<path d="M59.4539 4.59275V4.58964C59.4539 2.32127 57.6201 0.5 55.3123 0.5H4.64159C2.33375 0.5 0.5 2.32127 0.5 4.58964V11.5H59.4969L59.4539 4.59275Z" fill="#F2F2F3" stroke="#333638"/>
<ellipse cx="8.13565" cy="6.5" rx="1.52542" ry="1.5" fill="#333638"/>
<ellipse cx="14.2373" cy="6.5" rx="1.52542" ry="1.5" fill="#333638"/>
<ellipse cx="20.339" cy="6.5" rx="1.52542" ry="1.5" fill="#333638"/>
<g clip-path="url(#clip0_6:871)">
<path d="M25.7486 35.9566C25.7486 36.0621 25.6273 36.1465 25.4744 36.1465C25.3004 36.1623 25.1791 36.0779 25.1791 35.9566C25.1791 35.8512 25.3004 35.7668 25.4533 35.7668C25.6115 35.751 25.7486 35.8354 25.7486 35.9566ZM24.1086 35.7193C24.0717 35.8248 24.1771 35.9461 24.3354 35.9777C24.4725 36.0305 24.6307 35.9777 24.6623 35.8723C24.6939 35.7668 24.5938 35.6455 24.4355 35.598C24.2984 35.5611 24.1455 35.6139 24.1086 35.7193ZM26.4395 35.6297C26.2865 35.6666 26.1811 35.7668 26.1969 35.8881C26.2127 35.9936 26.3498 36.0621 26.508 36.0252C26.6609 35.9883 26.7664 35.8881 26.7506 35.7826C26.7348 35.6824 26.5924 35.6139 26.4395 35.6297ZM29.9094 15.4219C22.5951 15.4219 17 20.9748 17 28.2891C17 34.1373 20.6809 39.1418 25.9385 40.9031C26.6135 41.0244 26.8508 40.6078 26.8508 40.265C26.8508 39.9381 26.835 38.1346 26.835 37.0271C26.835 37.0271 23.1436 37.8182 22.3684 35.4557C22.3684 35.4557 21.7672 33.9211 20.9023 33.5256C20.9023 33.5256 19.6947 32.6977 20.9867 32.7135C20.9867 32.7135 22.2998 32.8189 23.0223 34.074C24.1771 36.1096 26.1125 35.5242 26.8666 35.1762C26.9879 34.3324 27.3307 33.7471 27.7104 33.399C24.7625 33.0721 21.7883 32.6449 21.7883 27.5719C21.7883 26.1217 22.1891 25.3939 23.0328 24.4658C22.8957 24.123 22.4475 22.7098 23.1699 20.8852C24.2721 20.5424 26.8086 22.309 26.8086 22.309C27.8633 22.0137 28.9971 21.8607 30.1203 21.8607C31.2436 21.8607 32.3773 22.0137 33.432 22.309C33.432 22.309 35.9686 20.5371 37.0707 20.8852C37.7932 22.715 37.3449 24.123 37.2078 24.4658C38.0516 25.3992 38.5684 26.127 38.5684 27.5719C38.5684 32.6607 35.4623 33.0668 32.5145 33.399C32.9996 33.8156 33.4109 34.6066 33.4109 35.8459C33.4109 37.623 33.3951 39.8221 33.3951 40.2545C33.3951 40.5973 33.6377 41.0139 34.3074 40.8926C39.5809 39.1418 43.1562 34.1373 43.1562 28.2891C43.1562 20.9748 37.2236 15.4219 29.9094 15.4219ZM22.1258 33.61C22.0572 33.6627 22.073 33.784 22.1627 33.8842C22.2471 33.9686 22.3684 34.0055 22.4369 33.9369C22.5055 33.8842 22.4896 33.7629 22.4 33.6627C22.3156 33.5783 22.1943 33.5414 22.1258 33.61ZM21.5563 33.1828C21.5193 33.2514 21.5721 33.3357 21.6775 33.3885C21.7619 33.4412 21.8674 33.4254 21.9043 33.3516C21.9412 33.283 21.8885 33.1986 21.783 33.1459C21.6775 33.1143 21.5932 33.1301 21.5563 33.1828ZM23.2648 35.0602C23.1805 35.1287 23.2121 35.2869 23.3334 35.3871C23.4547 35.5084 23.6076 35.5242 23.6762 35.4398C23.7447 35.3713 23.7131 35.2131 23.6076 35.1129C23.4916 34.9916 23.3334 34.9758 23.2648 35.0602ZM22.6637 34.285C22.5793 34.3377 22.5793 34.4748 22.6637 34.5961C22.748 34.7174 22.8904 34.7701 22.959 34.7174C23.0434 34.6488 23.0434 34.5117 22.959 34.3904C22.8852 34.2691 22.748 34.2164 22.6637 34.285Z" fill="black"/>
</g>
<path opacity="0.5" d="M59.4539 43.4096V43.4104C59.4539 45.6787 57.6201 47.5 55.3123 47.5H4.64159C2.33375 47.5 0.5 45.6787 0.5 43.4104V11.5H59.4993L59.4539 43.4096Z" fill="#F2F2F3" stroke="#333638"/>
<defs>
<clipPath id="clip0_6:871">
<rect width="26.1562" height="27" fill="white" transform="translate(17 15)"/>
</clipPath>
</defs>
</svg>
