<svg width="60" height="48" viewBox="0 0 60 48" fill="none" xmlns="http://www.w3.org/2000/svg">
<path d="M59.4539 43.4096V43.4104C59.4539 45.6787 57.6201 47.5 55.3123 47.5H4.64159C2.33375 47.5 0.5 45.6787 0.5 43.4104V11.5H59.4993L59.4539 43.4096Z" fill="#FFE8E4" fill-opacity="0.8" stroke="#333638"/>
<path d="M59.4539 4.59275V4.58964C59.4539 2.32127 57.6201 0.5 55.3123 0.5H4.64159C2.33375 0.5 0.5 2.32127 0.5 4.58964V11.5H59.4969L59.4539 4.59275Z" fill="#FFE8E4" stroke="#333638"/>
<ellipse cx="8.13565" cy="6.5" rx="1.52542" ry="1.5" fill="#333638"/>
<ellipse cx="14.2373" cy="6.5" rx="1.52542" ry="1.5" fill="#333638"/>
<ellipse cx="20.339" cy="6.5" rx="1.52542" ry="1.5" fill="#333638"/>
<path d="M17.5 26.4999L24.535 33.2499V26.4999L21.535 17.2899C21.3813 16.8159 20.653 16.8159 20.5 17.2899L17.5 26.4999Z" fill="#E24329"/>
<path d="M41.5001 26.4999L34.4651 33.2499V26.4999L37.4651 17.2899C37.6188 16.8159 38.3471 16.8159 38.5001 17.2899L41.5001 26.4999Z" fill="#E24329"/>
<path d="M29.5 41.785L18.25 26.5H40.75L29.5 41.785Z" fill="#E24329"/>
<path d="M29.5 41.785L24.535 26.5H17.5L20.5 34.75L29.5 41.785Z" fill="#FC6D26"/>
<path d="M29.5 41.785L34.465 26.5H41.5L38.5 34.75L29.5 41.785Z" fill="#FC6D26"/>
<path d="M17.5 26.5L16.075 31.12C15.94 31.5438 16.075 32.02 16.45 32.29L29.515 41.785L17.5 26.5Z" fill="#FCA326"/>
<path d="M41.5 26.5L42.925 31.12C43.06 31.5438 42.925 32.02 42.55 32.29L29.5 41.785L41.5 26.5Z" fill="#FCA326"/>
<path opacity="0.5" d="M59.4539 43.4096V43.4104C59.4539 45.6787 57.6201 47.5 55.3123 47.5H4.64159C2.33375 47.5 0.5 45.6787 0.5 43.4104V11.5H59.4993L59.4539 43.4096Z" fill="#FFE8E4" fill-opacity="0.8" stroke="#333638"/>
</svg>
