<svg width="60" height="48" viewBox="0 0 60 48" fill="none" xmlns="http://www.w3.org/2000/svg">
<path d="M59.4539 43.4096V43.4104C59.4539 45.6787 57.6201 47.5 55.3123 47.5H4.64159C2.33375 47.5 0.5 45.6787 0.5 43.4104V11.5H59.4993L59.4539 43.4096Z" fill="#E4FAFF" fill-opacity="0.8" stroke="#333638"/>
<path d="M59.4539 4.59275V4.58964C59.4539 2.32127 57.6201 0.5 55.3123 0.5H4.64159C2.33375 0.5 0.5 2.32127 0.5 4.58964V11.5H59.4969L59.4539 4.59275Z" fill="#E4FAFF" fill-opacity="0.8" stroke="#333638"/>
<ellipse cx="8.13565" cy="6.5" rx="1.52542" ry="1.5" fill="#333638"/>
<ellipse cx="14.2373" cy="6.5" rx="1.52542" ry="1.5" fill="#333638"/>
<ellipse cx="20.339" cy="6.5" rx="1.52542" ry="1.5" fill="#333638"/>
<path d="M12.3184 26.7267C12.2555 26.7267 12.2398 26.6956 12.2712 26.6489L12.6013 26.2289C12.6327 26.1822 12.7113 26.1511 12.7742 26.1511H18.3852C18.448 26.1511 18.4637 26.1978 18.4323 26.2445L18.1651 26.6489C18.1337 26.6956 18.0551 26.7422 18.0079 26.7422L12.3184 26.7267Z" fill="#00ACD7"/>
<path d="M9.94507 28.1577C9.8822 28.1577 9.86649 28.1266 9.89792 28.0799L10.228 27.6599C10.2594 27.6133 10.338 27.5822 10.4009 27.5822H17.5679C17.6307 27.5822 17.6622 27.6288 17.6464 27.6755L17.5207 28.0488C17.505 28.111 17.4421 28.1422 17.3793 28.1422L9.94507 28.1577Z" fill="#00ACD7"/>
<path d="M13.7487 29.5889C13.6858 29.5889 13.6701 29.5422 13.7015 29.4955L13.9215 29.1066C13.953 29.06 14.0159 29.0133 14.0787 29.0133H17.2221C17.285 29.0133 17.3164 29.06 17.3164 29.1222L17.285 29.4955C17.285 29.5577 17.2221 29.6044 17.175 29.6044L13.7487 29.5889Z" fill="#00ACD7"/>
<path d="M30.0629 26.4467C29.0727 26.6955 28.3969 26.8822 27.4224 27.1311C27.1867 27.1933 27.171 27.2089 26.9666 26.9755C26.7309 26.7111 26.558 26.54 26.2279 26.3844C25.2378 25.9022 24.279 26.0422 23.3831 26.6178C22.3144 27.3022 21.7643 28.3133 21.78 29.5733C21.7957 30.8178 22.6602 31.8444 23.9018 32.0155C24.9706 32.1555 25.8664 31.7822 26.5737 30.9889C26.7152 30.8178 26.8409 30.6311 26.9981 30.4133C26.4323 30.4133 25.725 30.4133 23.9647 30.4133C23.6346 30.4133 23.556 30.2111 23.666 29.9467C23.8704 29.4644 24.2476 28.6555 24.4676 28.2511C24.5148 28.1578 24.6248 28.0022 24.8605 28.0022C25.6621 28.0022 28.6169 28.0022 30.5816 28.0022C30.5501 28.4222 30.5501 28.8422 30.4873 29.2622C30.3144 30.3822 29.89 31.4089 29.1985 32.3111C28.0668 33.7889 26.5894 34.7067 24.7191 34.9555C23.1788 35.1578 21.7486 34.8622 20.4912 33.9289C19.3281 33.0578 18.668 31.9067 18.4951 30.4755C18.2908 28.78 18.7937 27.2555 19.8311 25.9178C20.947 24.4711 22.4244 23.5533 24.2319 23.2267C25.7093 22.9622 27.1238 23.1333 28.3969 23.9889C29.2299 24.5333 29.8272 25.28 30.2201 26.1822C30.3144 26.3222 30.2515 26.4 30.0629 26.4467Z" fill="#00ACD7"/>
<path d="M35.2653 35.0489C33.835 35.0178 32.5305 34.6133 31.4303 33.68C30.503 32.8867 29.9214 31.8755 29.7328 30.6778C29.4499 28.92 29.9372 27.3644 31.0059 25.98C32.1533 24.4867 33.5364 23.7089 35.4067 23.3822C37.0099 23.1022 38.5187 23.2578 39.8861 24.1755C41.1277 25.0155 41.8979 26.1511 42.1022 27.6444C42.3694 29.7444 41.7564 31.4555 40.2947 32.9178C39.2574 33.96 37.9843 34.6133 36.5226 34.9089C36.0983 34.9867 35.6739 35.0022 35.2653 35.0489ZM39.0059 28.7644C38.9902 28.5622 38.9902 28.4067 38.9588 28.2511C38.6759 26.7111 37.2456 25.84 35.7525 26.1822C34.2908 26.5089 33.3478 27.4267 33.002 28.8889C32.7191 30.1022 33.3163 31.3311 34.448 31.8289C35.3124 32.2022 36.1768 32.1555 37.0099 31.7355C38.2515 31.0978 38.9273 30.1022 39.0059 28.7644Z" fill="#00ACD7"/>
<path opacity="0.5" d="M59.4539 43.4096V43.4104C59.4539 45.6787 57.6201 47.5 55.3123 47.5H4.64159C2.33375 47.5 0.5 45.6787 0.5 43.4104V11.5H59.4993L59.4539 43.4096Z" fill="#E4FAFF" fill-opacity="0.8" stroke="#333638"/>
</svg>
