<svg width="60" height="48" viewBox="0 0 60 48" fill="none" xmlns="http://www.w3.org/2000/svg">
<path d="M59.4539 43.4096V43.4104C59.4539 45.6787 57.6201 47.5 55.3123 47.5H4.64159C2.33375 47.5 0.5 45.6787 0.5 43.4104V11.5H59.4993L59.4539 43.4096Z" fill="#FFEBE5" fill-opacity="0.8" stroke="#333638"/>
<path d="M59.4539 4.59275V4.58964C59.4539 2.32127 57.6201 0.5 55.3123 0.5H4.64159C2.33375 0.5 0.5 2.32127 0.5 4.58964V11.5H59.4969L59.4539 4.59275Z" fill="#FFEBE6" fill-opacity="0.8" stroke="#333638"/>
<ellipse cx="8.13565" cy="6.5" rx="1.52542" ry="1.5" fill="#333638"/>
<ellipse cx="14.2373" cy="6.5" rx="1.52542" ry="1.5" fill="#333638"/>
<ellipse cx="20.339" cy="6.5" rx="1.52542" ry="1.5" fill="#333638"/>
<g clip-path="url(#clip0_6:806)">
<path d="M22.7164 15H23.9293V16.2023H25.0473V15H26.2602V18.6387H25.0473V17.4258H23.9399V18.6387H22.7164V15ZM27.8633 16.2129H26.7928V15H30.152V16.2129H29.0762V18.6387H27.8633V16.2129ZM30.6846 15H31.9555L32.736 16.2814L33.5164 15H34.7873V18.6387H33.5744V16.8352L32.7254 18.143L31.8764 16.8352V18.6387H30.6846V15ZM35.3885 15H36.6014V17.4363H38.3205V18.6387H35.3885" fill="black"/>
<path d="M22.6742 39.8379L20.934 20.3051H40.066L38.3258 39.8273L30.4842 42" fill="#E44D26"/>
<path d="M30.5 40.3389V21.9082H38.3205L36.8281 38.5723" fill="#F16529"/>
<path d="M24.4883 24.2971H30.5V26.6913H27.1145L27.3359 29.1434H30.5V31.5323H25.1422L24.4883 24.2971ZM25.2477 32.7346H27.6523L27.8211 34.6489L30.5 35.3661V37.8657L25.5852 36.4946" fill="#EBEBEB"/>
<path d="M36.4906 24.2971H30.4894V26.6913H36.2691L36.4906 24.2971ZM36.0529 29.1434H30.4894V31.5375H33.4425L33.163 34.6489L30.4894 35.3661V37.8551L35.3937 36.4946" fill="white"/>
</g>
<path opacity="0.5" d="M59.4539 43.4096V43.4104C59.4539 45.6787 57.6201 47.5 55.3123 47.5H4.64159C2.33375 47.5 0.5 45.6787 0.5 43.4104V11.5H59.4993L59.4539 43.4096Z" fill="#FFEBE5" fill-opacity="0.8" stroke="#333638"/>
<defs>
<clipPath id="clip0_6:806">
<rect width="27" height="27" fill="white" transform="translate(17 15)"/>
</clipPath>
</defs>
</svg>
