<svg width="60" height="48" viewBox="0 0 60 48" fill="none" xmlns="http://www.w3.org/2000/svg">
<path d="M59.4539 43.4096V43.4104C59.4539 45.6787 57.6201 47.5 55.3123 47.5H4.64159C2.33375 47.5 0.5 45.6787 0.5 43.4104V11.5H59.4993L59.4539 43.4096Z" fill="#FFFCE1" fill-opacity="0.8" stroke="#333638"/>
<path d="M59.4539 4.59275V4.58964C59.4539 2.32127 57.6201 0.5 55.3123 0.5H4.64159C2.33375 0.5 0.5 2.32127 0.5 4.58964V11.5H59.4969L59.4539 4.59275Z" fill="#FFFCE1" fill-opacity="0.8" stroke="#333638"/>
<ellipse cx="8.13565" cy="6.5" rx="1.52542" ry="1.5" fill="#333638"/>
<ellipse cx="14.2373" cy="6.5" rx="1.52542" ry="1.5" fill="#333638"/>
<ellipse cx="20.339" cy="6.5" rx="1.52542" ry="1.5" fill="#333638"/>
<path d="M44 15H17V42H44V15Z" fill="#F7DF1E"/>
<path d="M35.1371 36.0939C35.681 36.9819 36.3886 37.6346 37.64 37.6346C38.6913 37.6346 39.3628 37.1092 39.3628 36.3832C39.3628 35.5132 38.6728 35.205 37.5157 34.6989L36.8814 34.4267C35.0506 33.6467 33.8343 32.6696 33.8343 30.6039C33.8343 28.701 35.2841 27.2524 37.55 27.2524C39.1631 27.2524 40.3228 27.8139 41.1586 29.2839L39.1828 30.5524C38.7478 29.7724 38.2786 29.4652 37.55 29.4652C36.8068 29.4652 36.3358 29.9366 36.3358 30.5524C36.3358 31.3136 36.8073 31.6217 37.8958 32.0932L38.5301 32.3649C40.6858 33.2893 41.903 34.2317 41.903 36.3506C41.903 38.6349 40.1086 39.8863 37.6987 39.8863C35.3424 39.8863 33.8201 38.7635 33.0753 37.2917L35.1371 36.0939ZM26.1744 36.3137C26.573 37.0209 26.9356 37.6187 27.8073 37.6187C28.6408 37.6187 29.1667 37.2926 29.1667 36.0244V27.3973H31.7038V36.0587C31.7038 38.6859 30.1636 39.8816 27.9153 39.8816C25.8838 39.8816 24.7074 38.8303 24.1091 37.5641L26.1744 36.3137Z" fill="black"/>
<path opacity="0.5" d="M59.4539 43.4096V43.4104C59.4539 45.6787 57.6201 47.5 55.3123 47.5H4.64159C2.33375 47.5 0.5 45.6787 0.5 43.4104V11.5H59.4993L59.4539 43.4096Z" fill="#FFFCE1" fill-opacity="0.8" stroke="#333638"/>
</svg>
