<svg width="60" height="48" viewBox="0 0 60 48" fill="none" xmlns="http://www.w3.org/2000/svg">
<path d="M59.4539 43.4096V43.4104C59.4539 45.6787 57.6201 47.5 55.3123 47.5H4.64159C2.33375 47.5 0.5 45.6787 0.5 43.4104V11.5H59.4993L59.4539 43.4096Z" fill="#FFDCE4" fill-opacity="0.8" stroke="#333638"/>
<path d="M59.4539 4.59275V4.58964C59.4539 2.32127 57.6201 0.5 55.3123 0.5H4.64159C2.33375 0.5 0.5 2.32127 0.5 4.58964V11.5H59.4969L59.4539 4.59275Z" fill="#FFDCE4" fill-opacity="0.8" stroke="#333638"/>
<ellipse cx="8.13559" cy="6.5" rx="1.52542" ry="1.5" fill="#333638"/>
<ellipse cx="14.2373" cy="6.5" rx="1.52542" ry="1.5" fill="#333638"/>
<ellipse cx="20.339" cy="6.5" rx="1.52542" ry="1.5" fill="#333638"/>
<path fill-rule="evenodd" clip-rule="evenodd" d="M31.7203 17C31.5395 17 31.3716 17.0389 31.2167 17.0907C31.546 17.3111 31.7267 17.6028 31.8171 17.9334C31.8236 17.9787 31.8365 18.0111 31.843 18.0565C31.8494 18.0954 31.8559 18.1343 31.8559 18.1732C31.8817 18.7436 31.7074 18.8149 31.5847 19.1519C31.3975 19.5862 31.4491 20.0529 31.6751 20.4288C31.6945 20.4742 31.7203 20.526 31.7526 20.5714C31.5072 18.9315 32.8695 18.6852 33.1213 18.1732C33.1407 17.726 32.7727 17.4278 32.4821 17.2204C32.2045 17.0519 31.9527 17 31.7203 17V17ZM33.7734 17.3695C33.7476 17.5185 33.7669 17.4796 33.7605 17.5574C33.754 17.6093 33.754 17.6741 33.7476 17.726C33.7347 17.7778 33.7217 17.8297 33.7024 17.8815C33.6895 17.9334 33.6701 17.9852 33.6507 18.0371C33.6249 18.0889 33.6055 18.1343 33.5797 18.1862C33.5604 18.2121 33.5474 18.238 33.5281 18.2639C33.5152 18.2834 33.5022 18.3028 33.4893 18.3223C33.4571 18.3676 33.4248 18.413 33.3925 18.4519C33.3537 18.4908 33.3215 18.5362 33.2763 18.5686C33.2763 18.5751 33.2763 18.5751 33.2763 18.5751C33.2375 18.6075 33.1988 18.6464 33.1536 18.6788C33.018 18.7825 32.8631 18.8603 32.721 18.9575C32.6758 18.9899 32.6306 19.0158 32.5919 19.0547C32.5467 19.0871 32.508 19.1195 32.4692 19.1584C32.424 19.1973 32.3918 19.2362 32.353 19.2816C32.3207 19.3205 32.282 19.3658 32.2562 19.4112C32.2239 19.4566 32.1916 19.5019 32.1658 19.5473C32.14 19.5992 32.1206 19.6445 32.0948 19.6964C32.0754 19.7483 32.056 19.7936 32.0431 19.8455C32.0238 19.9038 32.0108 19.9557 31.9979 20.0075C31.9915 20.0335 31.9915 20.0659 31.985 20.0918C31.9785 20.1177 31.9786 20.1436 31.9721 20.1696C31.9721 20.2214 31.9657 20.2798 31.9657 20.3316C31.9657 20.3705 31.9657 20.4094 31.9721 20.4483C31.9721 20.5001 31.9786 20.552 31.9915 20.6103C31.998 20.6622 32.0109 20.714 32.0238 20.7659C32.0431 20.8177 32.0561 20.8696 32.0754 20.9214C32.0883 20.9539 32.1077 20.9863 32.1206 21.0122L30.6357 20.4353C30.3839 20.364 30.1385 20.2992 29.8867 20.2409C29.7512 20.2085 29.6156 20.176 29.48 20.1436C29.0926 20.0659 28.6988 20.0075 28.305 19.9686C28.2921 19.9686 28.2856 19.9621 28.2727 19.9621C27.8853 19.9233 27.5044 19.9038 27.117 19.9038C26.8329 19.9038 26.5488 19.9168 26.2712 19.9362C25.8774 19.9622 25.4836 20.014 25.0897 20.0788C24.9929 20.0918 24.896 20.1112 24.7992 20.1307C24.599 20.1696 24.4054 20.2149 24.2181 20.2603C24.1213 20.2862 24.0244 20.3122 23.9276 20.3381C23.8307 20.377 23.7404 20.4223 23.65 20.4612C23.5789 20.4936 23.5079 20.526 23.4369 20.5585C23.424 20.565 23.4111 20.565 23.4046 20.5714C23.3401 20.6038 23.282 20.6297 23.2239 20.6622C23.2045 20.6686 23.1916 20.6751 23.1787 20.6816C23.1076 20.714 23.0366 20.7529 22.9785 20.7853C22.9333 20.8048 22.8881 20.8307 22.8494 20.8501C22.83 20.8631 22.8042 20.8761 22.7913 20.8825C22.7332 20.9149 22.6751 20.9474 22.6234 20.9798C22.5653 21.0122 22.5137 21.0446 22.4685 21.077C22.4233 21.1094 22.3781 21.1353 22.3393 21.1677C22.3329 21.1742 22.3264 21.1742 22.32 21.1807C22.2812 21.2066 22.236 21.239 22.1973 21.2714C22.1973 21.2714 22.1908 21.2779 22.1844 21.2844C22.1521 21.3103 22.1198 21.3362 22.0876 21.3622C22.0747 21.3686 22.0617 21.3816 22.0488 21.3881C22.0165 21.414 21.9843 21.4464 21.952 21.4724C21.9455 21.4853 21.9326 21.4918 21.9261 21.4983C21.8874 21.5372 21.8487 21.5696 21.8099 21.6085C21.8035 21.6085 21.8035 21.615 21.797 21.6214C21.7583 21.6538 21.7195 21.6927 21.6808 21.7316C21.6743 21.7381 21.6743 21.7446 21.6679 21.7446C21.6356 21.777 21.6033 21.8094 21.5711 21.8483C21.5582 21.8612 21.5388 21.8742 21.5259 21.8872C21.4936 21.9261 21.4548 21.965 21.4161 22.0039C21.4096 22.0168 21.3967 22.0233 21.3903 22.0363C21.3386 22.0881 21.2934 22.14 21.2418 22.1918C21.2353 22.1983 21.2289 22.2048 21.2224 22.2113C21.1191 22.3215 21.0094 22.4316 20.8931 22.5289C20.7769 22.6326 20.6543 22.7298 20.5316 22.8141C20.4025 22.9048 20.2798 22.9826 20.1442 23.0604C20.0151 23.1317 19.8795 23.1965 19.7375 23.2548C19.6019 23.3132 19.4598 23.365 19.3178 23.4104C19.0466 23.4687 18.769 23.5789 18.5301 23.5983C18.4785 23.5983 18.4204 23.6113 18.3687 23.6178C18.3106 23.6307 18.259 23.6437 18.2073 23.6567C18.1557 23.6761 18.104 23.6956 18.0524 23.715C18.0007 23.7345 17.9491 23.7604 17.8974 23.7863C17.8522 23.8187 17.8006 23.8447 17.7554 23.8771C17.7102 23.9095 17.665 23.9484 17.6263 23.9873C17.5811 24.0197 17.5359 24.065 17.4971 24.1039C17.4584 24.1493 17.4197 24.1882 17.3874 24.2336C17.3551 24.2854 17.3164 24.3308 17.2905 24.3826C17.2583 24.428 17.226 24.4799 17.2001 24.5317C17.1743 24.5901 17.1485 24.6419 17.1291 24.7002C17.1098 24.7521 17.0904 24.8104 17.071 24.8688C17.0581 24.9206 17.0452 24.9725 17.0387 25.0243C17.0387 25.0308 17.0323 25.0373 17.0323 25.0438C17.0194 25.1021 17.0194 25.1799 17.0129 25.2188C17.0064 25.2642 17 25.303 17 25.3484C17 25.3743 17 25.4067 17.0065 25.4327C17.0129 25.478 17.0194 25.5169 17.0323 25.5558C17.0452 25.5947 17.0581 25.6336 17.0775 25.6725C17.0775 25.679 17.0775 25.679 17.0775 25.679C17.0969 25.7179 17.1227 25.7568 17.1485 25.7957C17.1743 25.8346 17.2002 25.8734 17.2324 25.9123C17.2647 25.9447 17.3035 25.9836 17.3422 26.016C17.3809 26.0549 17.4197 26.0873 17.4649 26.1197C17.6198 26.2559 17.6586 26.3012 17.8587 26.4049C17.891 26.4244 17.9233 26.4373 17.962 26.4568C17.9685 26.4568 17.9749 26.4633 17.9814 26.4633C17.9814 26.4762 17.9814 26.4827 17.9878 26.4957C17.9943 26.5476 18.0072 26.5994 18.0201 26.6513C18.033 26.7096 18.0524 26.7614 18.0718 26.8068C18.0911 26.8457 18.1041 26.8846 18.1234 26.9235C18.1299 26.9364 18.1363 26.9494 18.1428 26.9559C18.1686 27.0077 18.1944 27.0531 18.2203 27.0985C18.2526 27.1439 18.2848 27.1892 18.3171 27.2346C18.3494 27.2735 18.3881 27.3189 18.4269 27.3578C18.4656 27.3967 18.5043 27.4291 18.5495 27.4679C18.5495 27.4679 18.556 27.4744 18.5624 27.4744C18.6012 27.5069 18.6399 27.5393 18.6787 27.5652C18.7239 27.5976 18.769 27.6235 18.8207 27.6495C18.8659 27.6754 18.9175 27.7013 18.9692 27.7208C19.0079 27.7402 19.0531 27.7532 19.0983 27.7661C19.1048 27.7726 19.1112 27.7726 19.1242 27.7791C19.15 27.7856 19.1823 27.792 19.2081 27.7985C19.1887 28.1485 19.1822 28.4791 19.2339 28.5958C19.292 28.7254 19.5761 28.33 19.8602 27.8763C19.8214 28.3235 19.7956 28.8486 19.8602 29.0041C19.9312 29.1662 20.3186 28.6606 20.6543 28.1032C25.2318 27.0402 29.409 30.2162 29.8481 34.7015C29.7641 34.0015 28.9054 33.6126 28.5116 33.7098C28.3179 34.1895 27.9886 34.8052 27.4592 35.1877C27.5044 34.7599 27.4851 34.3191 27.3947 33.8913C27.2526 34.4876 26.975 35.0451 26.5941 35.5247C25.9807 35.5701 25.3674 35.2719 25.0446 34.8247C25.0187 34.8052 25.0123 34.7664 24.9929 34.7404C24.9736 34.6951 24.9542 34.6497 24.9413 34.6043C24.9219 34.5589 24.909 34.5136 24.9025 34.4682C24.8961 34.4228 24.8961 34.3775 24.8961 34.3256C24.8961 34.2932 24.8961 34.2608 24.8961 34.2284C24.9025 34.183 24.9154 34.1376 24.9283 34.0923C24.9413 34.0469 24.9542 34.0015 24.9735 33.9561C24.9994 33.9108 25.0187 33.8654 25.051 33.82C25.1608 33.5089 25.1608 33.2561 24.9606 33.107C24.9219 33.0811 24.8832 33.0617 24.838 33.0422C24.8121 33.0357 24.7799 33.0228 24.754 33.0163C24.7347 33.0098 24.7218 33.0033 24.7024 32.9968C24.6572 32.9839 24.612 32.9709 24.5668 32.9644C24.5216 32.9515 24.4764 32.945 24.4312 32.945C24.386 32.9385 24.3344 32.932 24.2892 32.932C24.2569 32.932 24.2246 32.9385 24.1923 32.9385C24.1407 32.9385 24.0955 32.945 24.0503 32.958C24.0051 32.9645 23.9599 32.9709 23.9147 32.9839C23.8695 32.9969 23.8243 33.0098 23.7791 33.0293C23.7339 33.0487 23.6952 33.0682 23.65 33.0876C23.6113 33.1071 23.5725 33.133 23.5273 33.1524C22.023 34.1377 22.9204 36.4451 23.947 37.1128C23.5596 37.1841 23.1658 37.2683 23.056 37.3526C23.0496 37.3591 23.0431 37.3655 23.0431 37.3655C23.3207 37.5341 23.6113 37.6767 23.9147 37.7998C24.3279 37.9359 24.767 38.0591 24.9606 38.1109V38.1174C25.4965 38.2276 26.0388 38.2665 26.5876 38.2341C29.4478 38.0332 31.7914 35.8488 32.2175 32.9709C32.2304 33.0293 32.2433 33.0811 32.2563 33.1395C32.2756 33.2561 32.3014 33.3793 32.3144 33.5024C32.3144 33.5024 32.3144 33.5024 32.3144 33.5089C32.3273 33.5673 32.3337 33.6256 32.3402 33.6775C32.3402 33.6904 32.3402 33.6969 32.3402 33.7034C32.3467 33.7617 32.3531 33.8201 32.3531 33.8719C32.3596 33.9432 32.366 34.0145 32.366 34.0858C32.366 34.1182 32.366 34.1506 32.366 34.1895C32.366 34.2219 32.3725 34.2608 32.3725 34.2932C32.3725 34.3321 32.366 34.371 32.366 34.4099C32.366 34.4423 32.366 34.4747 32.366 34.5007C32.366 34.546 32.3595 34.5849 32.3595 34.6303C32.3595 34.6562 32.3595 34.6821 32.3531 34.7145C32.3531 34.7599 32.3466 34.8053 32.3466 34.8571C32.3401 34.8766 32.3401 34.896 32.3401 34.9155C32.3337 34.9673 32.3272 35.0127 32.3207 35.0646C32.3207 35.084 32.3207 35.1035 32.3143 35.1229C32.3078 35.1877 32.2949 35.2461 32.2885 35.3109V35.3174V35.3239C32.2756 35.3822 32.2626 35.447 32.2497 35.5053C32.2497 35.5118 32.2497 35.5183 32.2497 35.5248C32.2368 35.5831 32.2239 35.6415 32.211 35.6998C32.211 35.7063 32.2045 35.7192 32.2045 35.7257C32.1916 35.7841 32.1787 35.8424 32.1593 35.9007C32.1593 35.9072 32.1593 35.9137 32.1593 35.9202C32.14 35.985 32.1206 36.0433 32.1077 36.1017C32.1012 36.1082 32.1012 36.1146 32.1012 36.1146C32.0818 36.1794 32.0625 36.2443 32.0431 36.3091C32.0173 36.3739 31.9979 36.4322 31.9721 36.497C31.9462 36.5619 31.9269 36.6267 31.9011 36.685C31.8752 36.7498 31.8494 36.8082 31.8236 36.873H31.8171C31.7913 36.9313 31.7655 36.9961 31.7332 37.0545C31.7267 37.0739 31.7203 37.0869 31.7138 37.0998C31.7073 37.1063 31.7073 37.1128 31.7009 37.1193C31.2812 37.9684 30.6614 38.7138 29.8867 39.2971C29.835 39.3295 29.7834 39.3684 29.7317 39.4073C29.7188 39.4203 29.6995 39.4268 29.6865 39.4397C29.6413 39.4721 29.5962 39.5046 29.5445 39.537L29.5639 39.5759H29.5703C29.6607 39.5629 29.7511 39.5499 29.8415 39.537H29.848C30.0158 39.511 30.1837 39.4786 30.3516 39.4462C30.3968 39.4397 30.4484 39.4268 30.4936 39.4138C30.5259 39.4073 30.5517 39.4009 30.584 39.3944C30.6292 39.3879 30.6744 39.3749 30.7196 39.3684C30.7583 39.3555 30.797 39.349 30.8358 39.336C31.4814 39.1805 32.1077 38.9666 32.7081 38.7138C31.6816 40.1203 30.3064 41.2546 28.6987 42C29.4412 41.9481 30.1837 41.825 30.9003 41.6176C33.5022 40.8463 35.6909 39.0897 37.0015 36.7239C36.7368 38.2212 36.1428 39.6471 35.2648 40.8916C35.8911 40.4768 36.4657 39.9972 36.9886 39.4527C38.4348 37.936 39.3839 36.0109 39.7067 33.9432C39.9262 34.9673 39.9908 36.0239 39.894 37.0674C44.5554 30.5403 40.2813 23.7734 38.4929 21.991C38.4865 21.978 38.48 21.9715 38.48 21.9586C38.4736 21.9651 38.4736 21.9651 38.4736 21.9715C38.4736 21.965 38.4736 21.965 38.4671 21.9586C38.4671 22.0363 38.4606 22.1141 38.4542 22.1919C38.4348 22.341 38.4155 22.4836 38.3896 22.6262C38.3574 22.7688 38.3186 22.9114 38.2799 23.054C38.2347 23.1901 38.183 23.3327 38.1249 23.4688C38.0668 23.5984 38.0023 23.7345 37.9312 23.8642C37.8602 23.9873 37.7827 24.117 37.6988 24.2336C37.6149 24.3568 37.5245 24.4735 37.4341 24.5837C37.3373 24.7003 37.234 24.804 37.1307 24.9077C37.0661 24.9661 37.008 25.0179 36.9434 25.0698C36.8918 25.1152 36.8466 25.154 36.7949 25.1994C36.6787 25.2902 36.5625 25.3744 36.4334 25.4522C36.3107 25.53 36.1816 25.6078 36.0525 25.6726C35.9169 25.7374 35.7813 25.7957 35.6457 25.8541C35.5101 25.9059 35.3681 25.9513 35.226 25.9902C35.084 26.0291 34.9355 26.0615 34.7935 26.0874C34.645 26.1133 34.4965 26.1263 34.3545 26.1393C34.2512 26.1458 34.1479 26.1522 34.0445 26.1522C33.8961 26.1522 33.7476 26.1393 33.6055 26.1263C33.457 26.1133 33.3085 26.0939 33.1665 26.0615C33.018 26.0355 32.876 25.9966 32.7339 25.9513H32.7275C32.8695 25.9383 33.0115 25.9253 33.1536 25.8994C33.3021 25.8735 33.4441 25.8411 33.5861 25.8022C33.7282 25.7633 33.8702 25.7179 34.0058 25.6661C34.1478 25.6142 34.2834 25.5494 34.4126 25.4846C34.5481 25.4198 34.6708 25.3485 34.7999 25.2707C34.9226 25.1864 35.0453 25.1022 35.1615 25.0114C35.2777 24.9207 35.3874 24.8235 35.4908 24.7197C35.6005 24.6225 35.6974 24.5123 35.7942 24.4021C35.891 24.2855 35.9814 24.1688 36.0654 24.0521C36.0783 24.0327 36.0912 24.0068 36.1041 23.9873C36.1687 23.8836 36.2332 23.7799 36.2913 23.6762C36.3623 23.5466 36.4269 23.4169 36.485 23.2808C36.5431 23.1447 36.5948 23.0086 36.64 22.866C36.6852 22.7299 36.7174 22.5873 36.7497 22.4447C36.7756 22.2956 36.8014 22.153 36.8143 22.0104C36.8272 21.8613 36.8401 21.7122 36.8401 21.5696C36.8401 21.4659 36.8336 21.3622 36.8272 21.2585C36.8143 21.1094 36.7949 20.9668 36.7756 20.8242C36.7497 20.6752 36.7175 20.5326 36.6787 20.39C36.6335 20.2539 36.5883 20.1113 36.5367 19.9751C36.485 19.839 36.4205 19.7029 36.3559 19.5733C36.2849 19.4436 36.2139 19.314 36.1364 19.1909C36.0525 19.0677 35.9685 18.951 35.8781 18.8344C35.7813 18.7242 35.6845 18.614 35.5812 18.5038C35.5295 18.4519 35.4714 18.3936 35.4133 18.3418C35.1228 18.1149 34.8193 17.901 34.5159 17.7065C34.4707 17.6806 34.4319 17.6612 34.3867 17.6417C34.1737 17.5056 33.9735 17.4343 33.7734 17.3695L33.7734 17.3695Z" fill="#E0234E"/>
<path opacity="0.5" d="M59.4539 43.4096V43.4104C59.4539 45.6787 57.6201 47.5 55.3123 47.5H4.64159C2.33375 47.5 0.5 45.6787 0.5 43.4104V11.5H59.4993L59.4539 43.4096Z" fill="#FFDCE4" fill-opacity="0.8" stroke="#333638"/>
</svg>
