<svg width="60" height="48" viewBox="0 0 60 48" fill="none" xmlns="http://www.w3.org/2000/svg">
<path d="M59.4539 43.4096V43.4104C59.4539 45.6787 57.6201 47.5 55.3123 47.5H4.64159C2.33375 47.5 0.5 45.6787 0.5 43.4104V11.5H59.4993L59.4539 43.4096Z" fill="#E1FFED" fill-opacity="0.8" stroke="#333638"/>
<path d="M59.4539 4.59275V4.58964C59.4539 2.32127 57.6201 0.5 55.3123 0.5H4.64159C2.33375 0.5 0.5 2.32127 0.5 4.58964V11.5H59.4969L59.4539 4.59275Z" fill="#E1FFED" fill-opacity="0.8" stroke="#333638"/>
<ellipse cx="8.13559" cy="6.5" rx="1.52542" ry="1.5" fill="#333638"/>
<ellipse cx="14.2373" cy="6.5" rx="1.52542" ry="1.5" fill="#333638"/>
<ellipse cx="20.339" cy="6.5" rx="1.52542" ry="1.5" fill="#333638"/>
<g clip-path="url(#clip0_6:709)">
<path d="M18.2818 28.5194V22.0757C18.2755 21.9622 18.303 21.8495 18.3608 21.7517C18.4187 21.6539 18.5042 21.5755 18.6067 21.5264L29.7214 15.1071C29.9214 14.9823 30.1458 14.957 30.3458 15.0818L41.5103 21.5256C41.606 21.5806 41.6846 21.6611 41.7374 21.758C41.7903 21.8549 41.8153 21.9646 41.8098 22.0748V34.9378C41.8153 35.0481 41.7903 35.1577 41.7374 35.2546C41.6846 35.3516 41.606 35.432 41.5103 35.4871L31.9194 41.0305C31.4169 41.3313 30.9088 41.6227 30.3956 41.9046C30.1711 42.0295 29.9458 42.0295 29.7206 41.9046L18.5814 35.4854C18.3814 35.3605 18.2818 35.2103 18.2818 34.9606V28.5169V28.5194Z" fill="#009438"/>
<path d="M26.1489 26.1206V33.63C26.1489 34.4788 25.4739 35.228 24.5753 35.2035C24.0269 35.1782 23.6016 34.9538 23.3097 34.4796C23.1595 34.2552 23.1097 34.0054 23.1097 33.7304V23.2991C23.1097 22.5988 23.5341 22.101 24.0834 21.8757C24.6327 21.6504 25.182 21.701 25.7321 21.8757C26.2569 22.0259 26.656 22.3499 26.9977 22.7498L33.6414 30.7173C33.6667 30.7426 33.6921 30.7933 33.741 30.8422V23.2485C33.741 22.4494 34.2894 21.825 35.0657 21.75C36.0394 21.6251 36.6891 22.3237 36.7886 23.0493V33.6806C36.7886 34.2712 36.5136 34.7049 36.0141 34.98C35.6394 35.1799 35.2395 35.2297 34.8159 35.2044C34.2033 35.1636 33.6223 34.9171 33.1672 34.5049C32.9175 34.2805 32.7428 34.0054 32.5176 33.7557L26.1979 26.1872C26.1979 26.1619 26.1726 26.1366 26.1472 26.1113L26.1489 26.1206Z" fill="#FEFEFE"/>
</g>
<path opacity="0.5" d="M59.4539 43.4096V43.4104C59.4539 45.6787 57.6201 47.5 55.3123 47.5H4.64159C2.33375 47.5 0.5 45.6787 0.5 43.4104V11.5H59.4993L59.4539 43.4096Z" fill="#E1FFED" fill-opacity="0.8" stroke="#333638"/>
<defs>
<clipPath id="clip0_6:709">
<rect width="27" height="27" fill="white" transform="translate(16.5454 15)"/>
</clipPath>
</defs>
</svg>
