<svg width="60" height="48" viewBox="0 0 60 48" fill="none" xmlns="http://www.w3.org/2000/svg">
<path d="M59.4539 43.4096V43.4104C59.4539 45.6787 57.6201 47.5 55.3123 47.5H4.64159C2.33375 47.5 0.5 45.6787 0.5 43.4104V11.5H59.4993L59.4539 43.4096Z" fill="#E2F9FF" fill-opacity="0.8" stroke="#333638"/>
<path d="M59.4539 4.59275V4.58964C59.4539 2.32127 57.6201 0.5 55.3123 0.5H4.64159C2.33375 0.5 0.5 2.32127 0.5 4.58964V11.5H59.4969L59.4539 4.59275Z" fill="#E2F9FF" fill-opacity="0.8" stroke="#333638"/>
<ellipse cx="8.13565" cy="6.5" rx="1.52542" ry="1.5" fill="#333638"/>
<ellipse cx="14.2373" cy="6.5" rx="1.52542" ry="1.5" fill="#333638"/>
<ellipse cx="20.339" cy="6.5" rx="1.52542" ry="1.5" fill="#333638"/>
<path d="M18.6899 28.4768C18.6899 30.2513 20.4314 31.9078 23.1768 32.8415C22.6285 35.5876 23.0786 37.8011 24.5816 38.6636C26.1264 39.5501 28.428 38.9365 30.6126 37.0364C32.7419 38.8597 34.894 39.5773 36.3957 38.7122C37.9392 37.8232 38.4084 35.4598 37.8452 32.6278C40.7047 31.6871 42.3042 30.2747 42.3042 28.4768C42.3042 26.7436 40.5596 25.2441 37.8512 24.3164C38.4578 21.3675 37.9439 19.2077 36.3786 18.3096C34.8695 17.4438 32.6924 18.1984 30.5317 20.0694C28.2838 18.0836 26.1282 17.4773 24.5646 18.3779C23.057 19.2462 22.6268 21.5 23.1768 24.2969C20.524 25.2172 18.6899 26.7506 18.6899 28.4768Z" fill="white"/>
<path d="M37.2778 25.2377C37.0544 25.1615 36.8294 25.0909 36.6026 25.026C36.6402 24.874 36.6749 24.7212 36.7068 24.5679C37.2178 22.0996 36.8837 20.1112 35.7427 19.4566C34.6488 18.8288 32.8595 19.4834 31.0525 21.048C30.8744 21.2026 30.7003 21.3616 30.5303 21.5248C30.4165 21.4163 30.3006 21.3098 30.1828 21.2055C28.289 19.5323 26.3907 18.8274 25.2508 19.4838C24.1579 20.1134 23.8342 21.9828 24.2942 24.322C24.34 24.5536 24.3917 24.7841 24.4492 25.0131C24.1806 25.089 23.9212 25.1699 23.673 25.256C21.4528 26.0261 20.0348 27.2333 20.0348 28.4854C20.0348 29.7786 21.5569 31.0757 23.8696 31.8622C24.0571 31.9256 24.2462 31.9844 24.4367 32.0385C24.3748 32.2853 24.3199 32.5337 24.272 32.7835C23.8333 35.082 24.1759 36.907 25.266 37.5327C26.3919 38.1787 28.2815 37.5147 30.1216 35.9143C30.2671 35.7878 30.4131 35.6537 30.5593 35.5131C30.7434 35.6899 30.9324 35.8614 31.1262 36.0277C32.9085 37.5538 34.6688 38.1699 35.758 37.5426C36.8828 36.8948 37.2484 34.9341 36.7738 32.5487C36.7376 32.3665 36.6953 32.1804 36.6479 31.9909C36.7806 31.9519 36.9109 31.9117 37.038 31.8697C39.4421 31.0772 41.0063 29.7959 41.0063 28.4854C41.0063 27.2288 39.5427 26.0135 37.2778 25.2377Z" fill="#53C1DE"/>
<path d="M36.7561 31.0237C36.6414 31.0615 36.5239 31.098 36.4038 31.1333C36.1385 30.2973 35.7801 29.4083 35.342 28.4899C35.7603 27.5932 36.1046 26.7156 36.3626 25.8849C36.5771 25.9468 36.7854 26.0119 36.9859 26.0807C38.9267 26.7453 40.1104 27.7282 40.1104 28.4854C40.1104 29.2921 38.832 30.3393 36.7562 31.0237H36.7561ZM35.8948 32.7219C36.1046 33.7767 36.1347 34.7304 35.9956 35.4759C35.8706 36.1457 35.6195 36.5923 35.309 36.7712C34.648 37.1519 33.2346 36.6571 31.7104 35.3521C31.5357 35.2025 31.3596 35.0427 31.1831 34.8737C31.774 34.2305 32.3646 33.483 32.9409 32.6527C33.9548 32.5632 34.9127 32.4169 35.7814 32.2171C35.824 32.3889 35.862 32.5573 35.8948 32.7219ZM27.1843 36.7055C26.5386 36.9325 26.0244 36.9388 25.7135 36.7606C25.052 36.381 24.7771 34.9154 25.1521 32.9498C25.1967 32.7175 25.2478 32.4865 25.3053 32.257C26.1642 32.4461 27.1151 32.5821 28.1314 32.6641C28.7116 33.4765 29.3192 34.2231 29.9316 34.8771C29.8014 35.0024 29.6682 35.1244 29.532 35.2432C28.7183 35.951 27.903 36.453 27.1844 36.7055H27.1843ZM24.1593 31.0187C23.1367 30.6709 22.2922 30.219 21.7133 29.7259C21.1932 29.2826 20.9305 28.8426 20.9305 28.4854C20.9305 27.7257 22.0691 26.7565 23.9679 26.0978C24.2063 26.0155 24.4469 25.9401 24.6897 25.8718C24.9522 26.7211 25.2964 27.6092 25.7119 28.5071C25.2911 29.4185 24.9419 30.3207 24.677 31.18C24.5031 31.1304 24.3305 31.0767 24.1593 31.0187ZM25.1734 24.1508C24.7792 22.1466 25.0409 20.6348 25.6996 20.2554C26.4013 19.8513 27.9526 20.4275 29.5878 21.8722C29.6923 21.9645 29.7973 22.0612 29.9024 22.1612C29.2932 22.8121 28.6912 23.5532 28.116 24.3609C27.1297 24.4519 26.1855 24.598 25.3175 24.7937C25.264 24.5806 25.216 24.3662 25.1734 24.1507V24.1508ZM34.2195 26.3734C34.0145 26.021 33.8019 25.6731 33.5818 25.3298C34.251 25.4139 34.892 25.5256 35.4941 25.6624C35.3134 26.2387 35.088 26.8414 34.8228 27.4592C34.629 27.0933 34.4279 26.7313 34.2195 26.3734ZM30.5305 22.7982C30.9437 23.2436 31.3576 23.741 31.7646 24.2806C30.9389 24.2417 30.1117 24.2416 29.286 24.28C29.6934 23.7454 30.1108 23.2488 30.5305 22.7982ZM26.8178 26.3795C26.6121 26.7345 26.4147 27.0943 26.2259 27.4585C25.965 26.8428 25.7418 26.2375 25.5595 25.653C26.1578 25.5197 26.7959 25.4108 27.4607 25.3282C27.2382 25.6735 27.0238 26.0241 26.8178 26.3795ZM27.4799 31.7064C26.793 31.6301 26.1453 31.5267 25.5471 31.3972C25.7323 30.8023 25.9604 30.1839 26.2269 29.555C26.4165 29.9195 26.6148 30.2795 26.8214 30.6347C27.0323 30.9971 27.2519 31.3544 27.4799 31.7064ZM30.5553 34.2357C30.1307 33.7798 29.7072 33.2756 29.2935 32.7332C29.695 32.7489 30.1044 32.7568 30.5205 32.7568C30.948 32.7568 31.3706 32.7473 31.7864 32.7288C31.3781 33.281 30.9657 33.7861 30.5553 34.2357ZM34.8313 29.523C35.1116 30.1587 35.3479 30.7737 35.5357 31.3586C34.9275 31.4966 34.271 31.6078 33.5793 31.6904C33.801 31.3407 34.0156 30.9867 34.2231 30.6286C34.4341 30.2646 34.6369 29.896 34.8313 29.523ZM33.447 30.1833C33.1294 30.7324 32.7938 31.271 32.441 31.7984C31.8187 31.8427 31.1757 31.8655 30.5205 31.8655C29.8679 31.8655 29.2331 31.8452 28.6217 31.8058C28.2597 31.2797 27.9178 30.74 27.5968 30.1881C27.2773 29.6392 26.9788 29.0784 26.7021 28.5069C26.9781 27.9352 27.2757 27.3741 27.5941 26.8247V26.8248C27.9124 26.2753 28.2516 25.738 28.611 25.2141C29.2347 25.1672 29.8741 25.1426 30.5206 25.1426C31.1699 25.1426 31.8102 25.1674 32.4337 25.2147C32.7894 25.7378 33.1264 26.2732 33.4442 26.82C33.7637 27.3681 34.0652 27.9265 34.3483 28.4942C34.0681 29.0677 33.7676 29.6311 33.4471 30.1833H33.447ZM35.2952 20.2289C35.9974 20.6319 36.2706 22.257 35.8294 24.3881C35.8004 24.5269 35.7689 24.6652 35.7351 24.8029C34.865 24.6031 33.9202 24.4545 32.931 24.3621C32.3547 23.5457 31.7577 22.8033 31.1583 22.1607C31.3154 22.0101 31.4761 21.8633 31.6405 21.7206C33.1888 20.3799 34.6359 19.8506 35.2952 20.2289Z" fill="white"/>
<path d="M30.5205 26.6221C31.5548 26.6221 32.3932 27.4563 32.3932 28.4854C32.3932 29.5145 31.5548 30.3488 30.5205 30.3488C29.4863 30.3488 28.6478 29.5145 28.6478 28.4854C28.6478 27.4563 29.4863 26.6221 30.5205 26.6221Z" fill="#53C1DE"/>
<path opacity="0.5" d="M59.4539 43.4096V43.4104C59.4539 45.6787 57.6201 47.5 55.3123 47.5H4.64159C2.33375 47.5 0.5 45.6787 0.5 43.4104V11.5H59.4993L59.4539 43.4096Z" fill="#E2F9FF" fill-opacity="0.8" stroke="#333638"/>
</svg>
