<svg width="60" height="49" viewBox="0 0 60 49" fill="none" xmlns="http://www.w3.org/2000/svg">
<path d="M59.4539 43.4096V43.4104C59.4539 45.6787 57.6201 47.5 55.3123 47.5H4.64159C2.33375 47.5 0.5 45.6787 0.5 43.4104V11.5H59.4993L59.4539 43.4096Z" fill="#FFF1E1" fill-opacity="0.8" stroke="#333638"/>
<path d="M59.4539 4.59275V4.58964C59.4539 2.32127 57.6201 0.5 55.3123 0.5H4.64159C2.33375 0.5 0.5 2.32127 0.5 4.58964V11.5H59.4969L59.4539 4.59275Z" fill="#FFF1E1" fill-opacity="0.8" stroke="#333638"/>
<ellipse cx="8.13565" cy="6.5" rx="1.52542" ry="1.5" fill="#333638"/>
<ellipse cx="14.2373" cy="6.5" rx="1.52542" ry="1.5" fill="#333638"/>
<ellipse cx="20.339" cy="6.5" rx="1.52542" ry="1.5" fill="#333638"/>
<path d="M29.7493 17.2489C22.8724 17.2489 17.2753 22.8486 17.2753 29.7229C17.2753 36.5972 22.875 42.197 29.7493 42.197C36.6236 42.197 42.2233 36.5972 42.2233 29.7229C42.2233 22.8486 36.6236 17.2489 29.7493 17.2489V17.2489ZM29.7308 18.3572C29.9441 18.3628 30.1468 18.4517 30.2957 18.605C30.4446 18.7583 30.5278 18.9639 30.5278 19.1779C30.5278 19.3956 30.4413 19.6043 30.2874 19.7582C30.1335 19.9122 29.9247 19.9986 29.7071 19.9986C29.4894 19.9986 29.2807 19.9122 29.1268 19.7582C28.9728 19.6043 28.8864 19.3956 28.8864 19.1779C28.8863 19.0681 28.9083 18.9594 28.951 18.8583C28.9938 18.7571 29.0563 18.6656 29.1351 18.589C29.2138 18.5125 29.3071 18.4526 29.4095 18.4128C29.5118 18.3729 29.6211 18.3541 29.7308 18.3572V18.3572ZM31.6097 19.7083C33.0505 19.9782 34.4152 20.5584 35.6091 21.4088C36.803 22.2591 37.7976 23.3592 38.5236 24.6325L37.5551 26.8175C37.3889 27.1949 37.5604 27.6382 37.9351 27.8071L39.7982 28.6331C39.856 29.2154 39.863 29.8017 39.8193 30.3853H38.7822C38.6793 30.3853 38.6371 30.4539 38.6371 30.5542V31.0292C38.6371 32.1481 38.0064 32.3935 37.4522 32.4542C36.9244 32.5149 36.3412 32.2325 36.2674 31.9106C35.956 30.161 35.4387 29.7889 34.6207 29.1424C35.6367 28.4985 36.6922 27.5458 36.6922 26.2739C36.6922 24.899 35.7501 24.0335 35.1089 23.6086C34.2064 23.0149 33.2089 22.8961 32.9397 22.8961H22.2258C23.7073 21.2411 25.6931 20.1207 27.8757 19.7083L29.1397 21.0331C29.4247 21.3313 29.8971 21.3445 30.1953 21.0568L31.6097 19.7083ZM19.9458 25.7831C20.1593 25.7892 20.362 25.8784 20.5108 26.0317C20.6597 26.1849 20.7429 26.3902 20.7428 26.6038C20.7428 26.8214 20.6563 27.0302 20.5024 27.1841C20.3485 27.338 20.1397 27.4245 19.9221 27.4245C19.7044 27.4245 19.4957 27.338 19.3418 27.1841C19.1878 27.0302 19.1014 26.8214 19.1014 26.6038C19.1013 26.494 19.1233 26.3853 19.166 26.2841C19.2088 26.183 19.2713 26.0914 19.3501 26.0149C19.4288 25.9384 19.5221 25.8784 19.6245 25.8386C19.7268 25.7988 19.8361 25.7799 19.9458 25.7831V25.7831ZM39.5132 25.82C39.7267 25.8262 39.9294 25.9154 40.0782 26.0686C40.227 26.2219 40.3102 26.4271 40.3101 26.6407C40.3101 26.8584 40.2237 27.0671 40.0698 27.221C39.9158 27.3749 39.7071 27.4614 39.4894 27.4614C39.2718 27.4614 39.063 27.3749 38.9091 27.221C38.7552 27.0671 38.6687 26.8584 38.6687 26.6407C38.6687 26.5309 38.6907 26.4222 38.7334 26.3211C38.7761 26.2199 38.8387 26.1284 38.9175 26.0518C38.9962 25.9753 39.0895 25.9154 39.1918 25.8755C39.2942 25.8357 39.4034 25.8168 39.5132 25.82V25.82ZM21.4922 25.952H22.9225V32.4014H20.0355C19.679 31.1494 19.5679 29.8402 19.7083 28.546L21.4764 27.7596C21.8537 27.5907 22.0253 27.15 21.8564 26.7727L21.4922 25.952ZM27.4614 26.0206H30.8682C31.045 26.0206 32.1111 26.2238 32.1111 27.0233C32.1111 27.6857 31.293 27.9232 30.6201 27.9232H27.4587L27.4614 26.0206ZM27.4614 30.6545H30.0712C30.3087 30.6545 31.3458 30.7231 31.6757 32.0478C31.7786 32.4542 32.0082 33.7789 32.1639 34.2038C32.3196 34.6788 32.9503 35.6288 33.6232 35.6288H37.8824C37.5969 36.011 37.2847 36.3726 36.9482 36.7107L35.2144 36.3386C34.8107 36.2515 34.4122 36.5102 34.3251 36.9139L33.9135 38.835C32.5897 39.4347 31.1521 39.7416 29.6988 39.7348C28.2455 39.7279 26.8109 39.4075 25.4928 38.7954L25.0811 36.8743C24.994 36.4706 24.5982 36.212 24.1944 36.299L22.4976 36.6632C22.1828 36.3384 21.8901 35.9928 21.6215 35.6288H29.8733C29.9657 35.6288 30.029 35.6129 30.029 35.5258V32.6072C30.029 32.5228 29.9657 32.5043 29.8733 32.5043H27.4587L27.4614 30.6545ZM23.6535 37.3388C23.867 37.3449 24.0697 37.4341 24.2185 37.5874C24.3673 37.7406 24.4505 37.9458 24.4504 38.1595C24.4504 38.3771 24.3639 38.5859 24.21 38.7398C24.0561 38.8937 23.8474 38.9802 23.6297 38.9802C23.4121 38.9802 23.2033 38.8937 23.0494 38.7398C22.8955 38.5859 22.809 38.3771 22.809 38.1595C22.809 38.0497 22.831 37.941 22.8737 37.8398C22.9164 37.7387 22.979 37.6471 23.0577 37.5706C23.1365 37.494 23.2298 37.4341 23.3321 37.3943C23.4344 37.3545 23.5437 37.3356 23.6535 37.3388V37.3388ZM35.8055 37.3757C36.0191 37.3819 36.2218 37.4711 36.3706 37.6243C36.5194 37.7776 36.6026 37.9828 36.6025 38.1964C36.6025 38.4141 36.516 38.6228 36.3621 38.7767C36.2082 38.9306 35.9995 39.0171 35.7818 39.0171C35.5641 39.0171 35.3554 38.9306 35.2015 38.7767C35.0476 38.6228 34.9611 38.4141 34.9611 38.1964C34.9611 38.0866 34.983 37.9779 35.0258 37.8768C35.0685 37.7756 35.1311 37.684 35.2098 37.6075C35.2886 37.531 35.3819 37.471 35.4842 37.4312C35.5865 37.3914 35.6958 37.3725 35.8055 37.3757V37.3757Z" fill="#915108"/>
<path fill-rule="evenodd" clip-rule="evenodd" d="M41.5267 29.7229C41.5267 32.8465 40.2858 35.8421 38.0771 38.0508C35.8685 40.2595 32.8728 41.5003 29.7493 41.5003C26.6257 41.5003 23.6301 40.2595 21.4214 38.0508C19.2128 35.8421 17.9719 32.8465 17.9719 29.7229C17.9719 26.5994 19.2128 23.6038 21.4214 21.3951C23.6301 19.1864 26.6257 17.9456 29.7493 17.9456C32.8728 17.9456 35.8685 19.1864 38.0771 21.3951C40.2858 23.6038 41.5267 26.5994 41.5267 29.7229V29.7229ZM41.305 28.5856L43.1417 29.7229L41.305 30.8603L42.883 32.3354L40.8617 33.0928L42.123 34.8476L39.9882 35.196L40.8854 37.1646L38.7242 37.0881L39.2203 39.1939L37.1144 38.6978L37.191 40.859L35.2224 39.9618L34.874 42.0967L33.1192 40.8353L32.3618 42.8567L30.8867 41.2786L29.7493 43.1153L28.6119 41.2786L27.1368 42.8567L26.3794 40.8353L24.6246 42.0967L24.2762 39.9618L22.3076 40.859L22.3842 38.6978L20.2783 39.1939L20.7744 37.0881L18.6132 37.1646L19.5104 35.196L17.3755 34.8476L18.6369 33.0928L16.6155 32.3354L18.1936 30.8603L16.3569 29.7229L18.1936 28.5856L16.6155 27.1104L18.6369 26.3531L17.3755 24.5982L19.5104 24.2499L18.6132 22.2813L20.7744 22.3578L20.2783 20.252L22.3842 20.7481L22.3076 18.5868L24.2762 19.484L24.6246 17.3492L26.3794 18.6106L27.1368 16.5892L28.6119 18.1672L29.7493 16.3306L30.8867 18.1672L32.3618 16.5892L33.1192 18.6106L34.874 17.3492L35.2224 19.484L37.191 18.5868L37.1144 20.7481L39.2203 20.252L38.7242 22.3578L40.8854 22.2813L39.9882 24.2499L42.123 24.5982L40.8617 26.3531L42.883 27.1104L41.305 28.5856Z" fill="#915108" stroke="#915108" stroke-width="0.791667" stroke-linecap="round" stroke-linejoin="round"/>
<path opacity="0.5" d="M59.4539 43.4096V43.4104C59.4539 45.6787 57.6201 47.5 55.3123 47.5H4.64159C2.33375 47.5 0.5 45.6787 0.5 43.4104V11.5H59.4993L59.4539 43.4096Z" fill="#FFF1E1" fill-opacity="0.8" stroke="#333638"/>
</svg>
