<svg width="60" height="48" viewBox="0 0 60 48" fill="none" xmlns="http://www.w3.org/2000/svg">
<path d="M59.4539 43.4096V43.4104C59.4539 45.6787 57.6201 47.5 55.3123 47.5H4.64159C2.33375 47.5 0.5 45.6787 0.5 43.4104V11.5H59.4993L59.4539 43.4096Z" fill="#E3F1FF" fill-opacity="0.8" stroke="#333638"/>
<path d="M59.4539 4.59238V4.58964C59.4539 2.32127 57.6201 0.5 55.3123 0.5H4.64159C2.33375 0.5 0.5 2.32127 0.5 4.58964V12.5H59.4972L59.4539 4.59238Z" fill="#E3F1FF" fill-opacity="0.8" stroke="#333638"/>
<ellipse cx="8.13565" cy="6.5" rx="1.52542" ry="1.5" fill="#333638"/>
<ellipse cx="14.2373" cy="6.5" rx="1.52542" ry="1.5" fill="#333638"/>
<ellipse cx="20.339" cy="6.5" rx="1.52542" ry="1.5" fill="#333638"/>
<path d="M40.4609 16H19.5391C18.1368 16 17 17.1368 17 18.5391V39.4609C17 40.8632 18.1368 42 19.5391 42H40.4609C41.8632 42 43 40.8632 43 39.4609V18.5391C43 17.1368 41.8632 16 40.4609 16Z" fill="#3178C6"/>
<path fill-rule="evenodd" clip-rule="evenodd" d="M33.0977 36.668V39.207C33.509 39.4203 34.0117 39.5777 34.5703 39.6844C35.1289 39.791 35.7383 39.8418 36.3477 39.8418C36.957 39.8418 37.5156 39.7859 38.0742 39.6691C38.6328 39.5523 39.0898 39.3594 39.4961 39.1105C39.9074 38.8414 40.2578 38.5012 40.4609 38.0441C40.6641 37.5871 40.8215 37.0793 40.8215 36.4191C40.8215 35.957 40.7504 35.5559 40.6133 35.2004C40.4762 34.8449 40.2781 34.5402 40.0039 34.2863C39.7449 34.0172 39.4453 33.7785 39.0898 33.5754C38.7344 33.3723 38.3281 33.159 37.8711 32.966C37.5359 32.8289 37.2617 32.6969 36.957 32.5648C36.693 32.4328 36.4645 32.3008 36.2969 32.1687C36.109 32.0316 35.9668 31.8894 35.8652 31.7422C35.7637 31.5898 35.7129 31.4223 35.7129 31.2344C35.7129 31.0617 35.7581 30.9043 35.85 30.7621C35.9419 30.6199 36.0684 30.5031 36.2309 30.4016C36.3934 30.3 36.5965 30.2238 36.8402 30.168C37.0789 30.1121 37.343 30.0867 37.6527 30.0867C37.866 30.0867 38.0895 30.1025 38.3129 30.1344C38.5465 30.1664 38.7852 30.2157 39.0238 30.2817C39.2625 30.3477 39.4961 30.429 39.7348 30.5305C39.9582 30.6321 40.1664 30.7489 40.3441 30.8809V28.4942C39.9582 28.3469 39.5316 28.2352 39.0746 28.1641C38.6176 28.093 38.1098 28.0575 37.5004 28.0575C36.891 28.0575 36.3324 28.1235 35.7738 28.2505C35.2152 28.3774 34.7582 28.5805 34.352 28.8598C33.9406 29.1341 33.641 29.4692 33.3871 29.9262C33.1484 30.3528 33.0316 30.8403 33.0316 31.4497C33.0316 32.2114 33.25 32.8716 33.6918 33.3794C34.1285 33.938 34.809 34.3442 35.6723 34.7505C36.0227 34.8927 36.3324 35.0348 36.6371 35.1719C36.9418 35.3091 37.1957 35.4512 37.3988 35.5985C37.6172 35.7458 37.7898 35.9083 37.9066 36.0809C38.0336 36.2536 38.0996 36.4567 38.0996 36.6903C38.0996 36.8528 38.06 37.0052 37.9828 37.1473C37.9056 37.2895 37.7848 37.4114 37.6223 37.513C37.4598 37.6145 37.2617 37.6958 37.0129 37.7567C36.7742 37.8126 36.5051 37.843 36.1496 37.843C35.591 37.843 35.0324 37.7466 34.5246 37.5536C33.966 37.3606 33.4582 37.0712 33.0012 36.6903L33.0977 36.668ZM28.832 30.4219H32.082V28.3398H22.9922V30.4219H26.2422V39.7148H28.832V30.4219Z" fill="white"/>
<path opacity="0.5" d="M59.4539 43.4096V43.4104C59.4539 45.6787 57.6201 47.5 55.3123 47.5H4.64159C2.33375 47.5 0.5 45.6787 0.5 43.4104V11.5H59.4993L59.4539 43.4096Z" fill="#E3F1FF" fill-opacity="0.8" stroke="#333638"/>
</svg>
