<svg width="512" height="512" viewBox="0 0 512 512" fill="none" xmlns="http://www.w3.org/2000/svg">
  <path d="M174.136 11.2188L89.9957 60.2746V158.386L174.136 207.442L259.302 158.386V60.2746L174.136 11.2188Z" fill="white"/>
  <path d="M196.713 45.9766L188.505 60.2845L221.34 78.6805V97.0764H237.757V69.4825L196.713 45.9766Z" fill="#666666" fill-opacity="0.25"/>
  <path d="M237.757 106.274H221.34V119.56H237.757V106.274Z" fill="#666666" fill-opacity="0.25"/>
  <path fill-rule="evenodd" clip-rule="evenodd" d="M83.8356 55.1659L175.57 1L266.482 55.1659V163.498L175.57 217.663L83.8356 163.498V55.1659ZM247.649 64.5961L175.57 21.9277L101.035 64.5961V153.649L175.57 195.505L247.649 153.649V64.5961Z" fill="black"/>
  <path d="M100.555 153.7V64.8747L120.516 53.2958V138.766L199.361 181.683L175.408 195.655L100.555 153.7Z" fill="#666666" fill-opacity="0.2"/>
  <path d="M337.815 11.2188L253.675 60.2746V158.386L337.815 207.442L422.981 158.386V60.2746L337.815 11.2188Z" fill="white"/>
  <path d="M360.392 45.9766L352.183 60.2845L385.019 78.6805V97.0764H401.436V69.4825L360.392 45.9766Z" fill="#666666" fill-opacity="0.25"/>
  <path d="M401.436 106.274H385.019V119.56H401.436V106.274Z" fill="#666666" fill-opacity="0.25"/>
  <path fill-rule="evenodd" clip-rule="evenodd" d="M247.514 55.1659L339.249 1L430.16 55.1659V163.498L339.249 217.663L247.514 163.498V55.1659ZM411.328 64.5961L339.249 21.9277L264.714 64.5961V153.649L339.249 195.505L411.328 153.649V64.5961Z" fill="black"/>
  <path d="M264.233 153.7V64.8747L284.194 53.2958V138.766L363.04 181.683L339.087 195.655L264.233 153.7Z" fill="#666666" fill-opacity="0.2"/>
  <path d="M90.3005 158.929L6.16016 207.985V306.097L90.3005 355.152L175.467 306.097V207.985L90.3005 158.929Z" fill="white"/>
  <path d="M112.878 193.687L104.669 207.995L137.504 226.391V244.787H153.922V217.193L112.878 193.687Z" fill="#666666" fill-opacity="0.25"/>
  <path d="M153.922 253.985H137.504V267.271H153.922V253.985Z" fill="#666666" fill-opacity="0.25"/>
  <path fill-rule="evenodd" clip-rule="evenodd" d="M0 202.876L91.7349 148.71L182.646 202.876V311.208L91.7349 365.374L0 311.208V202.876ZM163.813 212.306L91.7349 169.638L17.1994 212.306V301.359L91.7349 343.215L163.813 301.359V212.306Z" fill="black"/>
  <path d="M16.7191 301.41V212.584L36.68 201.005V286.476L115.525 329.392L91.5723 343.365L16.7191 301.41Z" fill="#666666" fill-opacity="0.2"/>
  <path d="M255.975 158.929L171.835 207.985V306.097L255.975 355.152L341.142 306.097V207.985L255.975 158.929Z" fill="white"/>
  <path d="M278.553 193.687L270.344 207.995L303.179 226.391V244.787H319.597V217.193L278.553 193.687Z" fill="#666666" fill-opacity="0.25"/>
  <path d="M319.597 253.985H303.179V267.271H319.597V253.985Z" fill="#666666" fill-opacity="0.25"/>
  <path fill-rule="evenodd" clip-rule="evenodd" d="M165.675 202.876L257.41 148.71L348.321 202.876V311.208L257.41 365.374L165.675 311.208V202.876ZM329.488 212.306L257.41 169.638L182.874 212.306V301.359L257.41 343.215L329.488 301.359V212.306Z" fill="black"/>
  <path d="M182.394 301.41V212.584L202.355 201.005V286.476L281.2 329.392L257.247 343.365L182.394 301.41Z" fill="#666666" fill-opacity="0.2"/>
  <path d="M419.654 158.929L335.514 207.985V306.097L419.654 355.152L504.821 306.097V207.985L419.654 158.929Z" fill="white"/>
  <path d="M442.232 193.687L434.023 207.995L466.858 226.391V244.787H483.276V217.193L442.232 193.687Z" fill="#666666" fill-opacity="0.25"/>
  <path d="M483.276 253.985H466.858V267.271H483.276V253.985Z" fill="#666666" fill-opacity="0.25"/>
  <path fill-rule="evenodd" clip-rule="evenodd" d="M329.354 202.876L421.089 148.71L512 202.876V311.208L421.089 365.374L329.354 311.208V202.876ZM493.167 212.306L421.089 169.638L346.553 212.306V301.359L421.089 343.215L493.167 301.359V212.306Z" fill="black"/>
  <path d="M346.073 301.41V212.584L366.034 201.005V286.476L444.879 329.392L420.926 343.365L346.073 301.41Z" fill="#666666" fill-opacity="0.2"/>
  <path d="M174.136 304.648L89.9961 353.704V451.816L174.136 500.872L259.303 451.816V353.704L174.136 304.648Z" fill="white"/>
  <path d="M196.714 339.406L188.505 353.714L221.34 372.11V390.506H237.758V362.912L196.714 339.406Z" fill="#666666" fill-opacity="0.25"/>
  <path d="M237.758 399.704H221.34V412.99H237.758V399.704Z" fill="#666666" fill-opacity="0.25"/>
  <path fill-rule="evenodd" clip-rule="evenodd" d="M83.8359 348.596L175.571 294.43L266.482 348.596V456.927L175.571 511.093L83.8359 456.927V348.596ZM247.649 358.026L175.571 315.357L101.035 358.026V447.079L175.571 488.934L247.649 447.079V358.026Z" fill="black"/>
  <path d="M100.555 447.13V358.304L120.516 346.725V432.196L199.361 475.112L175.408 489.085L100.555 447.13Z" fill="#666666" fill-opacity="0.2"/>
  <path d="M337.815 304.648L253.675 353.704V451.816L337.815 500.872L422.982 451.816V353.704L337.815 304.648Z" fill="white"/>
  <path d="M360.392 339.406L352.184 353.714L385.019 372.11V390.506H401.436V362.912L360.392 339.406Z" fill="#666666" fill-opacity="0.25"/>
  <path d="M401.436 399.704H385.019V412.99H401.436V399.704Z" fill="#666666" fill-opacity="0.25"/>
  <path fill-rule="evenodd" clip-rule="evenodd" d="M247.515 348.596L339.25 294.43L430.161 348.596V456.927L339.25 511.093L247.515 456.927V348.596ZM411.328 358.026L339.25 315.357L264.714 358.026V447.079L339.25 488.934L411.328 447.079V358.026Z" fill="black"/>
  <path d="M264.234 447.13V358.304L284.195 346.725V432.196L363.04 475.112L339.087 489.085L264.234 447.13Z" fill="#666666" fill-opacity="0.2"/>
</svg>
