<svg width="512" height="512" viewBox="0 0 512 512" fill="none" xmlns="http://www.w3.org/2000/svg">
  <path d="M219.885 85.5676L182.252 107.494V151.348L219.885 173.275L257.977 151.348V107.494L219.885 85.5676Z" fill="white"/>
  <path d="M229.983 101.103L226.312 107.499L240.998 115.721V123.944H248.341V111.61L229.983 101.103Z" fill="#666666" fill-opacity="0.25"/>
  <path d="M248.341 128.055H240.998V133.994H248.341V128.055Z" fill="#666666" fill-opacity="0.25"/>
  <path fill-rule="evenodd" clip-rule="evenodd" d="M179.497 105.211L220.527 81L261.188 105.211V153.633L220.527 177.844L179.497 153.633V105.211ZM252.765 109.426L220.527 90.3542L187.19 109.426V149.231L220.527 167.939L252.765 149.231V109.426Z" fill="black"/>
  <path d="M186.975 149.254V109.551L195.902 104.375V142.578L231.167 161.761L220.454 168.006L186.975 149.254Z" fill="#666666" fill-opacity="0.2"/>
  <path d="M293.093 85.5676L255.46 107.494V151.348L293.093 173.275L331.185 151.348V107.494L293.093 85.5676Z" fill="white"/>
  <path d="M303.191 101.103L299.519 107.499L314.205 115.721V123.944H321.548V111.61L303.191 101.103Z" fill="#666666" fill-opacity="0.25"/>
  <path d="M321.548 128.055H314.205V133.994H321.548V128.055Z" fill="#666666" fill-opacity="0.25"/>
  <path fill-rule="evenodd" clip-rule="evenodd" d="M252.704 105.211L293.734 81L334.396 105.211V153.633L293.734 177.844L252.704 153.633V105.211ZM325.972 109.426L293.734 90.3542L260.397 109.426V149.231L293.734 167.939L325.972 149.231V109.426Z" fill="black"/>
  <path d="M260.182 149.254V109.551L269.11 104.375V142.578L304.375 161.761L293.661 168.006L260.182 149.254Z" fill="#666666" fill-opacity="0.2"/>
  <path d="M182.388 151.591L144.755 173.518V217.371L182.388 239.298L220.48 217.371V173.518L182.388 151.591Z" fill="white"/>
  <path d="M192.486 167.127L188.815 173.522L203.501 181.744V189.967H210.844V177.633L192.486 167.127Z" fill="#666666" fill-opacity="0.25"/>
  <path d="M210.844 194.078H203.501V200.017H210.844V194.078Z" fill="#666666" fill-opacity="0.25"/>
  <path fill-rule="evenodd" clip-rule="evenodd" d="M142 171.234L183.03 147.023L223.691 171.234V219.656L183.03 243.867L142 219.656V171.234ZM215.268 175.449L183.03 156.377L149.693 175.449V215.254L183.03 233.962L215.268 215.254V175.449Z" fill="black"/>
  <path d="M149.478 215.276V175.573L158.406 170.398V208.601L193.671 227.784L182.957 234.029L149.478 215.276Z" fill="#666666" fill-opacity="0.2"/>
  <path d="M256.489 151.591L218.856 173.518V217.371L256.489 239.298L294.581 217.371V173.518L256.489 151.591Z" fill="white"/>
  <path d="M266.587 167.127L262.915 173.522L277.601 181.744V189.967H284.944V177.633L266.587 167.127Z" fill="#666666" fill-opacity="0.25"/>
  <path d="M284.944 194.078H277.601V200.017H284.944V194.078Z" fill="#666666" fill-opacity="0.25"/>
  <path fill-rule="evenodd" clip-rule="evenodd" d="M216.101 171.234L257.131 147.023L297.792 171.234V219.656L257.131 243.867L216.101 219.656V171.234ZM289.369 175.449L257.131 156.377L223.794 175.449V215.254L257.131 233.962L289.369 215.254V175.449Z" fill="black"/>
  <path d="M223.579 215.276V175.573L232.507 170.398V208.601L267.771 227.784L257.058 234.029L223.579 215.276Z" fill="#666666" fill-opacity="0.2"/>
  <path d="M329.696 151.591L292.063 173.518V217.371L329.696 239.298L367.788 217.371V173.518L329.696 151.591Z" fill="white"/>
  <path d="M339.794 167.127L336.123 173.522L350.809 181.744V189.967H358.152V177.633L339.794 167.127Z" fill="#666666" fill-opacity="0.25"/>
  <path d="M358.152 194.078H350.809V200.017H358.152V194.078Z" fill="#666666" fill-opacity="0.25"/>
  <path fill-rule="evenodd" clip-rule="evenodd" d="M289.309 171.234L330.339 147.023L371 171.234V219.656L330.339 243.867L289.309 219.656V171.234ZM362.577 175.449L330.339 156.377L297.001 175.449V215.254L330.339 233.962L362.577 215.254V175.449Z" fill="black"/>
  <path d="M296.787 215.276V175.573L305.715 170.398V208.601L340.979 227.784L330.266 234.029L296.787 215.276Z" fill="#666666" fill-opacity="0.2"/>
  <path d="M219.885 216.724L182.252 238.651V282.505L219.885 304.431L257.977 282.505V238.651L219.885 216.724Z" fill="white"/>
  <path d="M229.983 232.26L226.311 238.655L240.997 246.878V255.1H248.34V242.766L229.983 232.26Z" fill="#666666" fill-opacity="0.25"/>
  <path d="M248.34 259.212H240.997V265.15H248.34V259.212Z" fill="#666666" fill-opacity="0.25"/>
  <path fill-rule="evenodd" clip-rule="evenodd" d="M179.497 236.367L220.527 212.156L261.188 236.367V284.789L220.527 309L179.497 284.789V236.367ZM252.765 240.582L220.527 221.511L187.19 240.582V280.387L220.527 299.096L252.765 280.387V240.582Z" fill="black"/>
  <path d="M186.975 280.41V240.707L195.902 235.531V273.735L231.167 292.917L220.454 299.163L186.975 280.41Z" fill="#666666" fill-opacity="0.2"/>
  <path d="M293.093 216.724L255.46 238.651V282.505L293.093 304.431L331.185 282.505V238.651L293.093 216.724Z" fill="white"/>
  <path d="M303.191 232.26L299.519 238.655L314.205 246.878V255.1H321.548V242.766L303.191 232.26Z" fill="#666666" fill-opacity="0.25"/>
  <path d="M321.548 259.212H314.205V265.15H321.548V259.212Z" fill="#666666" fill-opacity="0.25"/>
  <path fill-rule="evenodd" clip-rule="evenodd" d="M252.704 236.367L293.734 212.156L334.395 236.367V284.789L293.734 309L252.704 284.789V236.367ZM325.972 240.582L293.734 221.511L260.397 240.582V280.387L293.734 299.096L325.972 280.387V240.582Z" fill="black"/>
  <path d="M260.182 280.41V240.707L269.11 235.531V273.735L304.375 292.917L293.661 299.163L260.182 280.41Z" fill="#666666" fill-opacity="0.2"/>
  <path d="M94 411.152L100.144 403.152C102.832 405.328 105.349 406.907 107.696 407.888C110.043 408.869 112.496 409.36 115.056 409.36C117.573 409.36 119.536 408.976 120.944 408.208C122.395 407.44 123.12 406.373 123.12 405.008C123.12 403.771 122.629 402.811 121.648 402.128C120.709 401.445 119.131 400.912 116.912 400.528L107.056 398.8C103.429 398.16 100.635 396.773 98.672 394.64C96.7093 392.507 95.728 389.797 95.728 386.512C95.728 382.203 97.3493 378.811 100.592 376.336C103.877 373.819 108.379 372.56 114.096 372.56C117.424 372.56 120.773 373.136 124.144 374.288C127.557 375.44 130.48 376.997 132.912 378.96L127.088 387.088C124.741 385.253 122.437 383.909 120.176 383.056C117.957 382.203 115.675 381.776 113.328 381.776C111.109 381.776 109.339 382.139 108.016 382.864C106.736 383.547 106.096 384.485 106.096 385.68C106.096 386.789 106.501 387.664 107.312 388.304C108.165 388.901 109.531 389.349 111.408 389.648L120.688 391.184C124.997 391.867 128.261 393.296 130.48 395.472C132.741 397.648 133.872 400.464 133.872 403.92C133.872 408.443 132.101 412.027 128.56 414.672C125.061 417.317 120.283 418.64 114.224 418.64C110.64 418.64 107.056 417.979 103.472 416.656C99.9307 415.333 96.7733 413.499 94 411.152ZM138.388 431.504V384.144H148.628V386.64C149.95 385.701 151.38 384.976 152.916 384.464C154.452 383.952 156.052 383.696 157.716 383.696C160.105 383.696 162.345 384.144 164.436 385.04C166.569 385.936 168.404 387.173 169.94 388.752C171.518 390.331 172.756 392.187 173.652 394.32C174.548 396.411 174.996 398.672 174.996 401.104C174.996 403.536 174.526 405.819 173.588 407.952C172.692 410.043 171.454 411.877 169.876 413.456C168.297 414.992 166.42 416.208 164.244 417.104C162.11 418 159.828 418.448 157.396 418.448C155.817 418.448 154.302 418.256 152.852 417.872C151.401 417.488 150.036 416.933 148.756 416.208V431.504H138.388ZM155.924 392.528C154.473 392.528 153.15 392.763 151.956 393.232C150.761 393.659 149.694 394.32 148.756 395.216V407.056C149.652 407.867 150.718 408.507 151.956 408.976C153.193 409.445 154.516 409.68 155.924 409.68C158.441 409.68 160.553 408.869 162.26 407.248C163.966 405.584 164.82 403.536 164.82 401.104C164.82 398.672 163.945 396.645 162.196 395.024C160.489 393.36 158.398 392.528 155.924 392.528ZM211.24 413.52C209.107 415.312 206.909 416.613 204.648 417.424C202.429 418.235 199.912 418.64 197.096 418.64C194.536 418.64 192.125 418.192 189.864 417.296C187.603 416.4 185.64 415.163 183.976 413.584C182.355 412.005 181.053 410.149 180.072 408.016C179.133 405.84 178.664 403.536 178.664 401.104C178.664 398.672 179.112 396.389 180.008 394.256C180.947 392.08 182.205 390.203 183.784 388.624C185.363 387.045 187.219 385.808 189.352 384.912C191.528 384.016 193.853 383.568 196.328 383.568C198.803 383.568 201.085 384.037 203.176 384.976C205.267 385.915 207.059 387.195 208.552 388.816C210.088 390.437 211.283 392.4 212.136 394.704C212.989 396.965 213.416 399.419 213.416 402.064V404.624H189.288C189.971 406.203 191.037 407.504 192.488 408.528C193.939 409.509 195.645 410 197.608 410C199.016 410 200.296 409.787 201.448 409.36C202.6 408.891 203.581 408.251 204.392 407.44L211.24 413.52ZM196.136 392.016C194.429 392.016 192.957 392.485 191.72 393.424C190.483 394.363 189.608 395.685 189.096 397.392H203.24C202.685 395.771 201.768 394.469 200.488 393.488C199.251 392.507 197.8 392.016 196.136 392.016ZM229.079 418.576C225.495 418.576 222.551 417.595 220.247 415.632C217.943 413.669 216.791 411.152 216.791 408.08C216.791 404.88 218.007 402.384 220.439 400.592C222.913 398.8 226.348 397.904 230.743 397.904C232.065 397.904 233.367 397.989 234.647 398.16C235.927 398.331 237.185 398.565 238.423 398.864V397.2C238.423 395.493 237.868 394.235 236.759 393.424C235.692 392.571 234.092 392.144 231.958 392.144C230.636 392.144 229.143 392.357 227.479 392.784C225.815 393.211 223.895 393.893 221.719 394.832L218.007 387.216C220.737 385.979 223.404 385.061 226.007 384.464C228.652 383.824 231.255 383.504 233.815 383.504C238.508 383.504 242.156 384.635 244.759 386.896C247.361 389.115 248.663 392.251 248.663 396.304V418H238.423V415.952C237.057 416.891 235.607 417.573 234.071 418C232.577 418.384 230.913 418.576 229.079 418.576ZM226.647 407.888C226.647 408.955 227.116 409.787 228.055 410.384C228.993 410.981 230.295 411.28 231.958 411.28C233.196 411.28 234.348 411.152 235.415 410.896C236.524 410.64 237.527 410.235 238.423 409.68V405.328C237.441 405.072 236.439 404.88 235.415 404.752C234.391 404.624 233.345 404.56 232.279 404.56C230.487 404.56 229.1 404.859 228.119 405.456C227.137 406.011 226.647 406.821 226.647 407.888ZM254.825 418V373.2L265.193 370.96V397.968L278.697 384.144H290.281L275.241 399.44L291.305 418H278.185L265.193 402.832V418H254.825ZM352.297 395.6C352.297 398.8 351.678 401.829 350.441 404.688C349.203 407.504 347.518 409.957 345.385 412.048C343.251 414.096 340.713 415.717 337.769 416.912C334.825 418.107 331.689 418.704 328.361 418.704C325.033 418.704 321.897 418.107 318.953 416.912C316.009 415.717 313.47 414.096 311.337 412.048C309.203 409.957 307.518 407.504 306.281 404.688C305.043 401.829 304.424 398.8 304.424 395.6C304.424 392.4 305.043 389.392 306.281 386.576C307.518 383.717 309.203 381.264 311.337 379.216C313.47 377.125 316.009 375.483 318.953 374.288C321.897 373.093 325.033 372.496 328.361 372.496C331.689 372.496 334.825 373.093 337.769 374.288C340.713 375.483 343.251 377.125 345.385 379.216C347.518 381.264 349.203 383.717 350.441 386.576C351.678 389.392 352.297 392.4 352.297 395.6ZM340.969 395.6C340.969 393.765 340.649 392.059 340.009 390.48C339.369 388.859 338.473 387.472 337.321 386.32C336.211 385.168 334.889 384.272 333.353 383.632C331.817 382.949 330.153 382.608 328.361 382.608C326.569 382.608 324.905 382.949 323.369 383.632C321.833 384.272 320.489 385.168 319.337 386.32C318.227 387.472 317.353 388.859 316.713 390.48C316.073 392.059 315.753 393.765 315.753 395.6C315.753 397.435 316.073 399.163 316.713 400.784C317.353 402.363 318.227 403.728 319.337 404.88C320.489 406.032 321.833 406.949 323.369 407.632C324.905 408.272 326.569 408.592 328.361 408.592C330.153 408.592 331.817 408.272 333.353 407.632C334.889 406.949 336.211 406.032 337.321 404.88C338.473 403.728 339.369 402.363 340.009 400.784C340.649 399.163 340.969 397.435 340.969 395.6ZM367.75 384.144V403.6C367.75 405.435 368.304 406.928 369.414 408.08C370.566 409.189 372.059 409.744 373.894 409.744C375.216 409.744 376.39 409.509 377.414 409.04C378.438 408.571 379.291 407.909 379.974 407.056V384.144H390.342V418H379.974V415.696C378.736 416.635 377.328 417.36 375.75 417.872C374.214 418.384 372.592 418.64 370.885 418.64C366.918 418.64 363.675 417.36 361.158 414.8C358.64 412.24 357.382 408.976 357.382 405.008V384.144H367.75ZM401.562 407.696V392.784H394.715V384.144H401.562V375.44L411.931 373.2V384.144H421.403V392.784H411.931V405.648C411.931 407.141 412.251 408.208 412.891 408.848C413.573 409.445 414.747 409.744 416.411 409.744C417.221 409.744 417.989 409.701 418.715 409.616C419.44 409.488 420.229 409.296 421.083 409.04V417.424C420.144 417.723 418.949 417.957 417.499 418.128C416.048 418.341 414.832 418.448 413.851 418.448C409.797 418.448 406.725 417.552 404.635 415.76C402.587 413.925 401.562 411.237 401.562 407.696Z" fill="black"/>
</svg>
