<svg width="32" height="32" viewBox="0 0 32 32" fill="none" xmlns="http://www.w3.org/2000/svg">
<path d="M29.2864 10.3521L28.2997 7.67214L28.9859 6.13367C29.029 6.03662 29.0418 5.92881 29.0226 5.82436C29.0034 5.71991 28.9531 5.6237 28.8783 5.54834L27.0124 3.66226C26.6118 3.25582 26.1041 2.97153 25.5482 2.84249C24.9924 2.71346 24.4113 2.74498 23.8727 2.9334L23.3501 3.11505L20.4997 0.0269108L15.6645 0H15.6331L10.7666 0.0381248L7.91838 3.15094L7.41154 2.97152C6.86942 2.78088 6.28416 2.74882 5.72445 2.87911C5.16475 3.00941 4.65382 3.29664 4.25163 3.70712L2.3521 5.62907C2.29248 5.68915 2.25244 5.76586 2.23723 5.84911C2.22202 5.93237 2.23235 6.01828 2.26688 6.09555L2.98229 7.69232L2 10.3701L2.63467 12.7854L5.52995 23.7924C5.86349 25.0603 6.63085 26.1713 7.6986 26.9321C7.6986 26.9321 11.2128 29.4102 14.68 31.6619C14.9542 31.8808 15.2946 32 15.6455 32C15.9963 32 16.3367 31.8808 16.6109 31.6619C20.5064 29.1097 23.5878 26.9231 23.5878 26.9231C24.6548 26.1619 25.4213 25.051 25.7543 23.7834L28.6338 12.7719L29.2864 10.3521Z" fill="url(#paint0_linear_362_208)"/>
<path d="M16.4403 19.8365C16.2557 19.7538 16.0653 19.6849 15.8707 19.6301H15.5275C15.3329 19.6849 15.1425 19.7538 14.9579 19.8365L14.0945 20.1953C13.8209 20.3097 13.3813 20.5137 13.1189 20.6438L11.5311 21.4713C11.4736 21.49 11.423 21.5254 11.3858 21.5731C11.3486 21.6208 11.3266 21.6785 11.3225 21.7388C11.3184 21.7991 11.3324 21.8593 11.3628 21.9115C11.3932 21.9638 11.4385 22.0057 11.493 22.032L12.8722 23.0053C13.1144 23.1758 13.4957 23.4763 13.7199 23.6781L14.1079 24.0123C14.3322 24.2052 14.6977 24.5259 14.9198 24.7232L15.2876 25.0484C15.4012 25.1431 15.5444 25.1949 15.6924 25.1949C15.8403 25.1949 15.9835 25.1431 16.0972 25.0484L16.4829 24.712L17.2947 24.0033L17.685 23.6624C17.9092 23.4673 18.2882 23.1668 18.5304 22.9896L19.9097 22.0029C19.9642 21.9767 20.0096 21.9346 20.0399 21.8822C20.0701 21.8298 20.0839 21.7694 20.0793 21.7091C20.0747 21.6487 20.0519 21.5912 20.0141 21.544C19.9762 21.4967 19.925 21.4621 19.8671 21.4444L18.2815 20.6393C18.0169 20.5048 17.5773 20.3029 17.3015 20.1908L16.4403 19.8365Z" fill="white"/>
<path d="M26.2183 10.9512L26.2631 10.8077C26.2658 10.6157 26.2538 10.4238 26.2272 10.2336C26.0937 9.89386 25.9222 9.57036 25.7159 9.26923L24.8188 7.95278C24.6529 7.70609 24.3703 7.31587 24.1797 7.08488L22.9776 5.58005C22.868 5.43338 22.7489 5.29405 22.621 5.16292H22.5964C22.5964 5.16292 22.3542 5.20553 22.0626 5.26159L20.2259 5.61593L19.4208 5.77068C19.1535 5.78324 18.8863 5.74441 18.6336 5.6563L17.1826 5.18758C16.9 5.09563 16.4335 4.96332 16.1442 4.90052C15.8393 4.86812 15.5319 4.86812 15.227 4.90052C14.9377 4.9678 14.4712 5.09788 14.1886 5.18983L12.7376 5.66079C12.485 5.74889 12.2178 5.78772 11.9505 5.77516L11.1454 5.62266L9.30637 5.27056C9.01482 5.2145 8.77486 5.16964 8.77262 5.17189H8.74795C8.62013 5.30301 8.50101 5.44236 8.39136 5.58902L7.19154 7.09384C7.00764 7.31811 6.71834 7.71731 6.55238 7.96176L5.65532 9.2782C5.50039 9.50522 5.35886 9.7411 5.23146 9.98464C5.15461 10.2562 5.11389 10.5367 5.11035 10.8189L5.1552 10.9624C5.1768 11.0546 5.20452 11.1453 5.23818 11.2338C5.42433 11.4581 5.74278 11.8303 5.94686 12.0479L9.08659 15.385C9.19082 15.5066 9.26056 15.654 9.28857 15.8118C9.31657 15.9695 9.30181 16.1319 9.24582 16.282L8.73225 17.4998C8.61547 17.8224 8.60681 18.1743 8.70758 18.5023L8.81074 18.7848C8.9793 19.2438 9.26824 19.6489 9.64725 19.9577L10.1406 20.3592C10.2688 20.4516 10.4184 20.51 10.5753 20.5288C10.7322 20.5477 10.8913 20.5263 11.0377 20.4668L12.7915 19.6303C13.1134 19.4692 13.4146 19.2696 13.6885 19.036L15.0924 17.7689C15.1484 17.7184 15.1936 17.6572 15.2254 17.5889C15.2572 17.5207 15.275 17.4467 15.2778 17.3714C15.2805 17.2961 15.2681 17.221 15.2412 17.1506C15.2144 17.0802 15.1737 17.0159 15.1216 16.9615L11.9527 14.8265C11.8327 14.7414 11.7473 14.616 11.7119 14.4732C11.6765 14.3304 11.6935 14.1797 11.7598 14.0483L12.9888 11.7384C13.0587 11.597 13.1 11.4432 13.1104 11.2858C13.1208 11.1284 13.1001 10.9705 13.0494 10.8211C12.8968 10.5362 12.6504 10.3128 12.3519 10.1887L8.49901 8.73323C8.22092 8.62783 8.23662 8.50897 8.53041 8.49102L10.7933 8.26676C11.1481 8.24419 11.5043 8.27596 11.8495 8.36095L13.8186 8.9104C13.9584 8.95254 14.0782 9.04394 14.1557 9.16766C14.2332 9.29138 14.2633 9.43902 14.2402 9.5832L13.4665 13.8084C13.4148 14.0424 13.4019 14.2833 13.4284 14.5215C13.4598 14.6225 13.7244 14.7458 14.0137 14.8176L15.2135 15.0732C15.562 15.1373 15.9192 15.1373 16.2676 15.0732L17.3463 14.8288C17.6356 14.7637 17.898 14.6269 17.9316 14.526C17.9574 14.2877 17.9438 14.0467 17.8913 13.8129L17.1131 9.58768C17.09 9.44351 17.1201 9.29587 17.1976 9.17215C17.2751 9.04843 17.3949 8.95702 17.5347 8.91489L19.5037 8.36319C19.849 8.27816 20.2052 8.2464 20.56 8.269L22.8229 8.47981C23.1189 8.50672 23.1324 8.61661 22.8565 8.72202L19.0059 10.182C18.7074 10.3061 18.461 10.5295 18.3084 10.8144C18.2063 11.1161 18.2281 11.446 18.369 11.7317L19.6002 14.0416C19.6665 14.1729 19.6835 14.3237 19.6481 14.4665C19.6128 14.6093 19.5273 14.7347 19.4073 14.8198L16.2407 16.9593C16.1885 17.0137 16.1479 17.078 16.121 17.1484C16.0942 17.2188 16.0818 17.2939 16.0845 17.3692C16.0872 17.4444 16.105 17.5184 16.1369 17.5867C16.1687 17.655 16.2139 17.7162 16.2698 17.7667L17.676 19.0338C17.95 19.2666 18.2512 19.4654 18.573 19.6258L20.3268 20.4601C20.4734 20.5193 20.6326 20.5403 20.7895 20.521C20.9464 20.5018 21.0959 20.443 21.2239 20.3502L21.7173 19.9465C22.0967 19.6371 22.3857 19.2312 22.5538 18.7714L22.6569 18.4888C22.7577 18.1608 22.749 17.809 22.6323 17.4863L22.1164 16.2686C22.0605 16.1184 22.0457 15.9561 22.0737 15.7983C22.1017 15.6406 22.1714 15.4932 22.2757 15.3715L25.4154 12.0299C25.6195 11.8057 25.9357 11.4468 26.1218 11.2159C26.1598 11.1299 26.192 11.0415 26.2183 10.9512Z" fill="white"/>
<defs>
<linearGradient id="paint0_linear_362_208" x1="2.00897" y1="16.0014" x2="29.2775" y2="16.0014" gradientUnits="userSpaceOnUse">
<stop stop-color="#F1562B"/>
<stop offset="0.3" stop-color="#F1542B"/>
<stop offset="0.41" stop-color="#F04D2A"/>
<stop offset="0.49" stop-color="#EF4229"/>
<stop offset="0.5" stop-color="#EF4029"/>
<stop offset="0.56" stop-color="#E83E28"/>
<stop offset="0.67" stop-color="#E13C26"/>
<stop offset="1" stop-color="#DF3C26"/>
</linearGradient>
</defs>
</svg>
