<svg width="48" height="48" fill="none" xmlns="http://www.w3.org/2000/svg"><rect width="48" height="48" rx="24" fill="red"/><path fill-rule="evenodd" clip-rule="evenodd" d="M36.85 24.17a3.358 3.358 0 00-2.363-2.363C32.39 21.233 24 21.233 24 21.233s-8.39 0-10.488.552a3.427 3.427 0 00-2.362 2.384c-.552 2.098-.552 6.447-.552 6.447s0 4.372.552 6.447a3.358 3.358 0 002.362 2.363C15.633 40 24 40 24 40s8.39 0 10.487-.552a3.358 3.358 0 002.363-2.362c.552-2.098.552-6.447.552-6.447s.022-4.372-.552-6.47zm-5.473 8.57v.39c0 .492.014.868.043 1.113.029.246.087.434.188.535.087.116.231.173.433.173.26 0 .434-.1.535-.303.101-.202.145-.535.159-1.012l1.488.087c.015.072.015.16.015.275 0 .708-.188 1.242-.578 1.59-.39.346-.94.52-1.647.52-.853 0-1.445-.275-1.792-.81s-.52-1.358-.52-2.485v-1.344c0-1.156.173-1.994.534-2.529.361-.534.968-.795 1.82-.795.593 0 1.056.116 1.373.333.318.217.535.563.665 1.011.13.463.188 1.098.188 1.908v1.315h-2.904v.028zm.216-3.236c-.086.115-.144.289-.173.534-.029.246-.043.622-.043 1.128v.549h1.271v-.55c0-.49-.014-.866-.043-1.127-.029-.26-.101-.433-.188-.534-.087-.101-.231-.16-.404-.16-.203-.014-.333.044-.42.16zm-8.568 6.517v-7.702H21.29v6.112a.704.704 0 01-.304.347.742.742 0 01-.433.145c-.174 0-.304-.073-.376-.217-.072-.145-.116-.39-.116-.737v-5.65h-1.734v5.75c0 .723.116 1.244.362 1.576.245.332.621.506 1.127.506.737 0 1.3-.362 1.662-1.07h.043l.144.94h1.359zm-4.176-9.147h-1.72v9.132h-1.69v-9.132h-1.72v-1.402h5.13v1.402zm9.407 1.618c.23.217.404.564.505 1.055.101.477.145 1.156.16 2.037v1.214c0 1.142-.145 1.994-.42 2.53-.274.534-.694.808-1.286.808-.332 0-.621-.087-.896-.231a1.477 1.477 0 01-.607-.621h-.043l-.173.722h-1.431V25.082h1.676v4.06h.015c.144-.288.36-.534.636-.707.274-.188.578-.275.895-.275.405 0 .737.116.969.332zm-1.157 5.506c.044-.318.073-.752.073-1.315h.014V31.67c0-.592-.014-1.055-.058-1.387-.043-.318-.1-.549-.202-.694a.468.468 0 00-.404-.202.7.7 0 00-.463.202 1.182 1.182 0 00-.303.52v4.364c.072.13.173.232.289.304a.716.716 0 00.39.101.563.563 0 00.433-.202c.102-.13.188-.361.232-.68z" fill="#fff"/><path d="M22.374 18.317c-.346-.231-.592-.592-.736-1.098-.145-.491-.217-1.156-.217-1.965V14.14c0-.823.086-1.488.245-1.994.174-.506.434-.867.78-1.098.362-.231.824-.347 1.402-.347.564 0 1.026.116 1.373.347.347.231.593.607.751 1.098.16.491.246 1.156.246 1.994v1.113c0 .824-.072 1.474-.231 1.98-.16.49-.405.866-.752 1.098-.346.23-.823.346-1.416.346-.607-.014-1.098-.13-1.445-.36zm1.951-1.214c.101-.245.145-.664.145-1.228v-2.399c0-.549-.044-.953-.145-1.213-.101-.26-.26-.376-.506-.376-.23 0-.404.13-.49.376-.102.26-.145.664-.145 1.213v2.4c0 .563.043.982.144 1.227.087.246.26.376.506.376.231 0 .39-.116.491-.376zM18.155 15.124L16.19 8h1.72l.693 3.222c.173.795.303 1.474.39 2.038h.044c.057-.405.187-1.07.39-2.023L20.149 8h1.72l-1.994 7.124v3.41h-1.706v-3.41h-.014zM31.81 10.847v7.701h-1.358l-.145-.939h-.043c-.361.708-.925 1.07-1.662 1.07-.505 0-.881-.174-1.127-.506-.245-.333-.361-.853-.361-1.575v-5.751h1.734v5.65c0 .346.043.592.116.736.072.145.202.217.375.217a.741.741 0 00.434-.144.704.704 0 00.303-.347v-6.112h1.734z" fill="#fff"/></svg>