<svg width="568" height="320" viewBox="0 0 568 320" fill="none" xmlns="http://www.w3.org/2000/svg">
<g clip-path="url(#clip0_225_249)">
<path d="M104.62 148.308C102.817 145.818 98.8679 143.414 93.8457 143.414C86.1194 143.457 76.9765 150.497 76.9765 164.49C76.9765 178.484 86.1623 185.523 93.8887 185.566C98.9108 185.566 102.817 183.248 104.62 180.801V184.922H116.08V144.187H104.62V148.308ZM96.8075 175.135C91.8283 175.135 88.6948 171.101 88.6948 164.533C88.6948 158.137 91.8712 153.931 96.8075 153.931C101.486 153.931 104.963 158.223 104.963 164.533C104.963 171.058 101.486 175.135 96.8075 175.135ZM177.333 176.852V159.082C177.333 146.591 170.165 143.414 164.156 143.414C157.889 143.414 154.455 146.72 152.566 149.338C150.592 145.861 146.943 143.414 142.221 143.414C136.598 143.414 133.722 146.076 132.134 148.222V144.187H121.146V184.922H132.606V161.743C132.606 156.807 134.881 153.802 138.358 153.802C141.535 153.802 143.509 155.991 143.509 160.412V175.951C143.509 180.072 144.325 182.905 146.299 184.922H158.275C155.957 183.034 154.97 181.531 154.97 175.994V161.743C154.97 156.807 157.245 153.802 160.722 153.802C163.898 153.802 165.873 155.991 165.873 160.412V175.951C165.873 180.072 166.946 182.862 169.349 184.922H181.411C178.535 182.991 177.333 180.973 177.333 176.852ZM205.406 143.414C200.341 143.372 196.435 145.818 194.632 148.308V129.593H183.171V184.922H194.46V180.801C196.263 183.291 200.298 185.652 205.32 185.566C213.046 185.523 222.275 178.484 222.275 164.49C222.275 150.497 213.132 143.457 205.406 143.414ZM202.444 175.178C197.765 175.178 194.288 171.058 194.288 164.576C194.288 158.266 197.765 153.974 202.444 153.974C207.423 153.974 210.557 158.18 210.557 164.576C210.557 171.144 207.423 175.178 202.444 175.178ZM244.596 143.414C234.122 143.414 224.979 151.012 224.979 164.49C224.979 176.895 233.822 185.609 245.497 185.609C250.905 185.609 256.185 184.064 259.447 181.188L260.478 171.444C256.657 174.234 251.721 175.565 246.785 175.565C241.333 175.565 237.427 172.903 236.612 168.826H261.937C262.066 167.753 262.109 166.679 262.109 165.52C262.152 151.012 253.867 143.414 244.596 143.414ZM236.569 160.412C237.127 155.905 240.003 153.03 243.78 153.03C247.944 153.03 250.433 156.335 250.734 160.412H236.569ZM298.809 149.681L300.612 144.23H288.335L280.695 172.002H280.609L272.84 144.23H260.435L274.127 184.922H287.005L298.809 149.681ZM323.361 129.55H317.309V140.496C317.309 141.869 317.052 142.814 316.494 143.372C315.936 143.93 314.991 144.187 313.618 144.187H304.003L302.157 149.638H317.052V175.608C317.052 178.355 317.781 180.587 319.241 182.304C320.7 184.021 322.975 184.922 326.066 184.922H341.905V179.471H323.361V149.638H341.905V144.187H323.361V129.55ZM381.052 148.909C379.463 147.149 377.575 145.775 375.343 144.788C373.111 143.801 370.621 143.286 367.874 143.286C365.084 143.286 362.551 143.801 360.276 144.788C358.001 145.775 356.027 147.235 354.396 149.08C352.765 150.969 351.477 153.201 350.575 155.82C349.674 158.438 349.202 161.4 349.202 164.662C349.202 167.881 349.631 170.757 350.533 173.376C351.434 175.994 352.722 178.226 354.353 180.072C356.027 181.96 358.001 183.377 360.362 184.364C362.723 185.351 365.341 185.867 368.303 185.867C372.338 185.867 375.772 184.965 378.605 183.205C381.438 181.445 383.412 179.213 384.657 176.466L380.021 173.29C378.948 175.479 377.446 177.239 375.429 178.484C373.411 179.728 371.05 180.372 368.346 180.372C366.457 180.372 364.74 180.072 363.195 179.471C361.65 178.87 360.319 178.011 359.246 176.895C358.173 175.779 357.357 174.492 356.757 172.946C356.199 171.401 355.898 169.77 355.898 167.967V166.078H386.031V163.074C386.031 160.198 385.602 157.537 384.786 155.09C383.842 152.729 382.64 150.669 381.052 148.909ZM379.163 161.4H355.812V160.842C355.812 159.039 356.113 157.408 356.714 155.905C357.315 154.403 358.173 153.115 359.246 151.999C360.319 150.883 361.607 150.025 363.066 149.381C364.526 148.737 366.157 148.437 367.874 148.437C369.548 148.437 371.093 148.737 372.51 149.295C373.883 149.853 375.085 150.712 376.072 151.785C377.06 152.858 377.789 154.146 378.347 155.605C378.905 157.064 379.163 158.696 379.163 160.498V161.4ZM418.567 178.526C416.765 179.771 414.533 180.415 411.785 180.415C409.897 180.415 408.223 180.115 406.72 179.514C405.261 178.913 404.016 178.054 403.029 176.938C402.042 175.822 401.269 174.535 400.797 172.989C400.282 171.444 400.067 169.813 400.067 168.01V161.099C400.067 159.296 400.325 157.665 400.797 156.12C401.312 154.575 402.042 153.287 403.029 152.171C404.016 151.055 405.261 150.197 406.677 149.596C408.137 148.995 409.768 148.694 411.614 148.694C414.146 148.694 416.249 149.252 417.966 150.411C419.683 151.57 420.885 153.201 421.615 155.304L426.68 152.6C425.521 149.81 423.718 147.535 421.229 145.818C418.739 144.101 415.563 143.2 411.614 143.2C408.738 143.2 406.162 143.715 403.887 144.702C401.612 145.689 399.724 147.149 398.135 148.995C396.547 150.883 395.345 153.115 394.487 155.734C393.628 158.352 393.242 161.271 393.242 164.49C393.242 167.71 393.628 170.628 394.444 173.247C395.26 175.865 396.461 178.097 398.05 179.943C399.638 181.789 401.569 183.205 403.844 184.235C406.119 185.266 408.738 185.781 411.7 185.781C415.82 185.781 419.125 184.879 421.701 183.119C424.233 181.317 426.122 179.084 427.324 176.337L422.817 173.247C421.787 175.522 420.37 177.239 418.567 178.526ZM452.864 143.243C451.19 143.243 449.687 143.457 448.443 143.887C447.198 144.316 446.082 144.874 445.18 145.561C444.279 146.247 443.463 147.063 442.862 147.964C442.219 148.866 441.704 149.853 441.274 150.84H440.931V129.55H434.621V184.922H440.931V156.678C440.931 155.347 441.231 154.188 441.789 153.201C442.347 152.214 443.12 151.398 444.064 150.755C445.009 150.111 446.082 149.638 447.284 149.338C448.486 149.038 449.73 148.866 450.975 148.866C454.152 148.866 456.512 149.767 458.143 151.57C459.775 153.373 460.59 156.163 460.59 159.897V184.922H466.9V158.781C466.9 153.845 465.612 150.025 463.037 147.321C460.547 144.616 457.113 143.243 452.864 143.243ZM470.076 195.825H475.742L503.214 125H497.505L470.076 195.825ZM506.09 138.092V144.788L534.076 160.627V161.271L506.09 177.11V183.677L540 164.018V157.708L506.09 138.092ZM61.9101 138.092V144.788L33.9235 160.627V161.271L61.9101 177.11V183.677L28 164.018V157.708L61.9101 138.092Z" fill="#FCD436"/>
</g>
<defs>
<clipPath id="clip0_225_249">
<rect width="512" height="70.8249" fill="white" transform="translate(28 125)"/>
</clipPath>
</defs>
</svg>
