<svg width="568" height="320" viewBox="0 0 568 320" fill="none" xmlns="http://www.w3.org/2000/svg">
<g clip-path="url(#clip0_320_183)">
<path d="M262.811 135.744V110H246.507V209.987H262.811V152.048H279.05L288.4 135.744H262.811Z" fill="#FBF9FC"/>
<path d="M485.437 135.757C477.997 135.754 470.73 137.998 464.587 142.196V110H448.283V209.987H464.587V173.554C464.587 162.093 473.602 152.254 485.025 152.048C487.79 151.998 490.538 152.5 493.108 153.523C495.677 154.546 498.018 156.071 499.992 158.008C501.966 159.945 503.535 162.256 504.607 164.806C505.679 167.355 506.233 170.093 506.236 172.859V209.987H522.539V173.851C522.539 153.439 505.798 135.757 485.437 135.744" fill="#FBF9FC"/>
<path d="M197.144 135.757C189.802 135.764 182.627 137.949 176.526 142.034C170.425 146.118 165.672 151.92 162.869 158.706C160.065 165.492 159.336 172.957 160.774 180.156C162.212 187.356 165.752 193.968 170.947 199.156C176.143 204.345 182.76 207.876 189.962 209.304C197.164 210.732 204.627 209.993 211.409 207.179C218.191 204.366 223.986 199.605 228.063 193.499C232.139 187.392 234.314 180.214 234.311 172.872C234.311 167.994 233.349 163.163 231.481 158.657C229.612 154.15 226.874 150.056 223.422 146.609C219.97 143.162 215.872 140.429 211.363 138.567C206.854 136.705 202.023 135.75 197.144 135.757ZM199.862 193.529C195.548 194.094 191.166 193.295 187.33 191.243C183.495 189.191 180.398 185.989 178.475 182.087C176.552 178.185 175.899 173.779 176.608 169.487C177.317 165.195 179.353 161.232 182.429 158.156C185.505 155.08 189.467 153.045 193.759 152.336C198.051 151.626 202.457 152.279 206.359 154.202C210.261 156.125 213.463 159.222 215.515 163.058C217.567 166.894 218.367 171.276 217.801 175.589C217.202 180.137 215.12 184.36 211.876 187.604C208.633 190.847 204.409 192.93 199.862 193.529Z" fill="#FBF9FC"/>
<path d="M118.406 164.707C116.871 157.886 113.441 151.638 108.512 146.68C103.582 141.723 97.3533 138.258 90.5415 136.684C83.7297 135.11 76.612 135.491 70.0075 137.784C63.4029 140.077 57.5799 144.188 53.2085 149.644C48.8371 155.1 46.0951 161.68 45.2979 168.625C44.5006 175.571 45.6807 182.6 48.7021 188.905C51.7236 195.21 56.4638 200.533 62.3771 204.263C68.2904 207.992 75.1366 209.977 82.1278 209.987H100.222L109.571 193.709H82.1278C78.3658 193.706 74.6747 192.685 71.4466 190.753C68.2186 188.821 65.5743 186.05 63.7946 182.736C62.0149 179.421 61.1663 175.687 61.339 171.929C61.5117 168.171 62.6993 164.53 64.7754 161.392C66.8516 158.255 69.7389 155.739 73.1305 154.111C76.5221 152.483 80.2913 151.804 84.0377 152.147C87.7841 152.49 91.3677 153.841 94.4078 156.057C97.4479 158.273 99.8309 161.271 101.304 164.733C101.445 165.068 101.561 165.415 101.677 165.75H82.1278C80.2356 165.75 78.4209 166.502 77.0829 167.84C75.7449 169.178 74.9932 170.992 74.9932 172.885C74.9932 174.777 75.7449 176.592 77.0829 177.93C78.4209 179.268 80.2356 180.019 82.1278 180.019H118.561C119.015 177.668 119.248 175.279 119.256 172.885C119.26 170.142 118.957 167.408 118.354 164.733" fill="#FBF9FC"/>
<path d="M361.805 164.707C360.27 157.884 356.839 151.634 351.907 146.676C346.975 141.717 340.743 138.253 333.928 136.681C327.114 135.109 319.994 135.494 313.389 137.791C306.783 140.088 300.961 144.203 296.592 149.664C292.223 155.125 289.485 161.709 288.694 168.657C287.902 175.606 289.089 182.636 292.118 188.94C295.147 195.243 299.895 200.563 305.815 204.287C311.734 208.01 318.585 209.986 325.579 209.987H343.608L352.971 193.709H325.527C321.766 193.704 318.076 192.681 314.849 190.747C311.623 188.814 308.98 186.042 307.202 182.727C305.424 179.413 304.578 175.678 304.752 171.921C304.926 168.163 306.114 164.523 308.191 161.387C310.268 158.251 313.156 155.736 316.547 154.109C319.939 152.482 323.707 151.804 327.453 152.147C331.199 152.49 334.782 153.842 337.821 156.058C340.861 158.274 343.243 161.271 344.716 164.733C344.845 165.068 344.961 165.415 345.076 165.75H325.527C323.635 165.75 321.82 166.502 320.482 167.84C319.144 169.178 318.393 170.993 318.393 172.885C318.393 174.777 319.144 176.592 320.482 177.93C321.82 179.268 323.635 180.019 325.527 180.019H361.96C362.973 174.96 362.92 169.745 361.805 164.707" fill="#FBF9FC"/>
<path d="M391.194 172.872C391.198 167.348 393.395 162.051 397.302 158.146C401.209 154.241 406.507 152.048 412.031 152.048H426.713L436.049 135.757H412.031C407.098 135.665 402.197 136.557 397.612 138.381C393.028 140.205 388.853 142.925 385.332 146.381C381.811 149.838 379.014 153.961 377.105 158.51C375.195 163.06 374.212 167.944 374.212 172.878C374.212 177.812 375.195 182.697 377.105 187.246C379.014 191.796 381.811 195.919 385.332 199.375C388.853 202.831 393.028 205.551 397.612 207.375C402.197 209.2 407.098 210.092 412.031 210H426.713L436.049 193.709H412.031C409.297 193.711 406.59 193.174 404.063 192.128C401.537 191.083 399.241 189.551 397.307 187.618C395.373 185.685 393.839 183.39 392.793 180.865C391.746 178.339 391.207 175.632 391.207 172.898" fill="#FBF9FC"/>
<path d="M147.794 110H131.49V209.987H147.794V110Z" fill="#FBF9FC"/>
</g>
<defs>
<clipPath id="clip0_320_183">
<rect width="477.54" height="100" fill="white" transform="translate(45 110)"/>
</clipPath>
</defs>
</svg>
