<svg width="568" height="320" viewBox="0 0 568 320" fill="none" xmlns="http://www.w3.org/2000/svg">
<path d="M76.998 176.536H108.514L126.151 89.6679H94.6346L76.998 176.536ZM97.4239 76.0265H128.924L134.006 51.0001H102.47L97.4239 76.0265ZM120.975 200.998H152.491L171.613 106.984H194.611L198.234 89.6679H175.039L175.836 85.6521C177.316 78.2466 179.722 69.6302 191.604 69.6302C198.648 69.6302 205.396 70.3961 211.942 73.1492L215.534 54.8503C208.235 52.2922 200.555 50.9904 192.82 51.0001C167.494 51.0001 150.049 66.0801 143.663 89.6679H132.723L129.297 106.984H140.082L120.975 200.998Z" fill="#EA1D2C"/>
<path d="M220.811 178.477C258.019 178.477 283.843 144.482 283.843 116.754C283.843 96.5611 264.757 87.7325 246.608 87.7325C205.777 87.7325 183.561 124.284 183.561 149.455C183.561 169.648 202.843 178.477 220.811 178.477ZM320.223 178.477C357.442 178.477 383.26 144.482 383.26 116.754C383.26 96.5611 364.133 87.7325 346.005 87.7325C305.195 87.7325 282.942 124.284 282.942 149.455C282.942 169.648 302.245 178.477 320.213 178.477H320.223ZM434.498 176.536H465.833L490.999 52.9355H459.483L451.974 89.6628C447.789 88.7582 443.525 88.2711 439.244 88.2086C408.369 88.2086 380.295 127.477 380.295 155.541C380.295 167.086 387.799 178.466 400.54 178.466C418.652 178.466 431.181 169.607 436.413 161.301H438.369L434.498 176.536ZM337.415 242.011C314.365 261.634 283.553 271.71 250.065 269.63C207.837 267.032 178.567 234.336 172.678 201.18H174.68C184.182 222.351 207.304 241.902 236.32 245.116C264.654 248.241 299.373 235.438 318.427 217.16L297.054 200.993L360.516 201.18L346.859 268.367L337.415 242.011Z" fill="#EA1D2C"/>
</svg>
