<svg width="568" height="320" viewBox="0 0 568 320" fill="none" xmlns="http://www.w3.org/2000/svg">
<path d="M76.998 176.443H108.514L126.151 89.5753H94.6346L76.998 176.443ZM97.4239 75.9339H128.924L134.006 50.9074H102.47L97.4239 75.9339ZM120.975 200.906H152.491L171.613 106.891H194.611L198.234 89.5753H175.039L175.836 85.5594C177.316 78.154 179.722 69.5375 191.604 69.5375C198.648 69.5375 205.396 70.3034 211.942 73.0565L215.534 54.7576C208.235 52.1996 200.555 50.8977 192.82 50.9074C167.494 50.9074 150.049 65.9875 143.663 89.5753H132.723L129.297 106.891H140.082L120.975 200.906Z" fill="white"/>
<path d="M220.811 178.384C258.019 178.384 283.843 144.389 283.843 116.661C283.843 96.4684 264.757 87.6398 246.608 87.6398C205.777 87.6398 183.561 124.191 183.561 149.362C183.561 169.555 202.843 178.384 220.811 178.384ZM320.223 178.384C357.442 178.384 383.26 144.389 383.26 116.661C383.26 96.4684 364.133 87.6398 346.005 87.6398C305.195 87.6398 282.942 124.191 282.942 149.362C282.942 169.555 302.245 178.384 320.213 178.384H320.223ZM434.498 176.443H465.833L490.999 52.8429H459.483L451.974 89.5701C447.789 88.6656 443.525 88.1785 439.244 88.1159C408.369 88.1159 380.295 127.384 380.295 155.448C380.295 166.994 387.799 178.374 400.54 178.374C418.652 178.374 431.181 169.514 436.413 161.208H438.369L434.498 176.443ZM337.415 241.918C314.365 261.542 283.553 271.617 250.065 269.537C207.837 266.939 178.567 234.243 172.678 201.087H174.68C184.182 222.258 207.304 241.809 236.32 245.023C264.654 248.149 299.373 235.346 318.427 217.067L297.054 200.901L360.516 201.087L346.859 268.274L337.415 241.918Z" fill="white"/>
</svg>
