<svg width="568" height="320" viewBox="0 0 568 320" fill="none" xmlns="http://www.w3.org/2000/svg">
<path d="M125.02 127.763C112.168 127.763 102.505 132.028 96.0289 140.557C89.4947 132.026 79.8027 127.761 66.9531 127.763C56.6244 127.769 46.7203 131.873 39.4169 139.176C32.1134 146.478 28.008 156.381 28.0026 166.708V211.06C27.972 212.349 28.2162 213.63 28.7189 214.816C29.2216 216.004 29.9712 217.07 30.9181 217.945C31.8055 218.876 32.8744 219.615 34.0588 220.116C35.2432 220.617 36.5178 220.871 37.8039 220.86H38.0413C39.3273 220.871 40.6018 220.616 41.786 220.116C42.9703 219.614 44.0394 218.876 44.9271 217.945C45.8739 217.07 46.6235 216.004 47.1263 214.816C47.629 213.63 47.8732 212.349 47.8426 211.06V166.708C47.8426 161.639 49.8563 156.778 53.4408 153.195C57.0253 149.611 61.8868 147.597 66.956 147.597C72.0252 147.597 76.8867 149.611 80.4712 153.195C84.0556 156.778 86.0693 161.639 86.0693 166.708V211.238C86.0388 212.527 86.283 213.808 86.7857 214.996C87.2883 216.182 88.0381 217.249 88.9848 218.124C89.885 219.058 90.9672 219.799 92.1645 220.3C93.3618 220.801 94.6491 221.051 95.9469 221.035H96.1081C98.694 220.995 101.163 219.949 102.992 218.121C104.821 216.293 105.867 213.825 105.909 211.238V166.708C105.909 161.629 107.927 156.759 111.519 153.168C115.11 149.577 119.982 147.559 125.061 147.559C130.14 147.559 135.012 149.577 138.603 153.168C142.194 156.759 144.212 161.629 144.212 166.708V211.06C144.254 213.646 145.3 216.114 147.129 217.943C148.958 219.772 151.427 220.818 154.013 220.86H154.175C155.473 220.875 156.76 220.624 157.958 220.123C159.155 219.621 160.238 218.88 161.137 217.945C162.054 217.052 162.779 215.98 163.267 214.795C163.754 213.612 163.994 212.341 163.971 211.06V166.708C163.965 156.381 159.859 146.478 152.556 139.176C145.253 131.873 135.349 127.769 125.02 127.763ZM216.159 127.76C203.852 127.858 192.082 132.815 183.413 141.55C174.746 150.286 169.881 162.094 169.881 174.399C169.881 186.705 174.746 198.513 183.413 207.249C192.082 215.984 203.852 220.941 216.159 221.038C227.88 221.038 236.815 217.772 242.965 211.238C242.932 212.527 243.176 213.809 243.679 214.996C244.182 216.183 244.932 217.249 245.88 218.124C246.768 219.054 247.836 219.792 249.021 220.294C250.206 220.795 251.48 221.049 252.766 221.038H253.005C254.291 221.048 255.565 220.794 256.749 220.293C257.933 219.791 259.001 219.053 259.889 218.124C260.836 217.248 261.584 216.182 262.087 214.995C262.588 213.808 262.833 212.527 262.801 211.238V174.401C262.781 162.038 257.861 150.188 249.118 141.445C240.375 132.703 228.524 127.782 216.159 127.76ZM235.105 193.426C232.646 195.948 229.696 197.939 226.438 199.277C223.179 200.615 219.682 201.271 216.159 201.205C209.985 201.179 204.011 199.016 199.253 195.081C194.496 191.147 191.248 185.685 190.066 179.626C188.882 173.567 189.837 167.286 192.766 161.852C195.694 156.417 200.416 152.165 206.128 149.821C211.839 147.476 218.186 147.183 224.089 148.992C229.993 150.8 235.086 154.599 238.504 159.74C241.921 164.882 243.449 171.049 242.83 177.191C242.21 183.333 239.481 189.07 235.105 193.426ZM452.751 137.8V137.636C452.77 136.345 452.529 135.064 452.042 133.868C451.555 132.672 450.833 131.586 449.918 130.675C449.018 129.741 447.936 129 446.739 128.499C445.54 127.999 444.254 127.748 442.956 127.763H438.341C433.638 127.685 428.971 128.572 424.625 130.368C420.278 132.164 416.346 134.833 413.072 138.208C409.736 141.511 407.095 145.448 405.301 149.786C403.507 154.124 402.597 158.776 402.625 163.47V211.242C402.595 212.529 402.839 213.81 403.341 214.996C403.843 216.182 404.592 217.249 405.538 218.124C406.426 219.054 407.495 219.792 408.678 220.294C409.863 220.795 411.137 221.049 412.424 221.038H412.664C413.95 221.049 415.224 220.794 416.409 220.294C417.593 219.792 418.662 219.054 419.55 218.124C420.497 217.25 421.247 216.183 421.749 214.997C422.251 213.81 422.494 212.53 422.463 211.242V163.461C422.447 161.373 422.849 159.302 423.641 157.37C424.434 155.438 425.603 153.682 427.08 152.206C428.543 150.708 430.296 149.526 432.233 148.732C434.169 147.938 436.248 147.549 438.341 147.588H442.956C444.254 147.604 445.54 147.353 446.739 146.852C447.936 146.351 449.018 145.611 449.918 144.676C450.836 143.783 451.56 142.711 452.047 141.527C452.535 140.343 452.774 139.072 452.751 137.792V137.8ZM526.322 141.442C520.898 136.033 514.225 132.043 506.891 129.827C499.558 127.611 491.791 127.236 484.279 128.736C476.766 130.235 469.739 133.563 463.819 138.425C457.9 143.287 453.27 149.533 450.339 156.61C447.409 163.687 446.268 171.377 447.019 179C447.769 186.623 450.387 193.943 454.641 200.313C458.895 206.684 464.653 211.907 471.407 215.522C478.161 219.137 485.703 221.032 493.363 221.038C505.084 221.038 514.02 217.772 520.171 211.238C520.14 212.527 520.384 213.808 520.887 214.995C521.388 216.182 522.137 217.248 523.084 218.124C523.972 219.054 525.041 219.792 526.225 220.294C527.409 220.794 528.684 221.049 529.969 221.038H530.21C531.496 221.048 532.77 220.794 533.955 220.293C535.138 219.792 536.208 219.054 537.096 218.124C538.042 217.249 538.792 216.182 539.295 214.996C539.797 213.808 540.041 212.527 540.011 211.238V174.401C540.103 168.264 538.935 162.172 536.58 156.504C534.226 150.835 530.735 145.709 526.322 141.442ZM512.31 193.426C509.85 195.948 506.9 197.939 503.642 199.277C500.384 200.615 496.885 201.271 493.363 201.205C487.188 201.18 481.211 199.016 476.452 195.081C471.693 191.146 468.445 185.683 467.262 179.623C466.079 173.562 467.033 167.279 469.962 161.843C472.891 156.407 477.614 152.155 483.327 149.809C489.04 147.464 495.389 147.171 501.294 148.98C507.198 150.79 512.293 154.589 515.71 159.732C519.129 164.875 520.657 171.044 520.037 177.187C519.416 183.331 516.686 189.07 512.31 193.426ZM379.544 136.667C373.557 132.776 366.743 130.336 359.646 129.54C352.549 128.745 345.366 129.616 338.665 132.084C331.963 134.553 325.93 138.55 321.046 143.759C316.163 148.968 312.561 155.245 310.529 162.09C308.497 168.935 308.091 176.159 309.342 183.189C310.593 190.219 313.467 196.859 317.736 202.583C322.006 208.307 327.551 212.956 333.933 216.16C340.314 219.365 347.356 221.036 354.497 221.042C359.9 221.073 365.265 220.134 370.335 218.27C371.528 217.835 372.624 217.169 373.559 216.309C374.494 215.451 375.251 214.416 375.786 213.265C376.322 212.113 376.626 210.868 376.679 209.599C376.733 208.331 376.537 207.064 376.101 205.871C375.666 204.679 375 203.583 374.141 202.648C373.282 201.713 372.247 200.956 371.096 200.421C369.944 199.886 368.699 199.582 367.43 199.528C366.161 199.474 364.894 199.671 363.702 200.106C360.757 201.201 357.639 201.753 354.497 201.735C345.936 201.735 339.634 199.184 335.592 194.083C338.202 192.856 347.03 188.84 362.075 182.036L391.432 168.796C392.615 168.301 393.68 167.562 394.56 166.628C395.439 165.695 396.113 164.587 396.536 163.376C397.006 162.186 397.219 160.911 397.163 159.633C397.108 158.355 396.785 157.103 396.214 155.959C392.651 148.044 386.858 141.339 379.544 136.664V136.667ZM328.099 175.898V175.338C328.072 171.861 328.736 168.412 330.052 165.193C331.368 161.974 333.309 159.048 335.765 156.585C338.221 154.122 341.141 152.171 344.357 150.846C347.572 149.52 351.02 148.846 354.497 148.863C362.688 148.863 368.75 151.207 372.682 155.894L328.099 175.898Z" fill="#034EA2"/>
<path d="M302.004 201.741H295.622C294.885 201.761 294.152 201.632 293.466 201.361C292.781 201.091 292.156 200.685 291.632 200.168C291.113 199.668 290.705 199.067 290.43 198.402C290.156 197.737 290.023 197.022 290.037 196.303V147.92L309.857 139.227C310.997 138.7 312.021 137.951 312.869 137.024C313.717 136.098 314.371 135.012 314.796 133.83C315.219 132.647 315.404 131.393 315.338 130.138C315.273 128.884 314.958 127.656 314.413 126.524L314.311 126.304C313.198 124.017 311.23 122.26 308.83 121.415C306.431 120.569 303.796 120.703 301.494 121.787L290.037 126.811V107.528C290.052 106.262 289.804 105.007 289.309 103.842C288.814 102.676 288.084 101.626 287.162 100.757C286.273 99.8704 285.215 99.1698 284.051 98.6964C282.886 98.2231 281.639 97.9865 280.382 98.0006H280.148C278.891 97.9864 277.644 98.2229 276.48 98.6962C275.315 99.1696 274.258 99.8703 273.368 100.757C272.448 101.627 271.719 102.678 271.225 103.843C270.73 105.008 270.482 106.263 270.496 107.528V196.297C270.457 199.559 271.086 202.793 272.347 205.802C273.606 208.81 275.47 211.527 277.821 213.788C280.148 216.128 282.921 217.976 285.978 219.221C289.034 220.466 292.311 221.082 295.611 221.033H301.993C303.255 221.043 304.508 220.797 305.673 220.31C306.838 219.822 307.893 219.103 308.773 218.197C309.703 217.351 310.44 216.315 310.935 215.159C311.431 214.005 311.673 212.757 311.645 211.499V211.342C311.657 210.076 311.409 208.821 310.915 207.657C310.421 206.492 309.691 205.441 308.773 204.571C307.894 203.664 306.839 202.944 305.674 202.456C304.508 201.969 303.255 201.724 301.993 201.735" fill="#034EA2"/>
</svg>
