<svg viewBox="0 0 568 320" fill="none" xmlns="http://www.w3.org/2000/svg">
<g clip-path="url(#clip0_225:260)">
<path d="M58.1041 132.155L57 137.78H67.2563L57.5889 188.795H63.6494L73.2923 137.78H83.4504L84.53 132.155H58.1041ZM102 156.521H87.9897L91.6947 137.534H106.539L107.545 132.155H86.6402L75.9177 188.795H97.8043L98.9084 183.318H82.9597L87.0818 161.728H100.994L102 156.521ZM124.23 182.262C122.42 182.987 120.487 183.355 118.538 183.343C111.373 183.343 109.14 176.981 109.14 167.819C109.037 158.815 111.9 150.027 117.286 142.815C118.552 141.287 120.127 140.046 121.908 139.173C123.689 138.301 125.635 137.818 127.616 137.755C129.133 137.707 130.643 137.966 132.057 138.517L133.775 133.211C132.026 132.493 130.143 132.158 128.254 132.229C125.47 132.293 122.726 132.91 120.182 134.044C117.638 135.178 115.344 136.807 113.434 138.836C106.073 146.45 102.957 158.486 102.957 169.465C102.957 178.479 105.779 188.795 117.311 188.795C119.826 188.911 122.336 188.484 124.672 187.543L124.23 182.262ZM132.008 188.795L137.136 161.482C138.388 154.752 139.59 147.531 140.253 141.833H140.424C141.185 148.563 142.019 153.672 143.197 159.395L149.159 188.869H154.606L165.28 132.229H160.054L154.68 159.542C153.429 166.198 152.742 172.83 151.907 178.946H151.736C151.073 173.739 150.067 168.458 148.963 162.735L143.172 132.155H137.382L126.635 188.795H132.008ZM183.265 137.485C189.007 137.485 189.399 143.65 189.399 150.208C189.399 156.767 186.529 174.599 180.149 181.083C178.891 182.504 177.133 183.384 175.242 183.539C168.911 183.539 168.69 175.728 168.69 171.062C168.69 162.858 172.027 146.18 178.186 140.04C178.841 139.305 179.637 138.709 180.526 138.287C181.415 137.865 182.38 137.626 183.363 137.584L183.265 137.485ZM184.247 132.254C182.327 132.291 180.434 132.71 178.678 133.486C176.922 134.262 175.337 135.379 174.015 136.773C166.458 144.142 162.532 160.819 162.532 171.406C162.532 177.3 163.685 188.894 174.334 188.894C176.281 188.849 178.198 188.4 179.964 187.576C181.729 186.751 183.304 185.569 184.59 184.104C191.706 177.055 195.632 160.303 195.632 150.037C195.632 143.061 194.65 132.155 184.148 132.155L184.247 132.254ZM510.926 160.5C510.759 157.88 509.723 155.39 507.982 153.426C503.786 148.268 486.39 130.731 462.197 107.52C461.23 106.572 460.065 105.85 458.786 105.407C457.849 105.042 456.823 104.965 455.842 105.186C455.547 105.186 454.517 105.579 454.492 106.046C454.499 106.12 454.522 106.192 454.56 106.256C454.599 106.319 454.651 106.374 454.713 106.414C469.214 120.881 497.186 149.373 500.155 152.493C500.837 153.176 501.461 153.915 502.02 154.703C503.252 156.426 503.915 158.492 503.915 160.61C503.915 162.729 503.252 164.795 502.02 166.518C501.455 167.293 500.831 168.024 500.155 168.704C497.186 171.627 469.214 200.119 454.787 214.586C454.668 214.675 454.588 214.807 454.566 214.954C454.566 215.396 455.155 215.765 455.327 215.863C456.431 216.526 459.939 215.273 461.215 214.487C467.08 211 503.811 172.069 508.056 167.598C509.893 165.686 510.944 163.152 511 160.5" fill="#27A8DF"/>
<path d="M493.874 151.363L492.279 149.742C479.496 136.331 457.928 114.839 449.242 106.144L443.746 100.593L443.501 100.372C441.58 98.1479 438.906 96.7132 435.992 96.3439C435.011 96.172 434.005 96.0737 432.999 96H410.082C409.419 95.9645 408.761 96.1321 408.196 96.4805C407.631 96.8289 407.185 97.3415 406.919 97.95C406.652 98.5584 406.577 99.2338 406.704 99.886C406.831 100.538 407.153 101.136 407.628 101.6C408.56 102.607 436.336 130.19 452.972 147.408C453.61 148.047 454.468 148.98 455.425 150.135C458.37 153.647 461.78 157.307 461.707 160.868C461.707 163.669 459.817 166.37 456.48 169.883C440.605 186.511 408.585 218.319 407.579 219.4C407.104 219.864 406.782 220.462 406.655 221.114C406.528 221.766 406.603 222.442 406.87 223.05C407.136 223.659 407.582 224.171 408.147 224.52C408.712 224.868 409.37 225.036 410.033 225H432.95C433.954 224.948 434.954 224.833 435.943 224.656C438.857 224.287 441.531 222.852 443.451 220.628L443.697 220.407L449.193 214.856C457.928 206.161 479.447 184.694 492.23 171.283L493.825 169.637C495.142 168.507 496.198 167.106 496.923 165.528C497.647 163.951 498.022 162.236 498.022 160.5C498.022 158.764 497.647 157.049 496.923 155.472C496.198 153.894 495.142 152.493 493.825 151.363" fill="#1174B7"/>
<path d="M450.787 150.037L444.678 143.97C444.476 143.759 444.234 143.592 443.966 143.478C443.699 143.364 443.411 143.305 443.119 143.305C442.828 143.305 442.54 143.364 442.273 143.478C442.005 143.592 441.763 143.759 441.561 143.97C438.911 146.672 436.458 149.251 434.2 151.535C427.796 158.289 428.066 164.97 433.783 170.767L440.85 177.939C441.057 178.148 441.304 178.313 441.575 178.426C441.847 178.539 442.138 178.598 442.432 178.598C442.727 178.598 443.018 178.539 443.289 178.426C443.561 178.313 443.808 178.148 444.015 177.939C446.837 175.041 449.487 172.314 451.793 169.907C458.811 162.539 459.154 158.756 450.738 150.258" fill="#27A8DF"/>
<path d="M252.706 142.201C254.32 141.873 255.966 141.733 257.613 141.784C262.25 141.784 266.176 143.528 266.176 148.956C266.176 154.384 261.416 159.198 254.178 159.198C252.646 159.217 251.117 159.077 249.614 158.781L252.706 142.201ZM232.144 188.869H243.872L247.7 168.605C249.326 168.833 250.966 168.947 252.607 168.949C259.033 169.235 265.374 167.387 270.642 163.693C273.057 161.832 275.006 159.434 276.335 156.689C277.663 153.943 278.335 150.926 278.297 147.875C278.381 145.531 277.867 143.205 276.802 141.116C275.737 139.027 274.157 137.245 272.212 135.938C267.729 133.238 262.543 131.939 257.318 132.205C252.37 132.15 247.432 132.652 242.596 133.703L232.144 188.869ZM191.781 184.792C194.407 186.757 199.829 188.624 207.485 188.796C219.753 188.796 229.764 182.434 229.764 170.227C229.764 163.718 225.519 159.247 218.87 155.735C214.232 153.131 210.895 151.191 210.895 147.998C210.895 144.805 213.741 142.226 219.189 142.226C222.755 142.203 226.274 143.046 229.445 144.682L233.101 134.857C229.103 132.827 224.648 131.871 220.17 132.082C208.221 132.082 198.529 138.836 198.529 149.914C198.529 157.061 204.074 161.311 209.914 164.479C214.968 167.083 217.275 169.121 217.275 172.216C217.275 176.539 213.128 178.651 208.564 178.651C204.02 178.645 199.558 177.433 195.633 175.139L191.781 184.792ZM313.924 154.581H293.755L296.111 142.471H317.458L319.47 132.131H285.953L275.206 188.796H309.9L311.814 178.455H289.24L291.841 164.749H311.986L313.924 154.581ZM353.158 154.581H332.989L335.345 142.471H356.667L358.679 132.131H325.187L314.44 188.796H349.11L351.048 178.455H328.45L331.051 164.749H351.22L353.158 154.581ZM374.505 142.103C376.176 141.837 377.868 141.722 379.56 141.759C389.374 141.759 394.281 146.991 394.281 155.76C394.472 161.893 392.382 167.88 388.417 172.56C386.41 174.725 383.958 176.43 381.231 177.558C378.503 178.686 375.564 179.209 372.616 179.094C370.877 179.094 369.14 178.987 367.414 178.774L374.505 142.103ZM353.845 187.715C358.88 188.474 363.967 188.836 369.058 188.796C381.13 188.796 389.325 186.487 395.778 181.427C399.49 178.288 402.449 174.353 404.437 169.915C406.425 165.476 407.39 160.647 407.261 155.784C407.261 147.58 404.366 142.029 399.9 138.296C395.435 134.562 388.245 132.254 379.56 132.254C374.405 132.228 369.258 132.648 364.175 133.506L353.845 187.715Z" fill="#1174B7"/>
</g>
<defs>
<clipPath id="clip0_225:260">
<rect width="454" height="129" fill="white" transform="translate(57 96)"/>
</clipPath>
</defs>
</svg>
