<svg width="568" height="320" viewBox="0 0 568 320" fill="none" xmlns="http://www.w3.org/2000/svg">
<g clip-path="url(#clip0_225_263)">
<path d="M58.1041 132.118L57 137.737H67.2563L57.5889 188.699H63.6494L73.2923 137.737H83.4504L84.53 132.118H58.1041ZM102 156.458H87.9897L91.6947 137.491H106.539L107.545 132.118H86.6402L75.9177 188.699H97.8043L98.9084 183.227H82.9597L87.0818 161.66H100.994L102 156.458ZM124.23 182.172C122.42 182.897 120.487 183.264 118.538 183.252C111.373 183.252 109.14 176.897 109.14 167.745C109.037 158.75 111.9 149.971 117.286 142.767C118.552 141.24 120.127 140 121.908 139.129C123.689 138.257 125.635 137.774 127.616 137.712C129.133 137.664 130.643 137.923 132.057 138.473L133.775 133.173C132.026 132.455 130.143 132.12 128.254 132.191C125.47 132.255 122.726 132.872 120.182 134.005C117.638 135.138 115.344 136.765 113.434 138.792C106.073 146.398 102.957 158.421 102.957 169.389C102.957 178.394 105.779 188.699 117.311 188.699C119.826 188.815 122.336 188.388 124.672 187.448L124.23 182.172ZM132.008 188.699L137.136 161.414C138.388 154.691 139.59 147.478 140.253 141.785H140.424C141.185 148.508 142.019 153.612 143.197 159.329L149.159 188.773H154.606L165.28 132.191H160.054L154.68 159.476C153.429 166.125 152.742 172.75 151.907 178.86H151.736C151.073 173.658 150.067 168.383 148.963 162.666L143.172 132.118H137.382L126.635 188.699H132.008ZM183.265 137.442C189.007 137.442 189.399 143.601 189.399 150.152C189.399 156.703 186.529 174.517 180.149 180.995C178.891 182.414 177.133 183.293 175.242 183.448C168.911 183.448 168.69 175.646 168.69 170.984C168.69 162.788 172.027 146.128 178.186 139.994C178.841 139.26 179.637 138.664 180.526 138.243C181.415 137.821 182.38 137.583 183.363 137.54L183.265 137.442ZM184.247 132.216C182.327 132.254 180.434 132.672 178.678 133.447C176.922 134.222 175.337 135.338 174.015 136.731C166.458 144.092 162.532 160.752 162.532 171.327C162.532 177.216 163.685 188.797 174.334 188.797C176.281 188.752 178.198 188.304 179.964 187.48C181.729 186.657 183.304 185.476 184.59 184.013C191.706 176.971 195.632 160.237 195.632 149.98C195.632 143.012 194.65 132.118 184.148 132.118L184.247 132.216ZM510.926 160.433C510.759 157.815 509.723 155.328 507.982 153.366C503.786 148.214 486.39 130.695 462.197 107.508C461.23 106.561 460.065 105.84 458.786 105.397C457.849 105.032 456.823 104.956 455.842 105.177C455.547 105.177 454.517 105.569 454.492 106.035C454.499 106.109 454.522 106.181 454.56 106.245C454.599 106.309 454.651 106.363 454.713 106.403C469.214 120.856 497.186 149.318 500.155 152.434C500.837 153.116 501.461 153.855 502.02 154.642C503.252 156.363 503.915 158.427 503.915 160.543C503.915 162.66 503.252 164.724 502.02 166.444C501.455 167.219 500.831 167.949 500.155 168.628C497.186 171.548 469.214 200.01 454.787 214.463C454.668 214.551 454.588 214.684 454.566 214.831C454.566 215.272 455.155 215.64 455.327 215.738C456.431 216.401 459.939 215.15 461.215 214.364C467.08 210.88 503.811 171.99 508.056 167.524C509.893 165.614 510.944 163.083 511 160.433" fill="white"/>
<path d="M493.874 151.305L492.279 149.686C479.496 136.289 457.928 114.82 449.242 106.134L443.746 100.588L443.501 100.368C441.58 98.1457 438.906 96.7125 435.992 96.3435C435.011 96.1718 434.005 96.0736 432.999 96H410.082C409.419 95.9645 408.761 96.132 408.196 96.48C407.631 96.828 407.185 97.3401 406.919 97.948C406.652 98.5558 406.577 99.2305 406.704 99.882C406.831 100.533 407.153 101.131 407.628 101.594C408.56 102.6 436.336 130.155 452.972 147.355C453.61 147.993 454.468 148.925 455.425 150.079C458.37 153.587 461.78 157.243 461.707 160.801C461.707 163.598 459.817 166.297 456.48 169.806C440.605 186.417 408.585 218.192 407.579 219.272C407.104 219.735 406.782 220.333 406.655 220.984C406.528 221.636 406.603 222.31 406.87 222.918C407.136 223.526 407.582 224.038 408.147 224.386C408.712 224.734 409.37 224.902 410.033 224.866H432.95C433.954 224.814 434.954 224.699 435.943 224.523C438.857 224.154 441.531 222.72 443.451 220.499L443.697 220.278L449.193 214.732C457.928 206.047 479.447 184.602 492.23 171.205L493.825 169.561C495.142 168.432 496.198 167.032 496.923 165.456C497.647 163.881 498.022 162.167 498.022 160.433C498.022 158.699 497.647 156.985 496.923 155.41C496.198 153.834 495.142 152.434 493.825 151.305" fill="white"/>
<path d="M450.787 149.98L444.678 143.92C444.476 143.71 444.234 143.543 443.966 143.429C443.699 143.314 443.411 143.255 443.119 143.255C442.828 143.255 442.54 143.314 442.273 143.429C442.005 143.543 441.763 143.71 441.561 143.92C438.911 146.619 436.458 149.195 434.2 151.477C427.796 158.225 428.066 164.899 433.783 170.689L440.85 177.854C441.057 178.062 441.304 178.228 441.575 178.341C441.847 178.454 442.138 178.512 442.432 178.512C442.727 178.512 443.018 178.454 443.289 178.341C443.561 178.228 443.808 178.062 444.015 177.854C446.837 174.959 449.487 172.235 451.793 169.83C458.811 162.469 459.154 158.691 450.738 150.201" fill="white"/>
<path d="M252.706 142.153C254.32 141.826 255.966 141.686 257.613 141.736C262.25 141.736 266.176 143.478 266.176 148.901C266.176 154.323 261.416 159.133 254.178 159.133C252.646 159.151 251.117 159.011 249.614 158.715L252.706 142.153ZM232.144 188.773H243.872L247.7 168.53C249.326 168.757 250.966 168.872 252.607 168.874C259.033 169.159 265.374 167.313 270.642 163.623C273.057 161.764 275.006 159.368 276.335 156.626C277.663 153.883 278.335 150.869 278.297 147.821C278.381 145.48 277.867 143.156 276.802 141.069C275.737 138.982 274.157 137.202 272.212 135.896C267.729 133.2 262.543 131.901 257.318 132.167C252.37 132.112 247.432 132.614 242.596 133.664L232.144 188.773ZM191.781 184.7C194.407 186.663 199.829 188.527 207.485 188.699C219.753 188.699 229.764 182.344 229.764 170.149C229.764 163.647 225.519 159.182 218.87 155.673C214.232 153.072 210.895 151.134 210.895 147.944C210.895 144.754 213.741 142.178 219.189 142.178C222.755 142.155 226.274 142.997 229.445 144.631L233.101 134.817C229.103 132.789 224.648 131.833 220.17 132.044C208.221 132.044 198.529 138.792 198.529 149.858C198.529 156.998 204.074 161.243 209.914 164.408C214.968 167.009 217.275 169.045 217.275 172.137C217.275 176.455 213.128 178.566 208.564 178.566C204.02 178.559 199.558 177.348 195.633 175.057L191.781 184.7ZM313.924 154.52H293.755L296.111 142.423H317.458L319.47 132.093H285.953L275.206 188.699H309.9L311.814 178.369H289.24L291.841 164.678H311.986L313.924 154.52ZM353.158 154.52H332.989L335.345 142.423H356.667L358.679 132.093H325.187L314.44 188.699H349.11L351.048 178.369H328.45L331.051 164.678H351.22L353.158 154.52ZM374.505 142.055C376.176 141.789 377.868 141.674 379.56 141.712C389.374 141.712 394.281 146.938 394.281 155.697C394.472 161.825 392.382 167.805 388.417 172.48C386.41 174.643 383.958 176.346 381.231 177.473C378.503 178.6 375.564 179.123 372.616 179.007C370.877 179.008 369.14 178.901 367.414 178.688L374.505 142.055ZM353.845 187.62C358.88 188.378 363.967 188.739 369.058 188.699C381.13 188.699 389.325 186.393 395.778 181.338C399.49 178.202 402.449 174.272 404.437 169.838C406.425 165.404 407.39 160.579 407.261 155.722C407.261 147.527 404.366 141.981 399.9 138.252C395.435 134.522 388.245 132.216 379.56 132.216C374.405 132.191 369.258 132.609 364.175 133.467L353.845 187.62Z" fill="white"/>
</g>
<defs>
<clipPath id="clip0_225_263">
<rect width="454" height="128.866" fill="white" transform="translate(57 96)"/>
</clipPath>
</defs>
</svg>
