<svg width="568" height="320" viewBox="0 0 568 320" fill="none" xmlns="http://www.w3.org/2000/svg">
<path fill-rule="evenodd" clip-rule="evenodd" d="M106.792 95.1107C106.335 95.1646 105.548 95.3001 105.043 95.4119C104.538 95.5235 103.785 95.7424 103.37 95.8981C102.954 96.054 102.173 96.4038 101.634 96.6755C101.096 96.9473 100.35 97.3769 99.9766 97.6305C99.6036 97.8838 98.9191 98.4344 98.4555 98.8537C97.992 99.2731 97.3103 99.9764 96.9406 100.417C96.571 100.857 96.0109 101.631 95.696 102.136C95.3811 102.642 94.9422 103.485 94.7206 104.011C94.4991 104.537 94.2061 105.368 94.0698 105.858C93.9334 106.348 93.4399 109.056 92.9732 111.876C92.5064 114.697 92.0966 117.127 92.0622 117.276L92 117.548H104.608H117.216L117.154 117.819C117.121 117.968 116.823 119.801 116.492 121.891C116.162 123.982 115.507 128.163 115.038 131.182C114.569 134.202 114.026 137.649 113.832 138.844C113.637 140.038 113.099 143.459 112.635 146.445C112.17 149.432 111.627 152.907 111.426 154.168C111.188 155.665 111.061 156.905 111.061 157.742C111.06 158.446 111.143 159.505 111.245 160.094C111.347 160.684 111.561 161.6 111.722 162.131C111.883 162.662 112.281 163.64 112.606 164.303C112.931 164.967 113.534 165.963 113.946 166.516C114.357 167.07 115.034 167.857 115.449 168.266C115.864 168.675 116.498 169.235 116.858 169.512C117.218 169.789 117.877 170.236 118.323 170.506C118.769 170.777 119.608 171.194 120.188 171.434C120.768 171.675 121.76 172.012 122.393 172.184L123.543 172.497L129.349 172.54L135.154 172.583L135.286 171.821C135.358 171.403 136.017 167.232 136.751 162.554C137.484 157.875 138.623 150.626 139.28 146.445C139.938 142.265 141.109 134.826 141.882 129.915C142.655 125.004 143.407 120.226 143.552 119.297L143.816 117.608H170.102C194.961 117.608 196.443 117.62 197.395 117.825C197.949 117.944 198.686 118.149 199.033 118.278C199.38 118.408 199.892 118.71 200.171 118.949C200.45 119.188 200.799 119.608 200.946 119.883C201.188 120.336 201.213 120.553 201.211 122.193C201.21 123.745 201.17 124.132 200.929 124.908C200.775 125.405 200.509 126.071 200.338 126.387C200.167 126.703 199.747 127.227 199.403 127.552C199.06 127.877 198.458 128.304 198.066 128.502C197.674 128.7 197.055 128.952 196.69 129.062C196.325 129.172 195.511 129.35 194.881 129.457C193.902 129.625 192 129.665 181.795 129.735C171.276 129.807 169.757 129.841 169.032 130.017C168.58 130.127 167.805 130.353 167.312 130.518C166.818 130.684 165.939 131.059 165.358 131.35C164.777 131.642 163.842 132.221 163.28 132.636C162.717 133.052 161.92 133.739 161.508 134.164C161.096 134.589 160.483 135.3 160.145 135.744C159.808 136.188 159.21 137.203 158.817 137.999C158.425 138.796 157.967 139.936 157.801 140.533C157.634 141.13 157.037 144.551 156.474 148.135C155.911 151.718 154.824 158.612 154.06 163.455C153.295 168.297 152.669 172.329 152.669 172.414C152.669 172.538 155.244 172.568 165.969 172.568H179.27L180.207 166.565C180.722 163.264 181.535 158.106 182.012 155.103L182.88 149.643H184.412H185.945L186.057 150.035C186.119 150.251 186.749 152.409 187.457 154.831C188.166 157.254 188.963 159.968 189.231 160.864C189.498 161.76 189.874 162.9 190.066 163.398C190.258 163.896 190.622 164.658 190.876 165.092C191.13 165.525 191.562 166.184 191.837 166.556C192.111 166.928 192.646 167.567 193.024 167.976C193.403 168.385 194.235 169.114 194.874 169.595C195.513 170.076 196.549 170.72 197.177 171.025C197.805 171.331 198.756 171.718 199.292 171.885C199.828 172.052 200.716 172.274 201.265 172.379C202.145 172.546 204.381 172.568 220.027 172.568C235.735 172.568 237.907 172.546 238.798 172.377C239.353 172.272 240.295 172.029 240.892 171.838C241.489 171.647 242.458 171.245 243.045 170.945C243.632 170.646 244.473 170.145 244.914 169.832C245.355 169.52 246.205 168.772 246.802 168.17C247.399 167.568 248.192 166.615 248.564 166.052C248.936 165.488 249.358 164.796 249.501 164.513C249.645 164.231 250.406 162.357 251.193 160.35C251.98 158.344 253.195 155.236 253.893 153.444C254.591 151.652 255.85 148.421 256.691 146.265C257.532 144.108 258.845 140.741 259.608 138.784C260.372 136.826 261.537 133.84 262.197 132.147C262.856 130.455 264.053 127.387 264.856 125.33C265.66 123.273 266.575 120.938 266.889 120.142C267.428 118.779 267.466 118.719 267.531 119.116C267.569 119.348 267.901 122.905 268.269 127.019C268.636 131.134 269.152 136.808 269.414 139.628C269.677 142.449 270.192 148.096 270.558 152.177C270.925 156.258 271.31 160.032 271.414 160.563C271.518 161.094 271.739 161.935 271.904 162.433C272.07 162.931 272.449 163.831 272.748 164.434C273.046 165.038 273.633 165.988 274.053 166.547C274.472 167.105 275.247 167.976 275.776 168.481C276.304 168.987 277.161 169.686 277.679 170.036C278.198 170.386 279.06 170.878 279.596 171.129C280.133 171.38 281.005 171.728 281.536 171.901C282.067 172.075 282.968 172.297 283.539 172.396C284.442 172.552 288.132 172.57 311.821 172.537C336.817 172.501 339.209 172.481 340.814 172.288C341.776 172.173 343.294 171.97 344.188 171.838C345.082 171.706 346.493 171.459 347.324 171.288C348.154 171.118 349.431 170.824 350.161 170.636C350.89 170.447 352.07 170.102 352.783 169.868C353.495 169.634 354.795 169.159 355.672 168.814C356.548 168.469 357.919 167.855 358.718 167.45C359.517 167.045 360.758 166.361 361.475 165.93C362.192 165.5 363.359 164.719 364.068 164.195C364.777 163.671 365.887 162.782 366.536 162.219C367.184 161.656 368.181 160.7 368.752 160.095C369.322 159.49 370.226 158.451 370.761 157.788C371.296 157.124 372.206 155.862 372.784 154.983C373.361 154.103 374.295 152.475 374.859 151.363C375.424 150.251 376.185 148.581 376.551 147.652C376.917 146.723 377.439 145.235 377.712 144.346C377.984 143.457 378.366 142.099 378.56 141.33C378.754 140.56 379.048 139.197 379.213 138.301C379.377 137.405 379.598 136.055 379.702 135.301C379.807 134.546 379.975 133.053 380.076 131.982C380.177 130.912 380.292 128.57 380.333 126.778C380.379 124.705 380.354 122.84 380.264 121.65C380.186 120.621 380.039 119.21 379.939 118.513C379.839 117.816 379.619 116.621 379.45 115.858C379.282 115.095 378.928 113.819 378.664 113.023C378.4 112.226 377.814 110.805 377.361 109.865C376.908 108.924 376.155 107.594 375.687 106.909C375.218 106.223 374.424 105.189 373.922 104.61C373.42 104.031 372.536 103.145 371.957 102.641C371.378 102.137 370.281 101.305 369.518 100.792C368.755 100.28 367.534 99.5564 366.804 99.1852C366.075 98.8139 364.853 98.2649 364.091 97.965C363.328 97.6653 362.128 97.2529 361.426 97.0485C360.723 96.8442 359.583 96.5438 358.893 96.381C358.203 96.2183 356.987 95.9755 356.191 95.8417C355.395 95.708 354.011 95.5144 353.115 95.4119C352.22 95.3092 350.185 95.1671 348.593 95.0959C346.826 95.017 341.423 94.9846 334.723 95.0127C324.105 95.0575 323.713 95.0672 322.663 95.3111C322.066 95.4498 321.17 95.7112 320.673 95.8921C320.175 96.0731 319.388 96.4118 318.924 96.6449C318.459 96.878 317.7 97.3253 317.235 97.6389C316.771 97.9525 315.969 98.6031 315.453 99.0848C314.938 99.5666 314.175 100.414 313.76 100.969C313.344 101.523 312.778 102.401 312.501 102.919C312.225 103.437 311.807 104.436 311.572 105.139C311.232 106.156 310.95 107.605 310.189 112.253C309.663 115.464 308.686 121.457 308.018 125.571C307.35 129.686 306.396 135.561 305.899 138.628C305.401 141.695 304.994 144.264 304.994 144.338C304.994 144.435 307.17 144.458 312.924 144.423C320.582 144.375 320.895 144.364 322.06 144.105C322.723 143.958 323.808 143.62 324.472 143.356C325.135 143.091 326.058 142.651 326.522 142.378C326.986 142.104 327.692 141.634 328.09 141.332C328.488 141.03 329.226 140.368 329.729 139.86C330.233 139.353 330.952 138.477 331.326 137.914C331.701 137.35 332.248 136.379 332.541 135.755C332.835 135.131 333.199 134.165 333.35 133.607C333.502 133.049 334.225 129.004 334.958 124.618L336.291 116.643L340.633 116.608C343.274 116.587 345.369 116.625 345.981 116.704C346.535 116.777 347.295 116.949 347.67 117.087C348.045 117.225 348.714 117.577 349.158 117.869C349.601 118.161 350.178 118.656 350.44 118.969C350.702 119.282 351.075 119.81 351.27 120.142C351.464 120.473 351.791 121.152 351.996 121.65C352.202 122.148 352.483 123.081 352.621 123.724C352.759 124.366 352.936 125.684 353.015 126.653C353.125 128.006 353.125 128.885 353.016 130.453C352.938 131.575 352.74 133.216 352.577 134.1C352.413 134.984 352.148 136.141 351.988 136.672C351.828 137.203 351.494 138.18 351.245 138.844C350.997 139.508 350.533 140.571 350.214 141.208C349.896 141.844 349.24 142.957 348.758 143.681C348.174 144.558 347.435 145.443 346.548 146.329C345.815 147.062 344.792 147.943 344.275 148.288C343.757 148.632 342.932 149.105 342.441 149.338C341.951 149.571 341.093 149.894 340.535 150.055C339.977 150.217 339.102 150.408 338.59 150.479C337.959 150.567 331.128 150.608 317.287 150.608C306.081 150.608 296.913 150.565 296.913 150.512C296.913 150.459 296.613 148.382 296.245 145.897C295.877 143.411 295.038 137.713 294.38 133.233C293.722 128.754 292.802 122.482 292.334 119.297C291.867 116.112 291.266 112.026 290.999 110.218C290.732 108.41 290.38 106.467 290.215 105.901C290.051 105.334 289.783 104.541 289.619 104.138C289.456 103.735 289.127 103.057 288.89 102.632C288.652 102.206 288.135 101.43 287.74 100.907C287.346 100.383 286.603 99.5621 286.089 99.082C285.575 98.6019 284.774 97.9521 284.309 97.6382C283.844 97.3242 283.03 96.8507 282.5 96.5858C281.97 96.3209 281.101 95.9604 280.568 95.7846C280.036 95.6089 279.195 95.3769 278.699 95.2693C277.95 95.1064 276.688 95.064 271.224 95.018C266.84 94.9812 264.22 95.0078 263.356 95.0979C262.643 95.1721 261.539 95.3651 260.903 95.5266C260.266 95.6881 259.176 96.0924 258.48 96.4251C257.784 96.7578 256.825 97.2881 256.35 97.6037C255.874 97.9192 255.029 98.6126 254.471 99.1447C253.913 99.6768 253.149 100.526 252.772 101.032C252.394 101.538 251.812 102.488 251.478 103.144C251.143 103.799 250.557 105.014 250.176 105.844C249.795 106.673 248.588 109.279 247.494 111.635C246.4 113.991 245.003 117.005 244.39 118.332C243.776 119.659 242.555 122.292 241.676 124.184C240.796 126.075 239.568 128.722 238.947 130.066C238.325 131.41 237.308 133.609 236.685 134.953C236.063 136.297 234.835 138.943 233.956 140.835C233.077 142.726 231.857 145.36 231.245 146.687C230.633 148.014 229.977 149.412 229.788 149.794L229.445 150.488H221.646H213.848L213.046 148.225C212.604 146.981 212.245 145.899 212.246 145.822C212.247 145.744 212.704 145.432 213.262 145.128C213.82 144.824 214.838 144.204 215.524 143.752C216.21 143.299 217.314 142.491 217.977 141.956C218.64 141.421 219.755 140.393 220.454 139.672C221.154 138.951 222.057 137.925 222.461 137.391C222.866 136.857 223.498 135.957 223.867 135.39C224.236 134.824 224.862 133.713 225.257 132.922C225.653 132.131 226.138 131.076 226.335 130.579C226.533 130.081 226.891 129.049 227.133 128.286C227.374 127.523 227.729 126.138 227.922 125.209C228.115 124.28 228.358 122.907 228.462 122.157C228.566 121.407 228.708 119.739 228.777 118.451C228.866 116.813 228.865 115.531 228.776 114.19C228.706 113.135 228.539 111.66 228.404 110.913C228.27 110.165 227.966 108.949 227.729 108.211C227.492 107.473 227.064 106.396 226.779 105.818C226.493 105.24 225.972 104.351 225.621 103.842C225.269 103.334 224.611 102.52 224.157 102.035C223.704 101.549 222.833 100.773 222.223 100.311C221.612 99.8481 220.57 99.1683 219.907 98.7999C219.243 98.4316 218.158 97.9136 217.495 97.6488C216.831 97.3841 215.613 96.973 214.787 96.7352C213.961 96.4975 212.631 96.171 211.832 96.0096C211.033 95.8483 209.728 95.6324 208.932 95.53C208.136 95.4274 206.887 95.2813 206.158 95.2054C205.19 95.1047 191.695 95.0599 156.227 95.04C129.495 95.025 107.249 95.0569 106.792 95.1107ZM403.529 95.1172C403.031 95.1751 402.081 95.3604 401.418 95.5288C400.674 95.7177 399.652 96.1087 398.75 96.5495C397.947 96.9423 396.859 97.5876 396.335 97.9833C395.81 98.3789 394.968 99.1341 394.465 99.6613C393.961 100.189 393.263 101.044 392.914 101.562C392.564 102.08 392.045 102.998 391.76 103.601C391.475 104.204 391.104 105.172 390.937 105.752C390.769 106.332 390.166 109.78 389.596 113.414C389.026 117.048 388.293 121.677 387.968 123.701C387.643 125.725 387.182 128.63 386.945 130.156C386.707 131.683 386.028 135.972 385.437 139.689C384.845 143.405 384.007 148.709 383.573 151.476C382.974 155.298 382.784 156.808 382.784 157.764C382.784 158.457 382.868 159.505 382.969 160.094C383.071 160.684 383.286 161.6 383.446 162.131C383.607 162.662 384.005 163.64 384.33 164.303C384.656 164.967 385.259 165.963 385.67 166.516C386.082 167.07 386.758 167.857 387.173 168.266C387.588 168.675 388.222 169.235 388.582 169.512C388.942 169.789 389.601 170.236 390.047 170.506C390.493 170.777 391.332 171.194 391.912 171.434C392.492 171.675 393.484 172.015 394.117 172.19L395.267 172.508L416.91 172.54C435.61 172.568 438.694 172.548 439.591 172.394C440.162 172.295 441.133 172.05 441.749 171.848C442.364 171.647 443.364 171.226 443.97 170.913C444.577 170.599 445.481 170.035 445.981 169.659C446.48 169.282 447.337 168.507 447.885 167.936C448.433 167.365 449.181 166.437 449.547 165.875C449.914 165.313 450.393 164.458 450.612 163.975C450.831 163.492 451.125 162.744 451.266 162.312C451.407 161.881 451.575 161.284 451.639 160.985C451.703 160.686 452.086 158.324 452.489 155.736C452.893 153.148 453.25 150.908 453.283 150.759L453.343 150.488H431.933C414.885 150.488 410.524 150.457 410.525 150.337C410.525 150.254 410.715 149.019 410.946 147.592C411.177 146.165 411.395 144.875 411.43 144.726L411.493 144.455H426.614C436.22 144.455 442.181 144.409 442.957 144.329C443.63 144.26 444.694 144.073 445.322 143.914C445.95 143.754 446.978 143.398 447.606 143.123C448.234 142.847 449.225 142.306 449.807 141.919C450.39 141.533 451.259 140.856 451.739 140.414C452.219 139.973 453.009 139.084 453.495 138.439C453.98 137.794 454.627 136.753 454.932 136.125C455.237 135.497 455.632 134.521 455.809 133.957C455.985 133.393 456.285 131.981 456.475 130.82C456.665 129.659 457.175 126.428 457.609 123.641C458.043 120.854 458.653 117.026 458.964 115.134C459.468 112.073 459.53 111.49 459.528 109.825C459.527 108.524 459.465 107.68 459.325 107.05C459.214 106.552 458.986 105.731 458.819 105.225C458.652 104.719 458.286 103.85 458.006 103.294C457.726 102.739 457.298 101.985 457.054 101.62C456.81 101.255 456.306 100.604 455.934 100.173C455.561 99.7411 454.893 99.072 454.448 98.6854C454.004 98.2989 453.315 97.7667 452.917 97.5027C452.519 97.2388 451.757 96.8097 451.225 96.5493C450.693 96.289 449.933 95.9628 449.537 95.8245C449.14 95.6863 448.327 95.4564 447.73 95.3138L446.645 95.0544L425.539 95.0331C413.931 95.0214 404.026 95.0593 403.529 95.1172ZM467.932 95.1069C467.633 95.1589 467.078 95.3191 466.697 95.463C466.316 95.607 465.681 95.9679 465.286 96.2651C464.89 96.5621 464.375 97.0676 464.14 97.3882C463.904 97.7088 463.549 98.32 463.349 98.7466C463.138 99.1979 462.943 99.8724 462.882 100.36C462.823 100.825 462.822 101.53 462.879 101.943C462.935 102.353 463.086 102.964 463.214 103.3C463.341 103.637 463.588 104.155 463.762 104.451C463.936 104.748 464.347 105.256 464.677 105.581C465.006 105.905 465.599 106.343 465.995 106.554C466.391 106.765 466.975 107.017 467.293 107.113C467.627 107.215 468.356 107.288 469.017 107.288C469.923 107.287 470.339 107.224 471.002 106.99C471.463 106.827 472.132 106.494 472.487 106.249C472.842 106.004 473.349 105.555 473.612 105.25C473.875 104.946 474.28 104.317 474.51 103.853C474.794 103.281 474.976 102.691 475.071 102.029C475.182 101.261 475.18 100.865 475.06 100.195C474.976 99.7249 474.721 98.9519 474.494 98.4771C474.215 97.8955 473.833 97.3668 473.324 96.8569C472.88 96.4132 472.25 95.9399 471.802 95.7134C471.381 95.5009 470.677 95.2508 470.238 95.1576C469.799 95.0645 469.222 94.9938 468.957 95.0004C468.692 95.0071 468.23 95.055 467.932 95.1069ZM470.212 95.6526C470.637 95.7527 471.3 96.0028 471.685 96.208C472.07 96.4134 472.687 96.8986 473.057 97.2864C473.443 97.6909 473.885 98.3239 474.094 98.771C474.294 99.1996 474.519 99.9126 474.592 100.355C474.689 100.941 474.689 101.393 474.593 102.014C474.513 102.531 474.291 103.213 474.03 103.74C473.729 104.35 473.382 104.813 472.876 105.282C472.478 105.651 471.812 106.115 471.395 106.314C470.979 106.512 470.262 106.735 469.802 106.809C469.184 106.907 468.752 106.907 468.153 106.805C467.707 106.73 466.972 106.489 466.521 106.27C466.07 106.051 465.476 105.676 465.201 105.437C464.926 105.198 464.509 104.713 464.275 104.36C464.041 104.008 463.732 103.369 463.588 102.941C463.403 102.395 463.326 101.877 463.328 101.198C463.33 100.564 463.417 99.9571 463.582 99.4298C463.726 98.971 464.059 98.3217 464.358 97.9144C464.647 97.5225 465.086 97.0341 465.334 96.8293C465.583 96.6245 466.052 96.3121 466.377 96.1352C466.701 95.9583 467.306 95.7398 467.721 95.6497C468.135 95.5597 468.692 95.4825 468.957 95.4781C469.222 95.4739 469.787 95.5523 470.212 95.6526ZM465.942 97.5342C465.907 97.6263 465.892 99.3029 465.91 101.26L465.942 104.818H466.545H467.148L467.182 103.515L467.217 102.213L468.016 102.248L468.816 102.284L469.735 103.551L470.654 104.818L471.343 104.854C471.742 104.875 472.032 104.84 472.032 104.771C472.032 104.705 471.618 104.076 471.111 103.374C470.604 102.671 470.211 102.079 470.237 102.058C470.263 102.037 470.502 101.9 470.768 101.754C471.035 101.607 471.382 101.298 471.54 101.067C471.711 100.818 471.851 100.404 471.885 100.046C471.923 99.6513 471.874 99.2643 471.744 98.9216C471.634 98.6341 471.422 98.2848 471.274 98.1452C471.126 98.0057 470.788 97.7989 470.523 97.6857C470.157 97.5291 469.56 97.4664 468.025 97.4233C466.375 97.3769 465.995 97.3972 465.942 97.5342ZM469.916 98.7747C470.141 98.8687 470.383 99.0551 470.455 99.1891C470.527 99.3231 470.585 99.6142 470.585 99.8361C470.585 100.058 470.497 100.366 470.388 100.52C470.28 100.675 470.011 100.877 469.789 100.97C469.546 101.071 468.956 101.138 468.298 101.138H467.208V99.8709V98.6039H468.358C469.076 98.6039 469.661 98.668 469.916 98.7747ZM433.156 117.397C433.124 117.513 432.892 118.925 432.641 120.534L432.184 123.46H423.462H414.74L414.805 123.188C414.841 123.039 415.086 121.678 415.35 120.164C415.614 118.65 415.83 117.36 415.83 117.298C415.83 117.229 419.207 117.186 424.522 117.186C432.741 117.186 433.211 117.197 433.156 117.397ZM226.667 192.749C226.641 192.832 226.314 194.854 225.939 197.243C225.565 199.632 224.692 205.168 224 209.544C223.307 213.92 222.741 217.573 222.741 217.662C222.741 217.79 223.071 217.816 224.339 217.789L225.937 217.755L226.569 213.749L227.201 209.742L227.749 208.814C228.051 208.304 228.633 207.419 229.043 206.848C229.453 206.277 230.306 205.287 230.938 204.647C231.571 204.008 232.421 203.271 232.828 203.009C233.236 202.747 233.878 202.436 234.256 202.317C234.694 202.179 235.141 202.123 235.489 202.163C235.789 202.196 236.174 202.328 236.345 202.455C236.515 202.583 236.763 202.897 236.896 203.153C237.06 203.469 237.155 203.935 237.189 204.594C237.223 205.235 237.15 206.146 236.977 207.258C236.832 208.187 236.419 210.82 236.06 213.11C235.7 215.399 235.377 217.395 235.343 217.544C235.279 217.815 235.281 217.816 236.91 217.816C237.806 217.816 238.54 217.776 238.54 217.728C238.54 217.679 238.977 214.896 239.511 211.544C240.259 206.847 240.483 205.164 240.485 204.211C240.486 203.415 240.416 202.727 240.288 202.281C240.178 201.899 239.927 201.333 239.73 201.023C239.533 200.713 239.178 200.312 238.941 200.131C238.705 199.951 238.233 199.695 237.893 199.563C237.457 199.394 236.97 199.321 236.249 199.316C235.685 199.312 234.925 199.381 234.56 199.469C234.195 199.557 233.564 199.778 233.157 199.96C232.75 200.143 232.071 200.526 231.649 200.812C231.227 201.097 230.448 201.77 229.917 202.307C229.386 202.843 228.74 203.593 228.48 203.973C228.22 204.353 227.987 204.644 227.962 204.619C227.937 204.594 228.001 204.2 228.104 203.744C228.207 203.288 228.643 200.689 229.074 197.969C229.504 195.249 229.857 192.928 229.857 192.811C229.857 192.618 229.707 192.598 228.285 192.598C227.133 192.598 226.701 192.638 226.667 192.749ZM311.207 192.749C311.179 192.832 310.988 193.985 310.782 195.313C310.577 196.64 309.867 201.174 309.206 205.388C308.545 209.602 307.946 213.455 307.876 213.95C307.806 214.445 307.785 215.094 307.829 215.392C307.874 215.691 308.021 216.17 308.156 216.457C308.291 216.744 308.598 217.141 308.838 217.341C309.079 217.54 309.649 217.818 310.105 217.957C310.806 218.171 311.131 218.2 312.215 218.145C313.012 218.104 313.799 217.983 314.297 217.826C315.035 217.593 315.104 217.542 315.168 217.182C315.206 216.966 315.273 216.377 315.317 215.873L315.396 214.956L314.567 215.172C314.111 215.291 313.412 215.392 313.014 215.395C312.554 215.4 312.137 215.325 311.87 215.191C311.639 215.075 311.379 214.844 311.292 214.679C311.193 214.487 311.152 214.09 311.182 213.593C311.208 213.161 311.674 210.012 312.217 206.594C312.761 203.177 313.474 198.715 313.803 196.679C314.132 194.643 314.401 192.892 314.401 192.788C314.401 192.625 314.179 192.598 312.829 192.598C311.68 192.598 311.244 192.638 311.207 192.749ZM156.119 195.463C156.084 195.58 155.917 196.265 155.748 196.987C155.579 197.709 155.356 198.591 155.253 198.948L155.064 199.596H153.763H152.461L152.317 200.531C152.238 201.046 152.143 201.643 152.106 201.858L152.039 202.251H153.319C154.023 202.251 154.599 202.273 154.599 202.301C154.599 202.328 154.244 204.622 153.811 207.399C153.378 210.175 152.964 212.878 152.892 213.405C152.792 214.129 152.796 214.567 152.907 215.189C153.005 215.736 153.182 216.204 153.435 216.579C153.644 216.89 154.059 217.294 154.358 217.476C154.656 217.658 155.224 217.891 155.619 217.993C156.014 218.094 156.783 218.178 157.327 218.178C157.871 218.178 158.741 218.096 159.259 217.997C159.778 217.898 160.474 217.728 160.807 217.619C161.14 217.51 161.426 217.411 161.441 217.399C161.457 217.387 161.525 216.946 161.592 216.42C161.66 215.893 161.742 215.262 161.775 215.017L161.836 214.572L160.961 214.875C160.377 215.077 159.706 215.2 158.941 215.244C158.258 215.284 157.597 215.257 157.305 215.177C157.035 215.103 156.687 214.907 156.531 214.741C156.328 214.526 156.233 214.257 156.197 213.805C156.164 213.394 156.426 211.361 156.94 208.042C157.377 205.222 157.766 202.765 157.804 202.582L157.874 202.251H160.622H163.37L163.576 201.195C163.69 200.614 163.811 200.018 163.846 199.87L163.911 199.601L161.088 199.568L158.267 199.536L158.597 197.545C158.778 196.45 158.93 195.486 158.934 195.403C158.939 195.291 158.588 195.252 157.562 195.252C156.353 195.252 156.175 195.278 156.119 195.463ZM207.858 199.365C207.4 199.428 206.694 199.564 206.29 199.669C205.886 199.773 205.168 200.037 204.696 200.255C204.223 200.474 203.518 200.869 203.128 201.135C202.738 201.401 202.111 201.942 201.735 202.337C201.359 202.733 200.834 203.393 200.569 203.804C200.304 204.214 199.919 204.953 199.714 205.445C199.51 205.937 199.223 206.817 199.077 207.402C198.857 208.285 198.811 208.812 198.809 210.516C198.807 212.134 198.852 212.733 199.025 213.351C199.145 213.783 199.436 214.503 199.671 214.952C199.939 215.462 200.362 216.011 200.801 216.418C201.188 216.776 201.791 217.205 202.142 217.371C202.493 217.537 203.106 217.762 203.504 217.872C203.904 217.981 204.93 218.101 205.796 218.137C206.92 218.186 207.756 218.149 208.751 218.007C209.514 217.898 210.436 217.742 210.801 217.659L211.464 217.509L211.616 216.135C211.7 215.38 211.752 214.746 211.733 214.726C211.713 214.706 211.048 214.827 210.254 214.994C209.199 215.215 208.389 215.303 207.243 215.318C206.063 215.334 205.511 215.288 205.012 215.134C204.647 215.022 204.09 214.765 203.774 214.564C203.449 214.358 203.041 213.95 202.835 213.624C202.634 213.308 202.377 212.751 202.263 212.386C202.11 211.894 202.058 211.302 202.062 210.093C202.065 208.953 202.129 208.229 202.274 207.68C202.387 207.249 202.703 206.441 202.976 205.884C203.329 205.163 203.69 204.654 204.234 204.11C204.718 203.626 205.309 203.19 205.849 202.918C206.318 202.681 207.068 202.402 207.515 202.296C208.134 202.15 208.69 202.12 209.836 202.17C210.714 202.209 211.747 202.337 212.309 202.476C212.839 202.608 213.36 202.75 213.467 202.791C213.627 202.853 213.704 202.659 213.919 201.649C214.061 200.979 214.178 200.327 214.178 200.199C214.178 200.033 214.05 199.933 213.726 199.847C213.477 199.78 212.812 199.647 212.248 199.551C211.684 199.455 210.653 199.349 209.957 199.314C209.26 199.28 208.316 199.303 207.858 199.365ZM263.168 199.416C262.683 199.503 261.874 199.771 261.369 200.011C260.865 200.251 260.121 200.683 259.717 200.972C259.313 201.26 258.575 201.924 258.076 202.447C257.577 202.969 256.905 203.766 256.584 204.217C256.262 204.668 255.983 205.021 255.963 205.001C255.943 204.981 256.028 204.014 256.153 202.853C256.277 201.692 256.411 200.484 256.449 200.169L256.519 199.596H255.2H253.882L253.74 200.411C253.662 200.859 253.032 204.809 252.341 209.189C251.649 213.568 251.052 217.301 251.013 217.484L250.943 217.816H252.568H254.193L254.314 217.122C254.38 216.74 254.665 214.935 254.946 213.11L255.458 209.792L256.063 208.766C256.395 208.202 257.039 207.244 257.493 206.637C257.947 206.03 258.658 205.184 259.073 204.758C259.488 204.332 260.126 203.748 260.49 203.461C260.855 203.174 261.476 202.786 261.869 202.599C262.263 202.412 262.824 202.223 263.117 202.179C263.419 202.134 263.849 202.159 264.109 202.237C264.362 202.312 264.731 202.559 264.929 202.785C265.205 203.1 265.324 203.399 265.437 204.069C265.566 204.837 265.552 205.165 265.323 206.764C265.18 207.766 264.765 210.431 264.401 212.688C264.037 214.944 263.707 217.021 263.666 217.303L263.593 217.816H265.175C266.718 217.816 266.759 217.809 266.818 217.544C266.852 217.395 267.149 215.59 267.479 213.532C267.808 211.475 268.243 208.722 268.445 207.414C268.647 206.107 268.812 204.657 268.812 204.193C268.812 203.728 268.751 203.062 268.676 202.712C268.601 202.363 268.442 201.849 268.323 201.57C268.203 201.291 267.902 200.838 267.652 200.562C267.403 200.286 266.944 199.931 266.632 199.772C266.321 199.614 265.72 199.429 265.298 199.36C264.876 199.292 264.422 199.24 264.29 199.246C264.157 199.251 263.652 199.328 263.168 199.416ZM288.37 199.362C287.883 199.422 287.029 199.628 286.473 199.82C285.916 200.012 285.078 200.396 284.61 200.674C284.143 200.952 283.404 201.513 282.968 201.921C282.533 202.328 281.937 202.998 281.643 203.41C281.349 203.822 280.897 204.612 280.638 205.165C280.379 205.719 280.054 206.604 279.916 207.132C279.778 207.66 279.605 208.583 279.531 209.183C279.457 209.785 279.432 210.772 279.474 211.384C279.516 211.994 279.675 212.925 279.828 213.454C279.982 213.983 280.293 214.725 280.52 215.103C280.747 215.481 281.219 216.053 281.569 216.375C281.919 216.696 282.544 217.124 282.956 217.325C283.369 217.526 284.06 217.785 284.491 217.901C285.066 218.055 285.741 218.111 287.024 218.11C288.313 218.11 288.994 218.052 289.617 217.892C290.081 217.773 291.008 217.411 291.676 217.09C292.608 216.641 293.108 216.303 293.818 215.639C294.331 215.16 295.058 214.304 295.448 213.721C295.862 213.101 296.313 212.224 296.542 211.591C296.756 211 297.02 210.109 297.129 209.611C297.264 209 297.329 208.117 297.332 206.896C297.334 205.764 297.274 204.837 297.172 204.422C297.081 204.057 296.815 203.352 296.58 202.854C296.289 202.237 295.936 201.738 295.474 201.285C295.101 200.92 294.462 200.444 294.053 200.227C293.645 200.009 292.914 199.73 292.428 199.606C291.943 199.482 291.031 199.352 290.401 199.317C289.77 199.282 288.856 199.302 288.37 199.362ZM334.308 199.365C333.881 199.421 333.151 199.581 332.685 199.723C332.22 199.864 331.474 200.164 331.027 200.389C330.581 200.614 329.9 201.049 329.514 201.356C329.129 201.663 328.607 202.139 328.353 202.414C328.101 202.689 327.632 203.306 327.312 203.784C326.991 204.263 326.557 205.068 326.347 205.573C326.137 206.078 325.85 206.908 325.71 207.418C325.496 208.196 325.454 208.69 325.449 210.516C325.444 212.547 325.464 212.748 325.759 213.622C325.932 214.136 326.244 214.822 326.452 215.146C326.66 215.471 327.119 216.009 327.471 216.342C327.823 216.675 328.436 217.112 328.834 217.313C329.231 217.514 329.905 217.775 330.331 217.894C330.928 218.061 331.532 218.109 332.974 218.104C334.655 218.099 334.953 218.065 335.925 217.769C336.519 217.588 337.373 217.247 337.822 217.011C338.271 216.774 339.006 216.274 339.455 215.898C339.904 215.521 340.558 214.835 340.909 214.373C341.26 213.911 341.761 213.098 342.023 212.567C342.284 212.036 342.63 211.134 342.793 210.563C342.955 209.992 343.153 208.963 343.232 208.278C343.315 207.564 343.343 206.615 343.297 206.058C343.252 205.524 343.138 204.747 343.042 204.332C342.946 203.917 342.699 203.243 342.492 202.834C342.286 202.426 341.845 201.803 341.512 201.45C341.178 201.098 340.642 200.64 340.319 200.433C339.996 200.226 339.362 199.931 338.91 199.778C338.458 199.625 337.603 199.44 337.009 199.367C336.415 199.294 335.739 199.241 335.507 199.25C335.275 199.258 334.735 199.31 334.308 199.365ZM362.704 199.368C362.173 199.432 361.212 199.664 360.568 199.884C359.925 200.104 359.087 200.469 358.706 200.694C358.326 200.92 357.611 201.484 357.117 201.949C356.623 202.413 356.003 203.113 355.738 203.503C355.473 203.893 355.046 204.661 354.79 205.208C354.533 205.755 354.189 206.712 354.024 207.334C353.86 207.956 353.672 209.035 353.608 209.731C353.531 210.553 353.531 211.434 353.607 212.237C353.671 212.919 353.858 213.9 354.021 214.419C354.185 214.937 354.527 215.683 354.782 216.077C355.036 216.471 355.43 216.951 355.657 217.143C355.884 217.335 356.369 217.632 356.734 217.804C357.316 218.077 357.552 218.115 358.663 218.114C359.675 218.113 360.074 218.059 360.645 217.845C361.039 217.698 361.655 217.4 362.015 217.184C362.375 216.967 363.064 216.455 363.545 216.046C364.026 215.637 364.814 214.809 365.295 214.206C365.776 213.603 366.181 213.11 366.195 213.11C366.209 213.11 366.065 214.101 365.877 215.312C365.688 216.523 365.428 217.867 365.299 218.298C365.171 218.73 364.91 219.327 364.72 219.626C364.53 219.924 364.12 220.423 363.808 220.735C363.496 221.046 362.863 221.49 362.4 221.722C361.937 221.953 361.145 222.235 360.64 222.347C359.926 222.506 359.366 222.538 358.137 222.489C357.036 222.445 356.259 222.344 355.588 222.158C355.057 222.011 354.52 221.883 354.393 221.874C354.195 221.86 354.131 222.024 353.934 223.051C353.809 223.708 353.731 224.311 353.763 224.393C353.794 224.475 354.435 224.664 355.186 224.814C356.118 225 357.172 225.105 358.498 225.145C360.03 225.191 360.659 225.16 361.453 224.999C362.008 224.887 362.853 224.633 363.33 224.434C363.807 224.236 364.571 223.81 365.029 223.489C365.486 223.168 366.092 222.642 366.375 222.321C366.657 222 367.098 221.384 367.354 220.953C367.61 220.521 367.957 219.801 368.126 219.351C368.295 218.901 368.49 218.278 368.56 217.966C368.63 217.654 369.038 215.145 369.466 212.389C369.895 209.633 370.494 205.841 370.796 203.962C371.099 202.083 371.32 200.475 371.287 200.39C371.254 200.304 370.72 200.117 370.101 199.975C369.482 199.833 368.432 199.638 367.769 199.543C367.106 199.447 365.912 199.343 365.116 199.311C364.32 199.278 363.234 199.304 362.704 199.368ZM180.467 199.532C180.068 199.619 179.328 199.851 178.822 200.047C178.316 200.244 177.53 200.654 177.075 200.958C176.62 201.262 175.941 201.827 175.566 202.213C175.191 202.598 174.637 203.287 174.335 203.744C174.033 204.2 173.617 204.978 173.411 205.472C173.205 205.966 172.93 206.788 172.799 207.297C172.668 207.806 172.504 208.784 172.434 209.47C172.345 210.352 172.346 211.069 172.438 211.917C172.51 212.577 172.682 213.453 172.82 213.863C172.958 214.273 173.208 214.843 173.375 215.128C173.543 215.414 173.911 215.886 174.194 216.177C174.477 216.469 174.921 216.841 175.181 217.005C175.44 217.169 176.035 217.441 176.504 217.61C176.973 217.779 177.806 217.984 178.357 218.064C178.973 218.154 179.965 218.185 180.938 218.144C181.808 218.107 182.98 217.988 183.544 217.879C184.108 217.77 184.949 217.57 185.414 217.435C185.878 217.3 186.307 217.143 186.366 217.087C186.426 217.03 186.567 216.381 186.68 215.644C186.867 214.424 186.868 214.312 186.692 214.386C186.586 214.431 186.146 214.593 185.715 214.746C185.284 214.899 184.47 215.121 183.906 215.239C183.206 215.385 182.327 215.455 181.132 215.458C179.651 215.462 179.253 215.422 178.529 215.194C177.938 215.008 177.499 214.771 177.107 214.425C176.794 214.15 176.429 213.709 176.294 213.444C176.159 213.18 175.972 212.603 175.879 212.162C175.785 211.721 175.708 211.139 175.707 210.869L175.705 210.378L177.674 210.432C178.816 210.463 180.168 210.425 180.892 210.341C181.578 210.261 182.659 210.065 183.294 209.905C183.929 209.745 184.91 209.387 185.474 209.11C186.199 208.753 186.713 208.39 187.229 207.871C187.63 207.468 188.077 206.882 188.222 206.569C188.367 206.257 188.539 205.768 188.605 205.483C188.671 205.198 188.726 204.605 188.727 204.164C188.729 203.692 188.63 203.037 188.486 202.572C188.305 201.984 188.09 201.615 187.648 201.131C187.321 200.773 186.728 200.307 186.327 200.093C185.927 199.88 185.232 199.627 184.783 199.532C184.326 199.435 183.355 199.362 182.579 199.366C181.816 199.371 180.866 199.445 180.467 199.532ZM381.94 199.731C381.94 199.805 382.4 202.072 382.961 204.768C383.522 207.465 384.362 211.515 384.827 213.768L385.672 217.864L385.236 218.655C384.996 219.089 384.57 219.771 384.289 220.17C384.008 220.569 383.523 221.131 383.212 221.418C382.901 221.705 382.392 222.057 382.082 222.2C381.631 222.409 381.313 222.458 380.493 222.445C379.929 222.436 379.213 222.347 378.902 222.247L378.336 222.067L378.218 222.626C378.154 222.933 378.034 223.528 377.953 223.946C377.867 224.389 377.85 224.748 377.913 224.804C377.972 224.857 378.342 224.963 378.734 225.038C379.127 225.114 379.968 225.175 380.604 225.174C381.239 225.174 382.038 225.099 382.378 225.008C382.719 224.917 383.329 224.667 383.734 224.45C384.206 224.199 384.807 223.706 385.407 223.078C385.922 222.54 386.557 221.776 386.817 221.382C387.077 220.988 387.705 219.956 388.212 219.09C388.719 218.223 389.786 216.401 390.583 215.041C391.379 213.68 392.44 211.807 392.94 210.878C393.44 209.949 394.256 208.374 394.754 207.379C395.251 206.383 395.931 204.943 396.264 204.177C396.596 203.412 397.004 202.353 397.17 201.824C397.335 201.296 397.509 200.578 397.556 200.23L397.642 199.596H396.014H394.387L394.182 200.531C394.069 201.046 393.785 201.982 393.551 202.613C393.318 203.243 392.746 204.628 392.282 205.689C391.817 206.751 390.949 208.597 390.353 209.792C389.758 210.986 388.944 212.577 388.546 213.328C388.148 214.078 387.807 214.675 387.788 214.655C387.769 214.635 387.69 213.994 387.613 213.231C387.536 212.467 387.365 211.191 387.233 210.395C387.101 209.599 386.642 206.965 386.214 204.543C385.785 202.121 385.407 200.017 385.373 199.868C385.314 199.602 385.277 199.596 383.626 199.596C382.465 199.596 381.94 199.638 381.94 199.731ZM183.968 202.183C184.233 202.294 184.605 202.531 184.795 202.709C184.986 202.888 185.216 203.21 185.308 203.423C185.399 203.637 185.474 204.115 185.474 204.485C185.474 204.864 185.389 205.327 185.279 205.545C185.172 205.757 184.915 206.112 184.707 206.333C184.498 206.555 184.114 206.847 183.851 206.982C183.589 207.117 183.074 207.331 182.706 207.458C182.338 207.585 181.548 207.768 180.951 207.865C180.319 207.968 179.047 208.042 177.906 208.042C176.364 208.042 175.946 208.008 175.946 207.883C175.946 207.796 176.033 207.429 176.138 207.069C176.244 206.708 176.529 206.033 176.77 205.569C177.054 205.024 177.531 204.399 178.116 203.808C178.704 203.214 179.269 202.773 179.727 202.552C180.115 202.364 180.712 202.139 181.053 202.052C181.403 201.963 182.071 201.913 182.581 201.938C183.08 201.963 183.704 202.073 183.968 202.183ZM365.296 202.014C365.926 202.08 366.754 202.222 367.135 202.329C367.517 202.436 367.828 202.557 367.827 202.598C367.825 202.639 367.639 203.831 367.413 205.246L367.003 207.818L366.361 208.842C366.008 209.405 365.369 210.338 364.941 210.915C364.513 211.492 363.616 212.511 362.947 213.179C362.01 214.116 361.527 214.496 360.844 214.838C360.168 215.177 359.811 215.282 359.341 215.281C358.936 215.281 358.603 215.201 358.372 215.048C358.179 214.921 357.866 214.587 357.677 214.305C357.489 214.024 357.246 213.518 357.138 213.18C357.015 212.794 356.923 211.964 356.888 210.938C356.843 209.616 356.879 209.086 357.077 208.124C357.24 207.33 357.504 206.563 357.876 205.798C358.284 204.96 358.63 204.454 359.18 203.893C359.623 203.441 360.226 202.98 360.653 202.767C361.051 202.567 361.576 202.34 361.82 202.261C362.064 202.182 362.606 202.073 363.026 202.018C363.446 201.964 363.87 201.913 363.97 201.906C364.069 201.899 364.666 201.947 365.296 202.014ZM291.483 202.31C291.764 202.409 292.211 202.649 292.474 202.843C292.737 203.037 293.084 203.373 293.245 203.591C293.405 203.809 293.658 204.289 293.806 204.657C294.045 205.252 294.075 205.539 294.072 207.198C294.07 208.605 294.016 209.262 293.855 209.852C293.737 210.284 293.431 211.071 293.174 211.602C292.917 212.133 292.459 212.848 292.155 213.192C291.852 213.535 291.28 214.032 290.884 214.297C290.487 214.562 289.796 214.905 289.347 215.06C288.673 215.293 288.291 215.342 287.144 215.339C285.876 215.336 285.692 215.306 284.997 214.987C284.514 214.766 284.064 214.444 283.764 214.103C283.505 213.809 283.175 213.261 283.031 212.886C282.844 212.399 282.753 211.835 282.71 210.903C282.675 210.137 282.712 209.218 282.8 208.671C282.883 208.16 283.097 207.325 283.278 206.816C283.458 206.307 283.791 205.582 284.018 205.205C284.245 204.828 284.78 204.191 285.207 203.79C285.647 203.377 286.307 202.91 286.73 202.712C287.141 202.519 287.823 202.283 288.246 202.187C288.735 202.076 289.368 202.034 289.992 202.071C290.53 202.103 291.201 202.21 291.483 202.31ZM336.656 202.141C337.047 202.213 337.62 202.4 337.929 202.557C338.239 202.714 338.713 203.094 338.983 203.4C339.287 203.746 339.579 204.265 339.752 204.764C339.994 205.465 340.028 205.787 340.017 207.258C340.007 208.561 339.947 209.158 339.754 209.87C339.616 210.377 339.33 211.137 339.117 211.559C338.905 211.981 338.49 212.633 338.195 213.008C337.901 213.384 337.341 213.914 336.952 214.187C336.563 214.461 335.875 214.828 335.424 215.004C334.713 215.281 334.416 215.325 333.216 215.333C332.144 215.34 331.678 215.29 331.166 215.112C330.691 214.946 330.311 214.688 329.819 214.195C329.237 213.614 329.091 213.374 328.855 212.616C328.629 211.891 328.578 211.461 328.584 210.335C328.59 209.348 328.667 208.644 328.85 207.896C328.992 207.318 329.264 206.504 329.455 206.086C329.646 205.669 330.061 204.987 330.376 204.571C330.691 204.154 331.283 203.575 331.693 203.283C332.102 202.991 332.725 202.638 333.078 202.498C333.431 202.359 334 202.199 334.342 202.142C334.684 202.084 335.185 202.031 335.455 202.023C335.725 202.016 336.265 202.068 336.656 202.141Z" fill="#2580C2"/>
</svg>
