<svg width="356" height="120" viewBox="0 0 356 120" fill="none" xmlns="http://www.w3.org/2000/svg">
<path fill-rule="evenodd" clip-rule="evenodd" d="M333.983 71.2661C331.19 74.0393 327.744 75.4258 323.645 75.4263C319.545 75.4263 316.118 74.0486 313.361 71.2926C310.604 68.5377 309.225 64.9804 309.225 60.6218C309.225 56.3359 310.622 52.7968 313.415 50.005C316.208 47.2131 319.636 45.8172 323.7 45.8179C327.798 45.8179 331.235 47.2048 334.011 49.978C336.785 52.7516 338.173 56.2809 338.173 60.5673C338.173 64.9258 336.776 68.4925 333.983 71.2661ZM337.902 31.3914V38.5233H337.684C336.318 36.8747 334.713 35.4365 332.922 34.2552C331.163 33.103 329.431 32.2742 327.726 31.7702C326.021 31.2654 324.551 30.9233 323.319 30.744C322.13 30.5667 320.93 30.4767 319.727 30.4732C315.556 30.4732 311.683 31.3374 308.111 33.0664C304.538 34.7953 301.563 37.0831 299.186 39.9289C296.81 42.7747 294.951 45.9896 293.609 49.5729C292.276 53.1063 291.594 56.849 291.596 60.6218C291.596 66.1333 292.785 71.1576 295.16 75.6959C297.537 80.2336 300.929 83.8356 305.336 86.5017C309.742 89.1679 314.739 90.5004 320.326 90.5004C327.689 90.5004 333.404 87.8706 337.467 82.6116H337.684V89.3663C337.684 92.0314 337.249 94.3813 336.378 96.417C335.507 98.4511 334.319 100.081 332.814 101.306C331.306 102.532 329.58 103.467 327.726 104.062C325.84 104.674 323.827 104.979 321.687 104.98C317.842 104.98 314.731 103.926 312.355 101.819C309.978 99.712 308.499 97.1456 307.92 94.1211L291.869 98.7128C292.377 101.485 293.446 104.124 295.079 106.628C296.711 109.131 298.787 111.391 301.309 113.409C303.83 115.425 306.913 117.028 310.559 118.218C314.205 119.405 318.15 119.999 322.394 120C327.145 120 331.498 119.307 335.453 117.921C339.408 116.534 342.845 114.517 345.764 111.869C348.684 109.221 350.96 105.808 352.592 101.63C354.224 97.4514 355.041 92.7148 355.041 87.4204V31.3914H337.902ZM279.68 90.4464V53.7061C279.68 50.572 279.254 47.6279 278.401 44.8721C277.549 42.117 276.279 39.6312 274.592 37.4161C272.905 35.2011 270.656 33.4451 267.845 32.1475C265.033 30.8506 261.796 30.2019 258.133 30.2025C257.298 30.2025 256.292 30.3016 255.113 30.5002C253.933 30.6983 252.455 31.0673 250.677 31.6081C248.9 32.1482 247.159 33.0671 245.454 34.3633C243.77 35.6366 242.364 37.2361 241.32 39.0634H241.155V31.3914H223.961V90.4464H241.264V57.6498C241.264 54.4082 242.181 51.6891 244.012 49.4919C245.844 47.2948 248.501 46.196 251.985 46.1953C255.43 46.1953 258.015 47.2401 259.738 49.3292C261.461 51.4182 262.322 54.1922 262.322 57.6498V90.4464H279.68ZM207.855 90.4464H190.443V31.3914H207.855V90.4464ZM198.987 21.4497C202.033 21.4497 204.617 20.4055 206.74 18.3158C208.861 16.2275 209.923 13.7057 209.924 10.7518C209.924 7.76266 208.862 5.22359 206.74 3.13388C204.617 1.04555 202.033 0.000692763 198.987 0C196.084 0 193.581 1.05386 191.478 3.16089C189.373 5.26861 188.321 7.7987 188.322 10.7518C188.322 13.7057 189.373 16.2268 191.478 18.3158C193.581 20.4055 196.084 21.4497 198.987 21.4497ZM175.317 30.7426C172.016 30.7426 169.014 31.4814 166.311 32.9584C163.61 34.436 161.478 36.777 159.918 39.9822H159.755V31.3914H143.268V90.4464H160.299V64.566C160.299 59.1989 161.587 55.0657 164.162 52.1669C166.738 49.2669 170.166 47.8169 174.447 47.8162C176.623 47.8162 178.473 47.9603 179.997 48.2483V31.3374C178.469 30.9406 176.896 30.7412 175.317 30.7426ZM71.4431 31.3914V68.4556C71.4431 71.5538 71.8965 74.4713 72.8039 77.2086C73.7103 79.9464 75.035 82.4054 76.7766 84.5844C78.5176 86.764 80.8025 88.4839 83.6319 89.7443C86.4613 91.0042 89.6714 91.6346 93.2623 91.6351C100.408 91.6351 105.941 88.7893 109.859 83.0982H110.022V90.4464H127.162V31.3914H109.803V64.2959C109.803 67.5738 108.897 70.2846 107.083 72.4268C105.269 74.571 102.621 75.6424 99.1396 75.6424C95.657 75.6424 93.063 74.6157 91.358 72.5634C89.6531 70.51 88.8011 67.7545 88.8011 64.2959V31.3914H71.4431ZM44.1829 21.1256H70.3548V3.78267H0V21.1256H26.1718V90.4464H44.1829V21.1256Z" fill="#151515"/>
</svg>
