<svg width="568" height="320" viewBox="0 0 568 320" fill="none" xmlns="http://www.w3.org/2000/svg">
<path fill-rule="evenodd" clip-rule="evenodd" d="M502.641 176.179C498.747 180.038 493.942 181.968 488.227 181.968C482.512 181.968 477.733 180.051 473.889 176.216C470.045 172.382 468.123 167.431 468.123 161.365C468.123 155.401 470.071 150.476 473.964 146.59C477.859 142.705 482.638 140.762 488.303 140.763C494.018 140.763 498.81 142.693 502.679 146.553C506.547 150.413 508.483 155.324 508.483 161.289C508.483 167.355 506.535 172.319 502.641 176.179ZM508.104 120.686V130.612H507.8C505.896 128.317 503.658 126.316 501.162 124.672C498.709 123.068 496.294 121.915 493.917 121.213C491.54 120.511 489.491 120.035 487.772 119.785C486.115 119.539 484.442 119.413 482.765 119.409C476.949 119.409 471.55 120.611 466.569 123.017C461.588 125.424 457.44 128.607 454.127 132.568C450.814 136.528 448.222 141.002 446.351 145.989C444.493 150.906 443.542 156.115 443.545 161.365C443.545 169.035 445.201 176.028 448.514 182.343C451.827 188.658 456.556 193.671 462.7 197.382C468.844 201.092 475.811 202.946 483.599 202.946C493.866 202.946 501.833 199.287 507.497 191.968H507.8V201.368C507.8 205.077 507.193 208.347 505.98 211.18C504.765 214.011 503.109 216.28 501.011 217.985C498.908 219.69 496.502 220.991 493.917 221.819C491.287 222.671 488.48 223.096 485.497 223.097C480.136 223.097 475.799 221.631 472.486 218.699C469.172 215.766 467.111 212.194 466.303 207.985L443.925 214.375C444.633 218.234 446.124 221.906 448.4 225.391C450.675 228.874 453.57 232.02 457.086 234.827C460.601 237.634 464.899 239.864 469.983 241.52C475.065 243.172 480.565 243.999 486.482 244C493.107 244 499.176 243.035 504.689 241.106C510.203 239.176 514.995 236.369 519.066 232.685C523.137 228.999 526.31 224.25 528.585 218.436C530.86 212.62 531.999 206.028 532 198.66V120.686H508.104ZM426.931 202.871V151.741C426.931 147.379 426.337 143.282 425.147 139.447C423.96 135.613 422.189 132.153 419.838 129.071C417.485 125.988 414.349 123.544 410.43 121.739C406.51 119.934 401.997 119.031 396.89 119.032C395.726 119.032 394.323 119.17 392.679 119.446C391.035 119.722 388.974 120.235 386.495 120.988C384.017 121.74 381.59 123.018 379.213 124.822C376.865 126.594 374.904 128.82 373.449 131.363H373.22V120.686H349.248V202.871H373.372V157.229C373.372 152.718 374.649 148.934 377.203 145.876C379.756 142.819 383.462 141.289 388.318 141.288C393.122 141.288 396.725 142.743 399.128 145.65C401.53 148.557 402.73 152.417 402.73 157.229V202.871H426.931ZM326.792 202.871H302.517V120.686H326.792V202.871ZM314.428 106.851C318.676 106.851 322.278 105.398 325.238 102.49C328.195 99.5832 329.675 96.0737 329.676 91.963C329.676 87.803 328.196 84.2695 325.238 81.3613C322.278 78.4551 318.676 77.001 314.428 77C310.381 77 306.892 78.4666 303.959 81.3989C301.025 84.3322 299.558 87.8532 299.559 91.963C299.559 96.0737 301.025 99.5823 303.959 102.49C306.892 105.398 310.381 106.851 314.428 106.851ZM281.427 119.783C276.825 119.783 272.64 120.812 268.872 122.867C265.105 124.923 262.134 128.181 259.958 132.642H259.731V120.686H236.745V202.871H260.49V166.854C260.49 159.385 262.285 153.633 265.876 149.599C269.466 145.563 274.246 143.545 280.214 143.544C283.248 143.544 285.828 143.745 287.952 144.146V120.611C285.822 120.059 283.629 119.782 281.427 119.783ZM136.606 120.686V172.267C136.606 176.579 137.238 180.639 138.504 184.449C139.767 188.259 141.614 191.681 144.042 194.713C146.47 197.747 149.655 200.14 153.6 201.894C157.545 203.647 162.02 204.525 167.027 204.526C176.99 204.526 184.703 200.565 190.166 192.645H190.393V202.871H214.29V120.686H190.088V166.478C190.088 171.04 188.825 174.813 186.296 177.794C183.767 180.778 180.075 182.269 175.221 182.269C170.365 182.269 166.749 180.84 164.372 177.984C161.995 175.126 160.807 171.292 160.807 166.478V120.686H136.606ZM98.5999 106.4H135.089V82.2642H37V106.4H73.4889V202.871H98.5999V106.4Z" fill="#151515"/>
</svg>
