<svg width="680" height="232" viewBox="0 0 680 232" fill="none" xmlns="http://www.w3.org/2000/svg">
<path fill-rule="evenodd" clip-rule="evenodd" d="M639.169 138.157C633.829 143.497 627.239 146.167 619.401 146.168C611.563 146.168 605.009 143.515 599.738 138.208C594.466 132.903 591.83 126.053 591.83 117.66C591.83 109.407 594.501 102.592 599.841 97.216C605.182 91.84 611.737 89.152 619.506 89.1533C627.343 89.1533 633.915 91.824 639.222 97.164C644.527 102.505 647.181 109.301 647.181 117.555C647.181 125.948 644.51 132.816 639.169 138.157ZM646.662 61.3733V75.1067H646.245C643.633 71.932 640.565 69.1627 637.141 66.888C633.777 64.6693 630.465 63.0733 627.205 62.1027C623.945 61.1307 621.135 60.472 618.778 60.1267C616.505 59.7853 614.21 59.612 611.911 59.6053C603.934 59.6053 596.53 61.2693 589.698 64.5987C582.867 67.928 577.179 72.3333 572.635 77.8133C568.091 83.2933 564.537 89.484 561.97 96.384C559.422 103.188 558.118 110.395 558.122 117.66C558.122 128.273 560.394 137.948 564.937 146.687C569.481 155.425 575.966 162.361 584.393 167.495C592.818 172.629 602.373 175.195 613.055 175.195C627.135 175.195 638.059 170.131 645.83 160.004H646.245V173.011C646.245 178.143 645.413 182.668 643.749 186.588C642.083 190.505 639.811 193.644 636.934 196.003C634.05 198.363 630.75 200.163 627.205 201.309C623.598 202.487 619.749 203.076 615.657 203.077C608.305 203.077 602.357 201.048 597.814 196.991C593.269 192.933 590.442 187.991 589.334 182.167L558.643 191.009C559.613 196.348 561.659 201.429 564.781 206.251C567.901 211.071 571.871 215.423 576.693 219.308C581.514 223.191 587.409 226.277 594.379 228.568C601.351 230.855 608.894 231.999 617.009 232C626.094 232 634.418 230.665 641.979 227.996C649.541 225.325 656.113 221.441 661.695 216.343C667.279 211.244 671.631 204.672 674.751 196.627C677.871 188.58 679.433 179.459 679.434 169.264V61.3733H646.662ZM535.337 175.091V104.343C535.337 98.308 534.522 92.6387 532.891 87.332C531.262 82.0267 528.834 77.24 525.609 72.9747C522.382 68.7093 518.082 65.328 512.707 62.8293C507.331 60.332 501.141 59.0827 494.137 59.084C492.541 59.084 490.617 59.2747 488.362 59.6573C486.107 60.0387 483.281 60.7493 479.881 61.7907C476.483 62.8307 473.154 64.6 469.893 67.096C466.674 69.548 463.985 72.628 461.989 76.1467H461.675V61.3733H428.798V175.091H461.883V111.937C461.883 105.695 463.635 100.459 467.137 96.228C470.639 91.9973 475.721 89.8813 482.381 89.88C488.969 89.88 493.911 91.892 497.206 95.9147C500.501 99.9373 502.147 105.279 502.147 111.937V175.091H535.337ZM398.002 175.091H364.709V61.3733H398.002V175.091ZM381.045 42.2293C386.87 42.2293 391.813 40.2187 395.87 36.1947C399.926 32.1733 401.955 27.3173 401.957 21.6293C401.957 15.8733 399.927 10.984 395.87 6.96002C391.811 2.93868 386.87 0.926681 381.045 0.925347C375.494 0.925347 370.709 2.95468 366.687 7.01202C362.663 11.0707 360.651 15.9427 360.653 21.6293C360.653 27.3173 362.663 32.172 366.687 36.1947C370.709 40.2187 375.494 42.2293 381.045 42.2293V42.2293ZM335.786 60.124C329.474 60.124 323.734 61.5467 318.567 64.3907C313.401 67.236 309.326 71.744 306.342 77.916H306.03V61.3733H274.506V175.091H307.071V125.255C307.071 114.92 309.533 106.961 314.458 101.379C319.382 95.7947 325.937 93.0027 334.122 93.0013C338.283 93.0013 341.821 93.2787 344.734 93.8333V61.2693C341.814 60.5053 338.806 60.1213 335.786 60.124ZM137.171 61.3733V132.745C137.171 138.711 138.038 144.329 139.773 149.6C141.506 154.872 144.038 159.607 147.369 163.803C150.698 168 155.067 171.312 160.477 173.739C165.887 176.165 172.025 177.379 178.891 177.38C192.555 177.38 203.134 171.9 210.626 160.941H210.937V175.091H243.71V61.3733H210.519V124.735C210.519 131.047 208.786 136.267 205.318 140.392C201.849 144.521 196.786 146.584 190.129 146.584C183.47 146.584 178.51 144.607 175.25 140.655C171.99 136.701 170.361 131.395 170.361 124.735V61.3733H137.171ZM85.0472 41.6053H135.09V8.20934H0.565918V41.6053H50.6086V175.091H85.0472V41.6053Z" fill="white"/>
</svg>
