<svg width="568" height="320" viewBox="0 0 568 320" fill="none" xmlns="http://www.w3.org/2000/svg">
<path fill-rule="evenodd" clip-rule="evenodd" d="M331.635 71.2661C328.862 74.0393 325.439 75.4258 321.369 75.4263C317.299 75.4263 313.895 74.0486 311.158 71.2926C308.42 68.5377 307.051 64.9804 307.051 60.6218C307.051 56.3359 308.438 52.7968 311.211 50.005C313.985 47.2131 317.389 45.8172 321.423 45.8179C325.493 45.8179 328.906 47.2048 331.662 49.978C334.417 52.7516 335.795 56.2809 335.795 60.5673C335.795 64.9258 334.408 68.4925 331.635 71.2661ZM335.526 31.3914V38.5233H335.309C333.953 36.8747 332.36 35.4365 330.582 34.2552C328.835 33.103 327.115 32.2742 325.422 31.7702C323.729 31.2654 322.269 30.9233 321.045 30.744C319.865 30.5667 318.673 30.4767 317.479 30.4732C313.337 30.4732 309.492 31.3374 305.944 33.0664C302.396 34.7953 299.442 37.0831 297.083 39.9289C294.723 42.7747 292.877 45.9896 291.544 49.5729C290.221 53.1063 289.544 56.849 289.546 60.6218C289.546 66.1333 290.726 71.1576 293.085 75.6959C295.445 80.2336 298.813 83.8356 303.189 86.5017C307.564 89.1679 312.526 90.5004 318.073 90.5004C325.385 90.5004 331.058 87.8706 335.094 82.6116H335.309V89.3663C335.309 92.0314 334.877 94.3813 334.013 96.417C333.148 98.4511 331.968 100.081 330.474 101.306C328.976 102.532 327.263 103.467 325.422 104.062C323.548 104.674 321.55 104.979 319.425 104.98C315.607 104.98 312.518 103.926 310.159 101.819C307.798 99.712 306.33 97.1456 305.755 94.1211L289.817 98.7128C290.32 101.485 291.383 104.124 293.004 106.628C294.624 109.131 296.686 111.391 299.19 113.409C301.694 115.425 304.755 117.028 308.375 118.218C311.995 119.405 315.912 119.999 320.127 120C324.845 120 329.167 119.307 333.094 117.921C337.021 116.534 340.434 114.517 343.333 111.869C346.233 109.221 348.493 105.808 350.113 101.63C351.733 97.4514 352.544 92.7148 352.545 87.4204V31.3914H335.526ZM277.713 90.4464V53.7061C277.713 50.572 277.29 47.6279 276.443 44.8721C275.597 42.117 274.336 39.6312 272.662 37.4161C270.986 35.2011 268.753 33.4451 265.961 32.1475C263.17 30.8506 259.955 30.2019 256.318 30.2025C255.489 30.2025 254.49 30.3016 253.319 30.5002C252.148 30.6983 250.68 31.0673 248.914 31.6081C247.15 32.1482 245.421 33.0671 243.728 34.3633C242.056 35.6366 240.659 37.2361 239.623 39.0634H239.46V31.3914H222.386V90.4464H239.568V57.6498C239.568 54.4082 240.478 51.6891 242.296 49.4919C244.115 47.2948 246.754 46.196 250.213 46.1953C253.634 46.1953 256.2 47.2401 257.911 49.3292C259.623 51.4182 260.477 54.1922 260.477 57.6498V90.4464H277.713ZM206.394 90.4464H189.104V31.3914H206.394V90.4464ZM197.588 21.4497C200.613 21.4497 203.18 20.4055 205.286 18.3158C207.393 16.2275 208.446 13.7057 208.447 10.7518C208.447 7.76266 207.393 5.22359 205.286 3.13388C203.179 1.04555 200.613 0.000692763 197.588 0C194.705 0 192.22 1.05386 190.131 3.16089C188.042 5.26861 186.997 7.7987 186.998 10.7518C186.998 13.7057 188.042 16.2268 190.131 18.3158C192.22 20.4055 194.705 21.4497 197.588 21.4497ZM174.084 30.7426C170.806 30.7426 167.825 31.4814 165.142 32.9584C162.459 34.436 160.343 36.777 158.793 39.9822H158.631V31.3914H142.261V90.4464H159.172V64.566C159.172 59.1989 160.451 55.0657 163.008 52.1669C165.565 49.2669 168.969 47.8169 173.22 47.8162C175.381 47.8162 177.218 47.9603 178.731 48.2483V31.3374C177.214 30.9406 175.652 30.7412 174.084 30.7426ZM70.9408 31.3914V68.4556C70.9408 71.5538 71.391 74.4713 72.292 77.2086C73.192 79.9464 74.5069 82.4054 76.2367 84.5844C77.9655 86.764 80.2344 88.4839 83.0439 89.7443C85.8533 91.0042 89.0409 91.6346 92.6065 91.6351C99.7024 91.6351 105.196 88.7893 109.087 83.0982H109.248V90.4464H126.268V31.3914H109.031V64.2959C109.031 67.5738 108.131 70.2846 106.33 72.4268C104.529 74.571 101.9 75.6424 98.4425 75.6424C94.9844 75.6424 92.4086 74.6157 90.7157 72.5634C89.0227 70.51 88.1767 67.7545 88.1767 64.2959V31.3914H70.9408ZM43.8722 21.1256H69.8601V3.78267H0V21.1256H25.9878V90.4464H43.8722V21.1256Z" fill="white"/>
</svg>
