<svg width="568" height="320" viewBox="0 0 568 320" fill="none" xmlns="http://www.w3.org/2000/svg">
<path fill-rule="evenodd" clip-rule="evenodd" d="M534.311 194.013C529.843 198.449 524.329 200.667 517.771 200.668C511.213 200.668 505.73 198.464 501.319 194.055C496.908 189.647 494.703 183.957 494.703 176.984C494.703 170.127 496.938 164.465 501.406 159.999C505.874 155.532 511.359 153.299 517.859 153.3C524.416 153.3 529.915 155.519 534.355 159.955C538.794 164.393 541.014 170.039 541.014 176.896C541.014 183.869 538.78 189.575 534.311 194.013ZM540.58 130.22V141.63H540.231C538.046 138.993 535.479 136.692 532.614 134.802C529.799 132.959 527.028 131.633 524.301 130.826C521.573 130.019 519.222 129.472 517.25 129.185C515.348 128.901 513.428 128.757 511.504 128.752C504.83 128.752 498.635 130.134 492.92 132.9C487.204 135.666 482.445 139.326 478.643 143.879C474.841 148.432 471.867 153.575 469.719 159.307C467.588 164.96 466.497 170.948 466.5 176.984C466.5 185.801 468.401 193.839 472.202 201.099C476.004 208.359 481.43 214.121 488.48 218.387C495.53 222.652 503.524 224.784 512.462 224.784C524.242 224.784 533.384 220.577 539.884 212.163H540.231V222.969C540.231 227.233 539.535 230.992 538.143 234.249C536.749 237.503 534.848 240.111 532.441 242.071C530.028 244.032 527.267 245.527 524.301 246.479C521.283 247.458 518.062 247.947 514.639 247.948C508.487 247.948 503.511 246.263 499.71 242.892C495.907 239.521 493.542 235.415 492.614 230.576L466.936 237.922C467.748 242.358 469.459 246.579 472.071 250.585C474.682 254.59 478.003 258.205 482.038 261.433C486.072 264.659 491.004 267.223 496.837 269.126C502.669 271.026 508.98 271.977 515.77 271.978C523.371 271.978 530.336 270.869 536.662 268.651C542.989 266.432 548.488 263.205 553.158 258.97C557.83 254.733 561.471 249.273 564.082 242.59C566.692 235.904 567.999 228.326 568 219.856V130.22H540.58ZM447.436 224.697V165.92C447.436 160.906 446.754 156.196 445.389 151.787C444.026 147.379 441.995 143.402 439.297 139.859C436.597 136.315 432.999 133.506 428.502 131.43C424.004 129.355 418.825 128.317 412.964 128.318C411.629 128.318 410.019 128.477 408.133 128.795C406.246 129.112 403.881 129.702 401.037 130.567C398.194 131.431 395.408 132.901 392.681 134.975C389.987 137.012 387.737 139.571 386.067 142.494H385.804V130.22H358.296V224.697H385.978V172.229C385.978 167.043 387.444 162.693 390.374 159.178C393.304 155.663 397.556 153.905 403.128 153.904C408.64 153.904 412.775 155.575 415.532 158.917C418.289 162.259 419.666 166.697 419.666 172.229V224.697H447.436ZM332.53 224.697H304.674V130.22H332.53V224.697ZM318.342 114.315C323.216 114.315 327.35 112.645 330.746 109.302C334.139 105.961 335.837 101.927 335.839 97.2009C335.839 92.4188 334.14 88.3568 330.746 85.0136C327.35 81.6727 323.216 80.0011 318.342 80C313.697 80 309.694 81.686 306.329 85.0568C302.962 88.4288 301.278 92.4765 301.28 97.2009C301.28 101.927 302.962 105.96 306.329 109.302C309.694 112.645 313.697 114.315 318.342 114.315ZM280.474 129.182C275.193 129.182 270.39 130.364 266.067 132.727C261.745 135.091 258.336 138.836 255.839 143.964H255.578V130.22H229.202V224.697H256.449V183.294C256.449 174.707 258.509 168.095 262.629 163.457C266.749 158.818 272.234 156.498 279.082 156.497C282.563 156.497 285.524 156.727 287.961 157.188V130.134C285.517 129.499 283.001 129.18 280.474 129.182ZM114.296 130.22V189.516C114.296 194.473 115.021 199.14 116.473 203.519C117.923 207.899 120.042 211.833 122.828 215.319C125.614 218.806 129.269 221.558 133.796 223.574C138.322 225.59 143.458 226.598 149.202 226.599C160.635 226.599 169.485 222.046 175.755 212.942H176.015V224.697H203.435V130.22H175.665V182.862C175.665 188.106 174.215 192.442 171.313 195.869C168.411 199.3 164.175 201.014 158.605 201.014C153.033 201.014 148.883 199.371 146.156 196.088C143.428 192.803 142.065 188.395 142.065 182.862V130.22H114.296ZM70.6844 113.797H112.555V86.0516H0V113.797H41.8701V224.697H70.6844V113.797Z" fill="#151515"/>
</svg>
