<svg width="568" height="320" viewBox="0 0 568 320" fill="none" xmlns="http://www.w3.org/2000/svg">
<path d="M494.956 157.559H472.093L483.524 137.738C484.914 135.327 485.646 132.593 485.646 129.81C485.646 127.028 484.914 124.294 483.524 121.883L478.952 113.967L458.376 149.632C456.985 152.041 456.252 154.773 456.251 157.555C456.25 160.337 456.982 163.07 458.372 165.479C459.762 167.889 461.762 169.89 464.17 171.282C466.579 172.674 469.312 173.407 472.093 173.408H513.28L508.707 165.487C507.313 163.074 505.308 161.071 502.894 159.68C500.48 158.288 497.742 157.557 494.956 157.559Z" fill="white"/>
<path d="M540.725 117.928C539.347 115.508 537.351 113.499 534.94 112.106C532.53 110.713 529.792 109.986 527.008 110H485.799L490.371 117.928C491.762 120.335 493.762 122.334 496.17 123.724C498.577 125.115 501.308 125.848 504.089 125.849H526.951L515.52 145.665C514.13 148.076 513.398 150.81 513.398 153.593C513.398 156.375 514.13 159.109 515.52 161.52L520.092 169.442L540.668 133.771C542.083 131.373 542.834 128.642 542.844 125.857C542.854 123.073 542.123 120.336 540.725 117.928Z" fill="white"/>
<path d="M83.4358 153.839L61.2423 208.165H47.102L25 153.867H41.3408L54.1607 191.493L66.9578 153.839H83.4358Z" fill="white"/>
<path d="M104.898 127.793C105.813 128.711 106.531 129.808 107.006 131.016C107.481 132.223 107.703 133.515 107.658 134.811C107.688 136.082 107.459 137.346 106.984 138.525C106.51 139.704 105.8 140.774 104.898 141.67C103.981 142.583 102.888 143.298 101.685 143.773C100.482 144.248 99.1945 144.472 97.9018 144.431C96.6297 144.459 95.3648 144.23 94.1835 143.758C93.0021 143.285 91.9287 142.577 91.0279 141.679C90.127 140.78 89.4174 139.708 88.9416 138.528C88.4659 137.348 88.2339 136.084 88.2597 134.811C88.2184 133.519 88.442 132.231 88.9168 131.028C89.3915 129.825 90.1074 128.732 91.0203 127.816C91.9154 126.912 92.9853 126.201 94.1645 125.725C95.3438 125.25 96.6077 125.02 97.879 125.049C99.1742 125.003 100.465 125.223 101.672 125.695C102.879 126.167 103.977 126.881 104.898 127.793ZM90.6088 153.838H105.075V208.165H90.6088V153.838Z" fill="white"/>
<path d="M170.804 153.839L148.582 208.165H134.47L112.362 153.867H128.686L141.5 191.493L154.32 153.867L170.804 153.839Z" fill="white"/>
<path d="M183.971 206.519C179.924 204.188 176.636 200.736 174.506 196.579C172.194 192.232 171.037 187.038 171.037 180.999C171.037 174.959 172.194 169.766 174.506 165.418C176.636 161.263 179.924 157.813 183.971 155.485C187.975 153.205 192.51 152.022 197.117 152.055C201.347 152.055 204.967 152.878 207.977 154.524C210.968 156.146 213.467 158.543 215.213 161.463H215.447V153.838H229.85V208.165H215.504V200.54H215.27C213.518 203.456 211.012 205.845 208.017 207.456C204.999 209.102 201.379 209.925 197.157 209.925C192.539 209.97 187.99 208.795 183.971 206.519ZM211.406 192.053C214.111 189.229 215.464 185.545 215.464 180.999C215.464 176.453 214.111 172.768 211.406 169.945C208.704 167.125 205.157 165.715 200.764 165.715C196.37 165.715 192.823 167.125 190.121 169.945C187.42 172.768 186.069 176.453 186.069 180.999C186.069 185.545 187.42 189.229 190.121 192.053C192.827 194.876 196.374 196.288 200.764 196.288C205.153 196.288 208.708 194.876 211.429 192.053H211.406Z" fill="white"/>
<path d="M324.609 153.839L305.673 208.165H292.859L280.393 172.648L267.933 208.165H255.114L236.184 153.867H251.233L261.698 189.498L273.575 153.867H287.218L299.095 189.681L309.56 153.816L324.609 153.839Z" fill="white"/>
<path d="M372.466 159.657C377.088 164.717 379.401 171.871 379.404 181.119V183.965H338.824C339.205 188.118 340.792 191.357 343.585 193.682C346.378 196.006 349.891 197.149 354.124 197.111C360 197.111 365.409 194.634 370.351 189.681L377.638 200.146C374.588 202.965 371.141 205.322 367.407 207.142C363.647 208.982 359.219 209.902 354.124 209.902C348.245 209.902 343.111 208.708 338.721 206.319C334.406 204.006 330.853 200.495 328.49 196.208C326.055 191.856 324.84 186.823 324.844 181.107C324.848 175.392 326.023 170.335 328.37 165.938C330.62 161.656 334.047 158.107 338.247 155.707C342.48 153.28 347.42 152.065 353.067 152.061C361.374 152.069 367.84 154.601 372.466 159.657ZM343.482 166.418C341.169 168.224 339.738 170.968 339.19 174.649H364.824C364.592 171.219 363.357 168.535 361.12 166.596C358.884 164.656 355.963 163.703 352.358 163.738C348.754 163.723 345.795 164.616 343.482 166.418Z" fill="white"/>
<path d="M410.742 207.456C407.753 205.843 405.253 203.454 403.506 200.54H403.272V208.188H388.812V125.884H403.272V161.514H403.506C405.252 158.594 407.751 156.197 410.742 154.576C413.752 152.93 417.372 152.107 421.602 152.107C426.209 152.073 430.744 153.256 434.747 155.536C438.795 157.864 442.082 161.314 444.212 165.47C446.521 169.825 447.678 175.018 447.682 181.05C447.685 187.082 446.529 192.275 444.212 196.631C442.082 200.788 438.795 204.24 434.747 206.57C430.743 208.848 426.209 210.03 421.602 209.999C417.38 209.95 413.76 209.102 410.742 207.456ZM428.615 192.053C431.32 189.229 432.673 185.544 432.673 180.999C432.673 176.453 431.32 172.768 428.615 169.945C425.909 167.125 422.362 165.715 417.972 165.715C413.583 165.715 410.035 167.125 407.33 169.945C404.625 172.768 403.272 176.453 403.272 180.999C403.272 185.544 404.625 189.229 407.33 192.053C410.035 194.876 413.583 196.288 417.972 196.288C422.362 196.288 425.909 194.876 428.615 192.053Z" fill="white"/>
</svg>
